%TF.GenerationSoftware,KiCad,Pcbnew,4.0.2+dfsg1-stable*%
%TF.CreationDate,2018-05-09T22:27:37+02:00*%
%TF.ProjectId,hermas_box,6865726D61735F626F782E6B69636164,rev?*%
%TF.FileFunction,Legend,Top*%
%FSLAX46Y46*%
G04 Gerber Fmt 4.6, Leading zero omitted, Abs format (unit mm)*
G04 Created by KiCad (PCBNEW 4.0.2+dfsg1-stable) date mer. 09 mai 2018 22:27:37 CEST*
%MOMM*%
G01*
G04 APERTURE LIST*
%ADD10C,0.100000*%
%ADD11C,0.150000*%
G04 APERTURE END LIST*
D10*
D11*
X114708009Y91186000D02*
G75*
G03X114708009Y91186000I-1805009J0D01*
G01*
X114708009Y3175000D02*
G75*
G03X114708009Y3175000I-1805009J0D01*
G01*
X4853009Y3175000D02*
G75*
G03X4853009Y3175000I-1805009J0D01*
G01*
X4853009Y91186000D02*
G75*
G03X4853009Y91186000I-1805009J0D01*
G01*
X0Y94361000D02*
X116078000Y94361000D01*
X0Y94234000D02*
X0Y94361000D01*
X0Y94107000D02*
X0Y94234000D01*
X0Y0D02*
X0Y94107000D01*
X116078000Y0D02*
X0Y0D01*
X116078000Y94361000D02*
X116078000Y0D01*
X22339000Y38087000D02*
X23099000Y38087000D01*
X22339000Y52337000D02*
X23099000Y52337000D01*
X36589000Y52337000D02*
X35829000Y52337000D01*
X36589000Y38087000D02*
X35829000Y38087000D01*
X22339000Y38087000D02*
X22339000Y38847000D01*
X36589000Y38087000D02*
X36589000Y38847000D01*
X36589000Y52337000D02*
X36589000Y51577000D01*
X22339000Y52337000D02*
X22339000Y51577000D01*
X23099000Y38087000D02*
X23099000Y36562000D01*
X97192068Y83653000D02*
G75*
G03X97192068Y83653000I-2236068J0D01*
G01*
X98456000Y87153000D02*
X98456000Y80153000D01*
X98456000Y80153000D02*
X91456000Y80153000D01*
X91456000Y80153000D02*
X91456000Y87153000D01*
X91456000Y87153000D02*
X98456000Y87153000D01*
X76088240Y69439840D02*
X76088240Y69488100D01*
X75387200Y72238820D02*
X76088240Y72238820D01*
X76088240Y72238820D02*
X76088240Y71989900D01*
X76088240Y69439840D02*
X76088240Y69239180D01*
X76088240Y69239180D02*
X75387200Y69239180D01*
X47641000Y56955000D02*
X49641000Y56955000D01*
X49641000Y54805000D02*
X47641000Y54805000D01*
X101219000Y3302000D02*
X91059000Y3302000D01*
X101219000Y3302000D02*
X103124000Y5207000D01*
X91059000Y23622000D02*
X91059000Y3302000D01*
X103124000Y5207000D02*
X103124000Y24257000D01*
X103124000Y24257000D02*
X91059000Y24257000D01*
X91059000Y24257000D02*
X91059000Y22352000D01*
X105554000Y7747000D02*
X105554000Y27147000D01*
X105554000Y27147000D02*
X89154000Y27147000D01*
X89154000Y7747000D02*
X89154000Y27147000D01*
X105554000Y7747000D02*
X89154000Y7747000D01*
X109765068Y83653000D02*
G75*
G03X109765068Y83653000I-2236068J0D01*
G01*
X111029000Y87153000D02*
X111029000Y80153000D01*
X111029000Y80153000D02*
X104029000Y80153000D01*
X104029000Y80153000D02*
X104029000Y87153000D01*
X104029000Y87153000D02*
X111029000Y87153000D01*
X52562000Y61985000D02*
X50562000Y61985000D01*
X50562000Y59935000D02*
X52562000Y59935000D01*
X44720000Y59935000D02*
X46720000Y59935000D01*
X46720000Y61985000D02*
X44720000Y61985000D01*
X13732000Y42282000D02*
X15732000Y42282000D01*
X15732000Y44332000D02*
X13732000Y44332000D01*
X44815000Y42744500D02*
X42815000Y42744500D01*
X42815000Y40694500D02*
X44815000Y40694500D01*
X26781000Y32902000D02*
X24781000Y32902000D01*
X24781000Y30852000D02*
X26781000Y30852000D01*
X13732000Y48124000D02*
X15732000Y48124000D01*
X15732000Y50174000D02*
X13732000Y50174000D01*
X27448000Y56506000D02*
X29448000Y56506000D01*
X29448000Y58556000D02*
X27448000Y58556000D01*
X17916000Y36719000D02*
X17916000Y38719000D01*
X15866000Y38719000D02*
X15866000Y36719000D01*
X30607000Y89916000D02*
X28575000Y89916000D01*
X28194000Y89789000D02*
X30988000Y89789000D01*
X31242000Y89662000D02*
X27940000Y89662000D01*
X27686000Y89535000D02*
X31496000Y89535000D01*
X27559000Y89408000D02*
X31623000Y89408000D01*
X31877000Y89281000D02*
X27305000Y89281000D01*
X33782000Y90297000D02*
X25400000Y90297000D01*
X25400000Y90297000D02*
X25400000Y82677000D01*
X25400000Y82677000D02*
X26162000Y81915000D01*
X26162000Y81915000D02*
X33020000Y81915000D01*
X33020000Y81915000D02*
X33782000Y82677000D01*
X33782000Y82677000D02*
X33782000Y90297000D01*
X29591000Y82423000D02*
X29591000Y83185000D01*
X29972000Y82804000D02*
X29210000Y82804000D01*
X33528000Y86106000D02*
G75*
G03X33528000Y86106000I-3937000J0D01*
G01*
X32122000Y78343000D02*
X32122000Y76343000D01*
X34172000Y76343000D02*
X34172000Y78343000D01*
X82051000Y5858000D02*
X82051000Y7858000D01*
X80001000Y7858000D02*
X80001000Y5858000D01*
X80001000Y16367000D02*
X80001000Y14367000D01*
X82051000Y14367000D02*
X82051000Y16367000D01*
X63881000Y90170000D02*
X65913000Y90170000D01*
X66294000Y90043000D02*
X63373000Y90043000D01*
X63119000Y89916000D02*
X66675000Y89916000D01*
X67056000Y89789000D02*
X62738000Y89789000D01*
X62484000Y89662000D02*
X67310000Y89662000D01*
X67437000Y89535000D02*
X62357000Y89535000D01*
X70104000Y90551000D02*
X59690000Y90551000D01*
X59690000Y90551000D02*
X59690000Y80899000D01*
X59690000Y80899000D02*
X60452000Y80137000D01*
X60452000Y80137000D02*
X69342000Y80137000D01*
X69342000Y80137000D02*
X70104000Y80899000D01*
X70104000Y80899000D02*
X70104000Y90551000D01*
X64897000Y80772000D02*
X64897000Y81534000D01*
X65278000Y81153000D02*
X64516000Y81153000D01*
X69850000Y85344000D02*
G75*
G03X69850000Y85344000I-4953000J0D01*
G01*
X81906000Y86217000D02*
X81906000Y84217000D01*
X83956000Y84217000D02*
X83956000Y86217000D01*
X51807000Y21193000D02*
X51807000Y19193000D01*
X53857000Y19193000D02*
X53857000Y21193000D01*
X80264000Y41529000D02*
X80264000Y40767000D01*
X79883000Y41148000D02*
X80645000Y41148000D01*
X82550000Y41402000D02*
X82550000Y37592000D01*
X78740000Y42164000D02*
X81788000Y42164000D01*
X82550000Y41402000D02*
X81788000Y42164000D01*
X77978000Y41402000D02*
X77978000Y37592000D01*
X77978000Y41402000D02*
X78740000Y42164000D01*
X80391000Y37846000D02*
X80137000Y37846000D01*
X79629000Y37973000D02*
X80899000Y37973000D01*
X81153000Y38100000D02*
X79375000Y38100000D01*
X81407000Y38227000D02*
X79121000Y38227000D01*
X78994000Y38354000D02*
X81534000Y38354000D01*
X81661000Y38481000D02*
X78867000Y38481000D01*
X78740000Y38608000D02*
X81788000Y38608000D01*
X78613000Y38735000D02*
X81915000Y38735000D01*
X77978000Y37592000D02*
X82550000Y37592000D01*
X82296000Y39878000D02*
G75*
G03X82296000Y39878000I-2032000J0D01*
G01*
X32147000Y10659000D02*
X34147000Y10659000D01*
X34147000Y12709000D02*
X32147000Y12709000D01*
X94370000Y33417000D02*
X94370000Y35417000D01*
X92320000Y35417000D02*
X92320000Y33417000D01*
X97799000Y33417000D02*
X97799000Y35417000D01*
X95749000Y35417000D02*
X95749000Y33417000D01*
X10931000Y63593000D02*
X14531000Y63593000D01*
X10931000Y65693000D02*
X14531000Y65693000D01*
X12981000Y64943000D02*
X12981000Y64343000D01*
X12981000Y64343000D02*
X12681000Y64643000D01*
X12681000Y64643000D02*
X12881000Y64843000D01*
X12881000Y64843000D02*
X12881000Y64593000D01*
X12881000Y64593000D02*
X12831000Y64643000D01*
X12581000Y65143000D02*
X12581000Y64143000D01*
X13081000Y64643000D02*
X13581000Y64643000D01*
X12581000Y64643000D02*
X13081000Y65143000D01*
X13081000Y65143000D02*
X13081000Y64143000D01*
X13081000Y64143000D02*
X12581000Y64643000D01*
X10931000Y59275000D02*
X14531000Y59275000D01*
X10931000Y61375000D02*
X14531000Y61375000D01*
X12981000Y60625000D02*
X12981000Y60025000D01*
X12981000Y60025000D02*
X12681000Y60325000D01*
X12681000Y60325000D02*
X12881000Y60525000D01*
X12881000Y60525000D02*
X12881000Y60275000D01*
X12881000Y60275000D02*
X12831000Y60325000D01*
X12581000Y60825000D02*
X12581000Y59825000D01*
X13081000Y60325000D02*
X13581000Y60325000D01*
X12581000Y60325000D02*
X13081000Y60825000D01*
X13081000Y60825000D02*
X13081000Y59825000D01*
X13081000Y59825000D02*
X12581000Y60325000D01*
X10867500Y72673500D02*
X14467500Y72673500D01*
X10867500Y74773500D02*
X14467500Y74773500D01*
X12917500Y74023500D02*
X12917500Y73423500D01*
X12917500Y73423500D02*
X12617500Y73723500D01*
X12617500Y73723500D02*
X12817500Y73923500D01*
X12817500Y73923500D02*
X12817500Y73673500D01*
X12817500Y73673500D02*
X12767500Y73723500D01*
X12517500Y74223500D02*
X12517500Y73223500D01*
X13017500Y73723500D02*
X13517500Y73723500D01*
X12517500Y73723500D02*
X13017500Y74223500D01*
X13017500Y74223500D02*
X13017500Y73223500D01*
X13017500Y73223500D02*
X12517500Y73723500D01*
X10931000Y68038000D02*
X14531000Y68038000D01*
X10931000Y70138000D02*
X14531000Y70138000D01*
X12981000Y69388000D02*
X12981000Y68788000D01*
X12981000Y68788000D02*
X12681000Y69088000D01*
X12681000Y69088000D02*
X12881000Y69288000D01*
X12881000Y69288000D02*
X12881000Y69038000D01*
X12881000Y69038000D02*
X12831000Y69088000D01*
X12581000Y69588000D02*
X12581000Y68588000D01*
X13081000Y69088000D02*
X13581000Y69088000D01*
X12581000Y69088000D02*
X13081000Y69588000D01*
X13081000Y69588000D02*
X13081000Y68588000D01*
X13081000Y68588000D02*
X12581000Y69088000D01*
X84382000Y30656000D02*
G75*
G03X84382000Y30656000I-100000J0D01*
G01*
X84832000Y30406000D02*
X84332000Y30406000D01*
X84832000Y27506000D02*
X84832000Y30406000D01*
X84332000Y27506000D02*
X84832000Y27506000D01*
X84332000Y30406000D02*
X84332000Y27506000D01*
X48434000Y79843000D02*
X47184000Y79843000D01*
X48434000Y79843000D02*
X48434000Y81343000D01*
X38434000Y79843000D02*
X38434000Y81343000D01*
X38434000Y79843000D02*
X39684000Y79843000D01*
X46482000Y35687000D02*
X46482000Y38227000D01*
X46202000Y32867000D02*
X46202000Y34417000D01*
X46482000Y35687000D02*
X49022000Y35687000D01*
X49302000Y34417000D02*
X49302000Y32867000D01*
X49302000Y32867000D02*
X46202000Y32867000D01*
X49022000Y35687000D02*
X49022000Y38227000D01*
X49022000Y38227000D02*
X46482000Y38227000D01*
X5080000Y30734000D02*
X5080000Y25654000D01*
X5080000Y25654000D02*
X7620000Y25654000D01*
X7620000Y25654000D02*
X7620000Y30734000D01*
X7900000Y33554000D02*
X7900000Y32004000D01*
X7620000Y30734000D02*
X5080000Y30734000D01*
X4800000Y32004000D02*
X4800000Y33554000D01*
X4800000Y33554000D02*
X7900000Y33554000D01*
X20701000Y20828000D02*
X38481000Y20828000D01*
X35941000Y25908000D02*
X20701000Y25908000D01*
X20701000Y20828000D02*
X20701000Y25908000D01*
X38481000Y20828000D02*
X38481000Y23368000D01*
X38761000Y24638000D02*
X38761000Y26188000D01*
X38481000Y23368000D02*
X35941000Y23368000D01*
X35941000Y23368000D02*
X35941000Y25908000D01*
X38761000Y26188000D02*
X37211000Y26188000D01*
X13462000Y87884000D02*
X13462000Y90424000D01*
X13182000Y85064000D02*
X13182000Y86614000D01*
X13462000Y87884000D02*
X16002000Y87884000D01*
X16282000Y86614000D02*
X16282000Y85064000D01*
X16282000Y85064000D02*
X13182000Y85064000D01*
X16002000Y87884000D02*
X16002000Y90424000D01*
X16002000Y90424000D02*
X13462000Y90424000D01*
X5080000Y9398000D02*
X5080000Y11938000D01*
X4800000Y6578000D02*
X4800000Y8128000D01*
X5080000Y9398000D02*
X7620000Y9398000D01*
X7900000Y8128000D02*
X7900000Y6578000D01*
X7900000Y6578000D02*
X4800000Y6578000D01*
X7620000Y9398000D02*
X7620000Y11938000D01*
X7620000Y11938000D02*
X5080000Y11938000D01*
X5207000Y50800000D02*
X5207000Y53340000D01*
X4927000Y47980000D02*
X4927000Y49530000D01*
X5207000Y50800000D02*
X7747000Y50800000D01*
X8027000Y49530000D02*
X8027000Y47980000D01*
X8027000Y47980000D02*
X4927000Y47980000D01*
X7747000Y50800000D02*
X7747000Y53340000D01*
X7747000Y53340000D02*
X5207000Y53340000D01*
X12954000Y12192000D02*
X12954000Y14732000D01*
X12674000Y9372000D02*
X12674000Y10922000D01*
X12954000Y12192000D02*
X15494000Y12192000D01*
X15774000Y10922000D02*
X15774000Y9372000D01*
X15774000Y9372000D02*
X12674000Y9372000D01*
X15494000Y12192000D02*
X15494000Y14732000D01*
X15494000Y14732000D02*
X12954000Y14732000D01*
X49631000Y49911000D02*
X49631000Y51461000D01*
X51181000Y51461000D02*
X49631000Y51461000D01*
X49911000Y48641000D02*
X52451000Y48641000D01*
X52451000Y48641000D02*
X52451000Y51181000D01*
X52451000Y51181000D02*
X54991000Y51181000D01*
X54991000Y51181000D02*
X54991000Y46101000D01*
X54991000Y46101000D02*
X49911000Y46101000D01*
X49911000Y46101000D02*
X49911000Y48641000D01*
X63119000Y30099000D02*
X65659000Y30099000D01*
X60299000Y30379000D02*
X61849000Y30379000D01*
X63119000Y30099000D02*
X63119000Y27559000D01*
X61849000Y27279000D02*
X60299000Y27279000D01*
X60299000Y27279000D02*
X60299000Y30379000D01*
X63119000Y27559000D02*
X65659000Y27559000D01*
X65659000Y27559000D02*
X65659000Y30099000D01*
X76327000Y25273000D02*
X76327000Y22733000D01*
X76607000Y28093000D02*
X76607000Y26543000D01*
X76327000Y25273000D02*
X73787000Y25273000D01*
X73507000Y26543000D02*
X73507000Y28093000D01*
X73507000Y28093000D02*
X76607000Y28093000D01*
X73787000Y25273000D02*
X73787000Y22733000D01*
X73787000Y22733000D02*
X76327000Y22733000D01*
X63754000Y68072000D02*
X63754000Y65532000D01*
X64034000Y70892000D02*
X64034000Y69342000D01*
X63754000Y68072000D02*
X61214000Y68072000D01*
X60934000Y69342000D02*
X60934000Y70892000D01*
X60934000Y70892000D02*
X64034000Y70892000D01*
X61214000Y68072000D02*
X61214000Y65532000D01*
X61214000Y65532000D02*
X63754000Y65532000D01*
X67691000Y68580000D02*
X67691000Y71120000D01*
X67411000Y65760000D02*
X67411000Y67310000D01*
X67691000Y68580000D02*
X70231000Y68580000D01*
X70511000Y67310000D02*
X70511000Y65760000D01*
X70511000Y65760000D02*
X67411000Y65760000D01*
X70231000Y68580000D02*
X70231000Y71120000D01*
X70231000Y71120000D02*
X67691000Y71120000D01*
X78131000Y47371000D02*
X78131000Y45821000D01*
X76581000Y45821000D02*
X78131000Y45821000D01*
X77851000Y48641000D02*
X75311000Y48641000D01*
X75311000Y48641000D02*
X75311000Y46101000D01*
X75311000Y46101000D02*
X72771000Y46101000D01*
X72771000Y46101000D02*
X72771000Y51181000D01*
X72771000Y51181000D02*
X77851000Y51181000D01*
X77851000Y51181000D02*
X77851000Y48641000D01*
X35306000Y64262000D02*
X35306000Y66802000D01*
X35026000Y61442000D02*
X35026000Y62992000D01*
X35306000Y64262000D02*
X37846000Y64262000D01*
X38126000Y62992000D02*
X38126000Y61442000D01*
X38126000Y61442000D02*
X35026000Y61442000D01*
X37846000Y64262000D02*
X37846000Y66802000D01*
X37846000Y66802000D02*
X35306000Y66802000D01*
X24384000Y64262000D02*
X24384000Y61722000D01*
X24664000Y67082000D02*
X24664000Y65532000D01*
X24384000Y64262000D02*
X21844000Y64262000D01*
X21564000Y65532000D02*
X21564000Y67082000D01*
X21564000Y67082000D02*
X24664000Y67082000D01*
X21844000Y64262000D02*
X21844000Y61722000D01*
X21844000Y61722000D02*
X24384000Y61722000D01*
X44170000Y7366000D02*
X44170000Y8916000D01*
X45720000Y8916000D02*
X44170000Y8916000D01*
X44450000Y6096000D02*
X46990000Y6096000D01*
X46990000Y6096000D02*
X46990000Y8636000D01*
X46990000Y8636000D02*
X49530000Y8636000D01*
X49530000Y8636000D02*
X49530000Y3556000D01*
X49530000Y3556000D02*
X44450000Y3556000D01*
X44450000Y3556000D02*
X44450000Y6096000D01*
X61833760Y55528160D02*
X61833760Y55479900D01*
X62534800Y52729180D02*
X61833760Y52729180D01*
X61833760Y52729180D02*
X61833760Y52978100D01*
X61833760Y55528160D02*
X61833760Y55728820D01*
X61833760Y55728820D02*
X62534800Y55728820D01*
X66817240Y36546840D02*
X66817240Y36595100D01*
X66116200Y39345820D02*
X66817240Y39345820D01*
X66817240Y39345820D02*
X66817240Y39096900D01*
X66817240Y36546840D02*
X66817240Y36346180D01*
X66817240Y36346180D02*
X66116200Y36346180D01*
X69058840Y23098760D02*
X69107100Y23098760D01*
X71857820Y23799800D02*
X71857820Y23098760D01*
X71857820Y23098760D02*
X71608900Y23098760D01*
X69058840Y23098760D02*
X68858180Y23098760D01*
X68858180Y23098760D02*
X68858180Y23799800D01*
X29956760Y67720160D02*
X29956760Y67671900D01*
X30657800Y64921180D02*
X29956760Y64921180D01*
X29956760Y64921180D02*
X29956760Y65170100D01*
X29956760Y67720160D02*
X29956760Y67920820D01*
X29956760Y67920820D02*
X30657800Y67920820D01*
X41597000Y34941000D02*
X41597000Y36941000D01*
X43747000Y36941000D02*
X43747000Y34941000D01*
X68385000Y55229000D02*
X68385000Y53229000D01*
X66235000Y53229000D02*
X66235000Y55229000D01*
X63484000Y47820000D02*
X61484000Y47820000D01*
X61484000Y49970000D02*
X63484000Y49970000D01*
X55948000Y54626000D02*
X55948000Y56626000D01*
X58098000Y56626000D02*
X58098000Y54626000D01*
X65421000Y44890000D02*
X67421000Y44890000D01*
X67421000Y42740000D02*
X65421000Y42740000D01*
X60436000Y42740000D02*
X58436000Y42740000D01*
X58436000Y44890000D02*
X60436000Y44890000D01*
X58107000Y37227000D02*
X58107000Y39227000D01*
X60257000Y39227000D02*
X60257000Y37227000D01*
X4842000Y65718000D02*
X6842000Y65718000D01*
X6842000Y63568000D02*
X4842000Y63568000D01*
X4905500Y61463500D02*
X6905500Y61463500D01*
X6905500Y59313500D02*
X4905500Y59313500D01*
X4842000Y74862000D02*
X6842000Y74862000D01*
X6842000Y72712000D02*
X4842000Y72712000D01*
X53356000Y87816000D02*
X55356000Y87816000D01*
X55356000Y85666000D02*
X53356000Y85666000D01*
X53356000Y81593000D02*
X55356000Y81593000D01*
X55356000Y79443000D02*
X53356000Y79443000D01*
X77910000Y86217000D02*
X77910000Y84217000D01*
X75760000Y84217000D02*
X75760000Y86217000D01*
X67072000Y63559000D02*
X69072000Y63559000D01*
X69072000Y61409000D02*
X67072000Y61409000D01*
X74184000Y64575000D02*
X76184000Y64575000D01*
X76184000Y62425000D02*
X74184000Y62425000D01*
X22538000Y10398000D02*
X22538000Y8398000D01*
X20388000Y8398000D02*
X20388000Y10398000D01*
X4842000Y70163000D02*
X6842000Y70163000D01*
X6842000Y68013000D02*
X4842000Y68013000D01*
X12462000Y55558000D02*
X14462000Y55558000D01*
X14462000Y53408000D02*
X12462000Y53408000D01*
X63305000Y24114000D02*
X63305000Y22114000D01*
X61155000Y22114000D02*
X61155000Y24114000D01*
X67623000Y24241000D02*
X67623000Y22241000D01*
X65473000Y22241000D02*
X65473000Y24241000D01*
X70469000Y28008000D02*
X68469000Y28008000D01*
X68469000Y30158000D02*
X70469000Y30158000D01*
X101151000Y35417000D02*
X101151000Y33417000D01*
X99001000Y33417000D02*
X99001000Y35417000D01*
X102430000Y33417000D02*
X102430000Y35417000D01*
X104580000Y35417000D02*
X104580000Y33417000D01*
X105605000Y33417000D02*
X105605000Y35417000D01*
X107755000Y35417000D02*
X107755000Y33417000D01*
X37449000Y69664000D02*
X35449000Y69664000D01*
X35449000Y71814000D02*
X37449000Y71814000D01*
X31226000Y69664000D02*
X29226000Y69664000D01*
X29226000Y71814000D02*
X31226000Y71814000D01*
X31099000Y59885000D02*
X29099000Y59885000D01*
X29099000Y62035000D02*
X31099000Y62035000D01*
X85598000Y43561000D02*
X109598000Y43561000D01*
X109598000Y43561000D02*
X109598000Y67561000D01*
X85598000Y43561000D02*
X85598000Y67561000D01*
X85598000Y67561000D02*
X109598000Y67561000D01*
X61915000Y13408000D02*
X57465000Y13408000D01*
X63440000Y6658000D02*
X57465000Y6658000D01*
X37254000Y2505000D02*
X37254000Y2650000D01*
X33104000Y2505000D02*
X33104000Y2650000D01*
X33104000Y7655000D02*
X33104000Y7510000D01*
X37254000Y7655000D02*
X37254000Y7510000D01*
X37254000Y2505000D02*
X33104000Y2505000D01*
X37254000Y7655000D02*
X33104000Y7655000D01*
X37254000Y2650000D02*
X38654000Y2650000D01*
X43045380Y63667640D02*
X54744620Y63667640D01*
X54744620Y68666360D02*
X43045380Y68666360D01*
X54744620Y63667640D02*
X54744620Y64516000D01*
X54744620Y68666360D02*
X54744620Y67818000D01*
X43045380Y63667640D02*
X43045380Y64516000D01*
X43045380Y68666360D02*
X43045380Y67818000D01*
X71668640Y17025620D02*
X71668640Y5326380D01*
X76667360Y5326380D02*
X76667360Y17025620D01*
X71668640Y5326380D02*
X72517000Y5326380D01*
X76667360Y5326380D02*
X75819000Y5326380D01*
X71668640Y17025620D02*
X72517000Y17025620D01*
X76667360Y17025620D02*
X75819000Y17025620D01*
X54890000Y56795000D02*
X54890000Y55245000D01*
X51790000Y55245000D02*
X51790000Y56795000D01*
X51790000Y56795000D02*
X54890000Y56795000D01*
X52070000Y53975000D02*
X54610000Y53975000D01*
X20266381Y44235810D02*
X19266381Y44235810D01*
X20171143Y45283429D02*
X20218762Y45235810D01*
X20266381Y45092953D01*
X20266381Y44997715D01*
X20218762Y44854857D01*
X20123524Y44759619D01*
X20028286Y44712000D01*
X19837810Y44664381D01*
X19694952Y44664381D01*
X19504476Y44712000D01*
X19409238Y44759619D01*
X19314000Y44854857D01*
X19266381Y44997715D01*
X19266381Y45092953D01*
X19314000Y45235810D01*
X19361619Y45283429D01*
X20266381Y46235810D02*
X20266381Y45664381D01*
X20266381Y45950095D02*
X19266381Y45950095D01*
X19409238Y45854857D01*
X19504476Y45759619D01*
X19552095Y45664381D01*
X94289333Y78986333D02*
X94765524Y78986333D01*
X94194095Y78700619D02*
X94527428Y79700619D01*
X94860762Y78700619D01*
X95194095Y79224429D02*
X95527429Y79224429D01*
X95670286Y78700619D02*
X95194095Y78700619D01*
X95194095Y79700619D01*
X95670286Y79700619D01*
X96622667Y78700619D02*
X96051238Y78700619D01*
X96336952Y78700619D02*
X96336952Y79700619D01*
X96241714Y79557762D01*
X96146476Y79462524D01*
X96051238Y79414905D01*
X78235619Y70643762D02*
X78188000Y70548524D01*
X78092762Y70453286D01*
X77949905Y70310429D01*
X77902286Y70215190D01*
X77902286Y70119952D01*
X78140381Y70167571D02*
X78092762Y70072333D01*
X77997524Y69977095D01*
X77807048Y69929476D01*
X77473714Y69929476D01*
X77283238Y69977095D01*
X77188000Y70072333D01*
X77140381Y70167571D01*
X77140381Y70358048D01*
X77188000Y70453286D01*
X77283238Y70548524D01*
X77473714Y70596143D01*
X77807048Y70596143D01*
X77997524Y70548524D01*
X78092762Y70453286D01*
X78140381Y70358048D01*
X78140381Y70167571D01*
X77140381Y70929476D02*
X77140381Y71548524D01*
X77521333Y71215190D01*
X77521333Y71358048D01*
X77568952Y71453286D01*
X77616571Y71500905D01*
X77711810Y71548524D01*
X77949905Y71548524D01*
X78045143Y71500905D01*
X78092762Y71453286D01*
X78140381Y71358048D01*
X78140381Y71072333D01*
X78092762Y70977095D01*
X78045143Y70929476D01*
X47998143Y53127619D02*
X47664809Y53603810D01*
X47426714Y53127619D02*
X47426714Y54127619D01*
X47807667Y54127619D01*
X47902905Y54080000D01*
X47950524Y54032381D01*
X47998143Y53937143D01*
X47998143Y53794286D01*
X47950524Y53699048D01*
X47902905Y53651429D01*
X47807667Y53603810D01*
X47426714Y53603810D01*
X48950524Y53127619D02*
X48379095Y53127619D01*
X48664809Y53127619D02*
X48664809Y54127619D01*
X48569571Y53984762D01*
X48474333Y53889524D01*
X48379095Y53841905D01*
X49426714Y53127619D02*
X49617190Y53127619D01*
X49712429Y53175238D01*
X49760048Y53222857D01*
X49855286Y53365714D01*
X49902905Y53556190D01*
X49902905Y53937143D01*
X49855286Y54032381D01*
X49807667Y54080000D01*
X49712429Y54127619D01*
X49521952Y54127619D01*
X49426714Y54080000D01*
X49379095Y54032381D01*
X49331476Y53937143D01*
X49331476Y53699048D01*
X49379095Y53603810D01*
X49426714Y53556190D01*
X49521952Y53508571D01*
X49712429Y53508571D01*
X49807667Y53556190D01*
X49855286Y53603810D01*
X49902905Y53699048D01*
X107338762Y15875095D02*
X107386381Y16017952D01*
X107386381Y16256048D01*
X107338762Y16351286D01*
X107291143Y16398905D01*
X107195905Y16446524D01*
X107100667Y16446524D01*
X107005429Y16398905D01*
X106957810Y16351286D01*
X106910190Y16256048D01*
X106862571Y16065571D01*
X106814952Y15970333D01*
X106767333Y15922714D01*
X106672095Y15875095D01*
X106576857Y15875095D01*
X106481619Y15922714D01*
X106434000Y15970333D01*
X106386381Y16065571D01*
X106386381Y16303667D01*
X106434000Y16446524D01*
X106481619Y16827476D02*
X106434000Y16875095D01*
X106386381Y16970333D01*
X106386381Y17208429D01*
X106434000Y17303667D01*
X106481619Y17351286D01*
X106576857Y17398905D01*
X106672095Y17398905D01*
X106814952Y17351286D01*
X107386381Y16779857D01*
X107386381Y17398905D01*
X106862333Y78986333D02*
X107338524Y78986333D01*
X106767095Y78700619D02*
X107100428Y79700619D01*
X107433762Y78700619D01*
X107767095Y79224429D02*
X108100429Y79224429D01*
X108243286Y78700619D02*
X107767095Y78700619D01*
X107767095Y79700619D01*
X108243286Y79700619D01*
X108624238Y79605381D02*
X108671857Y79653000D01*
X108767095Y79700619D01*
X109005191Y79700619D01*
X109100429Y79653000D01*
X109148048Y79605381D01*
X109195667Y79510143D01*
X109195667Y79414905D01*
X109148048Y79272048D01*
X108576619Y78700619D01*
X109195667Y78700619D01*
X51395334Y62902857D02*
X51347715Y62855238D01*
X51204858Y62807619D01*
X51109620Y62807619D01*
X50966762Y62855238D01*
X50871524Y62950476D01*
X50823905Y63045714D01*
X50776286Y63236190D01*
X50776286Y63379048D01*
X50823905Y63569524D01*
X50871524Y63664762D01*
X50966762Y63760000D01*
X51109620Y63807619D01*
X51204858Y63807619D01*
X51347715Y63760000D01*
X51395334Y63712381D01*
X52347715Y62807619D02*
X51776286Y62807619D01*
X52062000Y62807619D02*
X52062000Y63807619D01*
X51966762Y63664762D01*
X51871524Y63569524D01*
X51776286Y63521905D01*
X45553334Y58302857D02*
X45505715Y58255238D01*
X45362858Y58207619D01*
X45267620Y58207619D01*
X45124762Y58255238D01*
X45029524Y58350476D01*
X44981905Y58445714D01*
X44934286Y58636190D01*
X44934286Y58779048D01*
X44981905Y58969524D01*
X45029524Y59064762D01*
X45124762Y59160000D01*
X45267620Y59207619D01*
X45362858Y59207619D01*
X45505715Y59160000D01*
X45553334Y59112381D01*
X45934286Y59112381D02*
X45981905Y59160000D01*
X46077143Y59207619D01*
X46315239Y59207619D01*
X46410477Y59160000D01*
X46458096Y59112381D01*
X46505715Y59017143D01*
X46505715Y58921905D01*
X46458096Y58779048D01*
X45886667Y58207619D01*
X46505715Y58207619D01*
X14565334Y40649857D02*
X14517715Y40602238D01*
X14374858Y40554619D01*
X14279620Y40554619D01*
X14136762Y40602238D01*
X14041524Y40697476D01*
X13993905Y40792714D01*
X13946286Y40983190D01*
X13946286Y41126048D01*
X13993905Y41316524D01*
X14041524Y41411762D01*
X14136762Y41507000D01*
X14279620Y41554619D01*
X14374858Y41554619D01*
X14517715Y41507000D01*
X14565334Y41459381D01*
X14898667Y41554619D02*
X15517715Y41554619D01*
X15184381Y41173667D01*
X15327239Y41173667D01*
X15422477Y41126048D01*
X15470096Y41078429D01*
X15517715Y40983190D01*
X15517715Y40745095D01*
X15470096Y40649857D01*
X15422477Y40602238D01*
X15327239Y40554619D01*
X15041524Y40554619D01*
X14946286Y40602238D01*
X14898667Y40649857D01*
X43648334Y43662357D02*
X43600715Y43614738D01*
X43457858Y43567119D01*
X43362620Y43567119D01*
X43219762Y43614738D01*
X43124524Y43709976D01*
X43076905Y43805214D01*
X43029286Y43995690D01*
X43029286Y44138548D01*
X43076905Y44329024D01*
X43124524Y44424262D01*
X43219762Y44519500D01*
X43362620Y44567119D01*
X43457858Y44567119D01*
X43600715Y44519500D01*
X43648334Y44471881D01*
X44505477Y44233786D02*
X44505477Y43567119D01*
X44267381Y44614738D02*
X44029286Y43900452D01*
X44648334Y43900452D01*
X25614334Y33819857D02*
X25566715Y33772238D01*
X25423858Y33724619D01*
X25328620Y33724619D01*
X25185762Y33772238D01*
X25090524Y33867476D01*
X25042905Y33962714D01*
X24995286Y34153190D01*
X24995286Y34296048D01*
X25042905Y34486524D01*
X25090524Y34581762D01*
X25185762Y34677000D01*
X25328620Y34724619D01*
X25423858Y34724619D01*
X25566715Y34677000D01*
X25614334Y34629381D01*
X26519096Y34724619D02*
X26042905Y34724619D01*
X25995286Y34248429D01*
X26042905Y34296048D01*
X26138143Y34343667D01*
X26376239Y34343667D01*
X26471477Y34296048D01*
X26519096Y34248429D01*
X26566715Y34153190D01*
X26566715Y33915095D01*
X26519096Y33819857D01*
X26471477Y33772238D01*
X26376239Y33724619D01*
X26138143Y33724619D01*
X26042905Y33772238D01*
X25995286Y33819857D01*
X14565334Y46491857D02*
X14517715Y46444238D01*
X14374858Y46396619D01*
X14279620Y46396619D01*
X14136762Y46444238D01*
X14041524Y46539476D01*
X13993905Y46634714D01*
X13946286Y46825190D01*
X13946286Y46968048D01*
X13993905Y47158524D01*
X14041524Y47253762D01*
X14136762Y47349000D01*
X14279620Y47396619D01*
X14374858Y47396619D01*
X14517715Y47349000D01*
X14565334Y47301381D01*
X15422477Y47396619D02*
X15232000Y47396619D01*
X15136762Y47349000D01*
X15089143Y47301381D01*
X14993905Y47158524D01*
X14946286Y46968048D01*
X14946286Y46587095D01*
X14993905Y46491857D01*
X15041524Y46444238D01*
X15136762Y46396619D01*
X15327239Y46396619D01*
X15422477Y46444238D01*
X15470096Y46491857D01*
X15517715Y46587095D01*
X15517715Y46825190D01*
X15470096Y46920429D01*
X15422477Y46968048D01*
X15327239Y47015667D01*
X15136762Y47015667D01*
X15041524Y46968048D01*
X14993905Y46920429D01*
X14946286Y46825190D01*
X28281334Y54873857D02*
X28233715Y54826238D01*
X28090858Y54778619D01*
X27995620Y54778619D01*
X27852762Y54826238D01*
X27757524Y54921476D01*
X27709905Y55016714D01*
X27662286Y55207190D01*
X27662286Y55350048D01*
X27709905Y55540524D01*
X27757524Y55635762D01*
X27852762Y55731000D01*
X27995620Y55778619D01*
X28090858Y55778619D01*
X28233715Y55731000D01*
X28281334Y55683381D01*
X28614667Y55778619D02*
X29281334Y55778619D01*
X28852762Y54778619D01*
X19548143Y37552334D02*
X19595762Y37504715D01*
X19643381Y37361858D01*
X19643381Y37266620D01*
X19595762Y37123762D01*
X19500524Y37028524D01*
X19405286Y36980905D01*
X19214810Y36933286D01*
X19071952Y36933286D01*
X18881476Y36980905D01*
X18786238Y37028524D01*
X18691000Y37123762D01*
X18643381Y37266620D01*
X18643381Y37361858D01*
X18691000Y37504715D01*
X18738619Y37552334D01*
X19071952Y38123762D02*
X19024333Y38028524D01*
X18976714Y37980905D01*
X18881476Y37933286D01*
X18833857Y37933286D01*
X18738619Y37980905D01*
X18691000Y38028524D01*
X18643381Y38123762D01*
X18643381Y38314239D01*
X18691000Y38409477D01*
X18738619Y38457096D01*
X18833857Y38504715D01*
X18881476Y38504715D01*
X18976714Y38457096D01*
X19024333Y38409477D01*
X19071952Y38314239D01*
X19071952Y38123762D01*
X19119571Y38028524D01*
X19167190Y37980905D01*
X19262429Y37933286D01*
X19452905Y37933286D01*
X19548143Y37980905D01*
X19595762Y38028524D01*
X19643381Y38123762D01*
X19643381Y38314239D01*
X19595762Y38409477D01*
X19548143Y38457096D01*
X19452905Y38504715D01*
X19262429Y38504715D01*
X19167190Y38457096D01*
X19119571Y38409477D01*
X19071952Y38314239D01*
X35282143Y85939334D02*
X35329762Y85891715D01*
X35377381Y85748858D01*
X35377381Y85653620D01*
X35329762Y85510762D01*
X35234524Y85415524D01*
X35139286Y85367905D01*
X34948810Y85320286D01*
X34805952Y85320286D01*
X34615476Y85367905D01*
X34520238Y85415524D01*
X34425000Y85510762D01*
X34377381Y85653620D01*
X34377381Y85748858D01*
X34425000Y85891715D01*
X34472619Y85939334D01*
X35377381Y86415524D02*
X35377381Y86606000D01*
X35329762Y86701239D01*
X35282143Y86748858D01*
X35139286Y86844096D01*
X34948810Y86891715D01*
X34567857Y86891715D01*
X34472619Y86844096D01*
X34425000Y86796477D01*
X34377381Y86701239D01*
X34377381Y86510762D01*
X34425000Y86415524D01*
X34472619Y86367905D01*
X34567857Y86320286D01*
X34805952Y86320286D01*
X34901190Y86367905D01*
X34948810Y86415524D01*
X34996429Y86510762D01*
X34996429Y86701239D01*
X34948810Y86796477D01*
X34901190Y86844096D01*
X34805952Y86891715D01*
X31204143Y76700143D02*
X31251762Y76652524D01*
X31299381Y76509667D01*
X31299381Y76414429D01*
X31251762Y76271571D01*
X31156524Y76176333D01*
X31061286Y76128714D01*
X30870810Y76081095D01*
X30727952Y76081095D01*
X30537476Y76128714D01*
X30442238Y76176333D01*
X30347000Y76271571D01*
X30299381Y76414429D01*
X30299381Y76509667D01*
X30347000Y76652524D01*
X30394619Y76700143D01*
X31299381Y77652524D02*
X31299381Y77081095D01*
X31299381Y77366809D02*
X30299381Y77366809D01*
X30442238Y77271571D01*
X30537476Y77176333D01*
X30585095Y77081095D01*
X30299381Y78271571D02*
X30299381Y78366810D01*
X30347000Y78462048D01*
X30394619Y78509667D01*
X30489857Y78557286D01*
X30680333Y78604905D01*
X30918429Y78604905D01*
X31108905Y78557286D01*
X31204143Y78509667D01*
X31251762Y78462048D01*
X31299381Y78366810D01*
X31299381Y78271571D01*
X31251762Y78176333D01*
X31204143Y78128714D01*
X31108905Y78081095D01*
X30918429Y78033476D01*
X30680333Y78033476D01*
X30489857Y78081095D01*
X30394619Y78128714D01*
X30347000Y78176333D01*
X30299381Y78271571D01*
X83683143Y6215143D02*
X83730762Y6167524D01*
X83778381Y6024667D01*
X83778381Y5929429D01*
X83730762Y5786571D01*
X83635524Y5691333D01*
X83540286Y5643714D01*
X83349810Y5596095D01*
X83206952Y5596095D01*
X83016476Y5643714D01*
X82921238Y5691333D01*
X82826000Y5786571D01*
X82778381Y5929429D01*
X82778381Y6024667D01*
X82826000Y6167524D01*
X82873619Y6215143D01*
X83778381Y7167524D02*
X83778381Y6596095D01*
X83778381Y6881809D02*
X82778381Y6881809D01*
X82921238Y6786571D01*
X83016476Y6691333D01*
X83064095Y6596095D01*
X83778381Y8119905D02*
X83778381Y7548476D01*
X83778381Y7834190D02*
X82778381Y7834190D01*
X82921238Y7738952D01*
X83016476Y7643714D01*
X83064095Y7548476D01*
X79083143Y14724143D02*
X79130762Y14676524D01*
X79178381Y14533667D01*
X79178381Y14438429D01*
X79130762Y14295571D01*
X79035524Y14200333D01*
X78940286Y14152714D01*
X78749810Y14105095D01*
X78606952Y14105095D01*
X78416476Y14152714D01*
X78321238Y14200333D01*
X78226000Y14295571D01*
X78178381Y14438429D01*
X78178381Y14533667D01*
X78226000Y14676524D01*
X78273619Y14724143D01*
X79178381Y15676524D02*
X79178381Y15105095D01*
X79178381Y15390809D02*
X78178381Y15390809D01*
X78321238Y15295571D01*
X78416476Y15200333D01*
X78464095Y15105095D01*
X78273619Y16057476D02*
X78226000Y16105095D01*
X78178381Y16200333D01*
X78178381Y16438429D01*
X78226000Y16533667D01*
X78273619Y16581286D01*
X78368857Y16628905D01*
X78464095Y16628905D01*
X78606952Y16581286D01*
X79178381Y16009857D01*
X79178381Y16628905D01*
X71604143Y84701143D02*
X71651762Y84653524D01*
X71699381Y84510667D01*
X71699381Y84415429D01*
X71651762Y84272571D01*
X71556524Y84177333D01*
X71461286Y84129714D01*
X71270810Y84082095D01*
X71127952Y84082095D01*
X70937476Y84129714D01*
X70842238Y84177333D01*
X70747000Y84272571D01*
X70699381Y84415429D01*
X70699381Y84510667D01*
X70747000Y84653524D01*
X70794619Y84701143D01*
X71699381Y85653524D02*
X71699381Y85082095D01*
X71699381Y85367809D02*
X70699381Y85367809D01*
X70842238Y85272571D01*
X70937476Y85177333D01*
X70985095Y85082095D01*
X70699381Y85986857D02*
X70699381Y86605905D01*
X71080333Y86272571D01*
X71080333Y86415429D01*
X71127952Y86510667D01*
X71175571Y86558286D01*
X71270810Y86605905D01*
X71508905Y86605905D01*
X71604143Y86558286D01*
X71651762Y86510667D01*
X71699381Y86415429D01*
X71699381Y86129714D01*
X71651762Y86034476D01*
X71604143Y85986857D01*
X80988143Y84574143D02*
X81035762Y84526524D01*
X81083381Y84383667D01*
X81083381Y84288429D01*
X81035762Y84145571D01*
X80940524Y84050333D01*
X80845286Y84002714D01*
X80654810Y83955095D01*
X80511952Y83955095D01*
X80321476Y84002714D01*
X80226238Y84050333D01*
X80131000Y84145571D01*
X80083381Y84288429D01*
X80083381Y84383667D01*
X80131000Y84526524D01*
X80178619Y84574143D01*
X81083381Y85526524D02*
X81083381Y84955095D01*
X81083381Y85240809D02*
X80083381Y85240809D01*
X80226238Y85145571D01*
X80321476Y85050333D01*
X80369095Y84955095D01*
X80416714Y86383667D02*
X81083381Y86383667D01*
X80035762Y86145571D02*
X80750048Y85907476D01*
X80750048Y86526524D01*
X50889143Y19550143D02*
X50936762Y19502524D01*
X50984381Y19359667D01*
X50984381Y19264429D01*
X50936762Y19121571D01*
X50841524Y19026333D01*
X50746286Y18978714D01*
X50555810Y18931095D01*
X50412952Y18931095D01*
X50222476Y18978714D01*
X50127238Y19026333D01*
X50032000Y19121571D01*
X49984381Y19264429D01*
X49984381Y19359667D01*
X50032000Y19502524D01*
X50079619Y19550143D01*
X50984381Y20502524D02*
X50984381Y19931095D01*
X50984381Y20216809D02*
X49984381Y20216809D01*
X50127238Y20121571D01*
X50222476Y20026333D01*
X50270095Y19931095D01*
X49984381Y21407286D02*
X49984381Y20931095D01*
X50460571Y20883476D01*
X50412952Y20931095D01*
X50365333Y21026333D01*
X50365333Y21264429D01*
X50412952Y21359667D01*
X50460571Y21407286D01*
X50555810Y21454905D01*
X50793905Y21454905D01*
X50889143Y21407286D01*
X50936762Y21359667D01*
X50984381Y21264429D01*
X50984381Y21026333D01*
X50936762Y20931095D01*
X50889143Y20883476D01*
X84177143Y39235143D02*
X84224762Y39187524D01*
X84272381Y39044667D01*
X84272381Y38949429D01*
X84224762Y38806571D01*
X84129524Y38711333D01*
X84034286Y38663714D01*
X83843810Y38616095D01*
X83700952Y38616095D01*
X83510476Y38663714D01*
X83415238Y38711333D01*
X83320000Y38806571D01*
X83272381Y38949429D01*
X83272381Y39044667D01*
X83320000Y39187524D01*
X83367619Y39235143D01*
X84272381Y40187524D02*
X84272381Y39616095D01*
X84272381Y39901809D02*
X83272381Y39901809D01*
X83415238Y39806571D01*
X83510476Y39711333D01*
X83558095Y39616095D01*
X83272381Y41044667D02*
X83272381Y40854190D01*
X83320000Y40758952D01*
X83367619Y40711333D01*
X83510476Y40616095D01*
X83700952Y40568476D01*
X84081905Y40568476D01*
X84177143Y40616095D01*
X84224762Y40663714D01*
X84272381Y40758952D01*
X84272381Y40949429D01*
X84224762Y41044667D01*
X84177143Y41092286D01*
X84081905Y41139905D01*
X83843810Y41139905D01*
X83748571Y41092286D01*
X83700952Y41044667D01*
X83653333Y40949429D01*
X83653333Y40758952D01*
X83700952Y40663714D01*
X83748571Y40616095D01*
X83843810Y40568476D01*
X32504143Y9026857D02*
X32456524Y8979238D01*
X32313667Y8931619D01*
X32218429Y8931619D01*
X32075571Y8979238D01*
X31980333Y9074476D01*
X31932714Y9169714D01*
X31885095Y9360190D01*
X31885095Y9503048D01*
X31932714Y9693524D01*
X31980333Y9788762D01*
X32075571Y9884000D01*
X32218429Y9931619D01*
X32313667Y9931619D01*
X32456524Y9884000D01*
X32504143Y9836381D01*
X33456524Y8931619D02*
X32885095Y8931619D01*
X33170809Y8931619D02*
X33170809Y9931619D01*
X33075571Y9788762D01*
X32980333Y9693524D01*
X32885095Y9645905D01*
X33789857Y9931619D02*
X34456524Y9931619D01*
X34027952Y8931619D01*
X93829143Y29964143D02*
X93876762Y29916524D01*
X93924381Y29773667D01*
X93924381Y29678429D01*
X93876762Y29535571D01*
X93781524Y29440333D01*
X93686286Y29392714D01*
X93495810Y29345095D01*
X93352952Y29345095D01*
X93162476Y29392714D01*
X93067238Y29440333D01*
X92972000Y29535571D01*
X92924381Y29678429D01*
X92924381Y29773667D01*
X92972000Y29916524D01*
X93019619Y29964143D01*
X93924381Y30916524D02*
X93924381Y30345095D01*
X93924381Y30630809D02*
X92924381Y30630809D01*
X93067238Y30535571D01*
X93162476Y30440333D01*
X93210095Y30345095D01*
X93352952Y31487952D02*
X93305333Y31392714D01*
X93257714Y31345095D01*
X93162476Y31297476D01*
X93114857Y31297476D01*
X93019619Y31345095D01*
X92972000Y31392714D01*
X92924381Y31487952D01*
X92924381Y31678429D01*
X92972000Y31773667D01*
X93019619Y31821286D01*
X93114857Y31868905D01*
X93162476Y31868905D01*
X93257714Y31821286D01*
X93305333Y31773667D01*
X93352952Y31678429D01*
X93352952Y31487952D01*
X93400571Y31392714D01*
X93448190Y31345095D01*
X93543429Y31297476D01*
X93733905Y31297476D01*
X93829143Y31345095D01*
X93876762Y31392714D01*
X93924381Y31487952D01*
X93924381Y31678429D01*
X93876762Y31773667D01*
X93829143Y31821286D01*
X93733905Y31868905D01*
X93543429Y31868905D01*
X93448190Y31821286D01*
X93400571Y31773667D01*
X93352952Y31678429D01*
X97258143Y29837143D02*
X97305762Y29789524D01*
X97353381Y29646667D01*
X97353381Y29551429D01*
X97305762Y29408571D01*
X97210524Y29313333D01*
X97115286Y29265714D01*
X96924810Y29218095D01*
X96781952Y29218095D01*
X96591476Y29265714D01*
X96496238Y29313333D01*
X96401000Y29408571D01*
X96353381Y29551429D01*
X96353381Y29646667D01*
X96401000Y29789524D01*
X96448619Y29837143D01*
X97353381Y30789524D02*
X97353381Y30218095D01*
X97353381Y30503809D02*
X96353381Y30503809D01*
X96496238Y30408571D01*
X96591476Y30313333D01*
X96639095Y30218095D01*
X97353381Y31265714D02*
X97353381Y31456190D01*
X97305762Y31551429D01*
X97258143Y31599048D01*
X97115286Y31694286D01*
X96924810Y31741905D01*
X96543857Y31741905D01*
X96448619Y31694286D01*
X96401000Y31646667D01*
X96353381Y31551429D01*
X96353381Y31360952D01*
X96401000Y31265714D01*
X96448619Y31218095D01*
X96543857Y31170476D01*
X96781952Y31170476D01*
X96877190Y31218095D01*
X96924810Y31265714D01*
X96972429Y31360952D01*
X96972429Y31551429D01*
X96924810Y31646667D01*
X96877190Y31694286D01*
X96781952Y31741905D01*
X12596905Y62158619D02*
X12596905Y63158619D01*
X12835000Y63158619D01*
X12977858Y63111000D01*
X13073096Y63015762D01*
X13120715Y62920524D01*
X13168334Y62730048D01*
X13168334Y62587190D01*
X13120715Y62396714D01*
X13073096Y62301476D01*
X12977858Y62206238D01*
X12835000Y62158619D01*
X12596905Y62158619D01*
X14120715Y62158619D02*
X13549286Y62158619D01*
X13835000Y62158619D02*
X13835000Y63158619D01*
X13739762Y63015762D01*
X13644524Y62920524D01*
X13549286Y62872905D01*
X12596905Y57840619D02*
X12596905Y58840619D01*
X12835000Y58840619D01*
X12977858Y58793000D01*
X13073096Y58697762D01*
X13120715Y58602524D01*
X13168334Y58412048D01*
X13168334Y58269190D01*
X13120715Y58078714D01*
X13073096Y57983476D01*
X12977858Y57888238D01*
X12835000Y57840619D01*
X12596905Y57840619D01*
X13549286Y58745381D02*
X13596905Y58793000D01*
X13692143Y58840619D01*
X13930239Y58840619D01*
X14025477Y58793000D01*
X14073096Y58745381D01*
X14120715Y58650143D01*
X14120715Y58554905D01*
X14073096Y58412048D01*
X13501667Y57840619D01*
X14120715Y57840619D01*
X12342905Y71175619D02*
X12342905Y72175619D01*
X12581000Y72175619D01*
X12723858Y72128000D01*
X12819096Y72032762D01*
X12866715Y71937524D01*
X12914334Y71747048D01*
X12914334Y71604190D01*
X12866715Y71413714D01*
X12819096Y71318476D01*
X12723858Y71223238D01*
X12581000Y71175619D01*
X12342905Y71175619D01*
X13247667Y72175619D02*
X13866715Y72175619D01*
X13533381Y71794667D01*
X13676239Y71794667D01*
X13771477Y71747048D01*
X13819096Y71699429D01*
X13866715Y71604190D01*
X13866715Y71366095D01*
X13819096Y71270857D01*
X13771477Y71223238D01*
X13676239Y71175619D01*
X13390524Y71175619D01*
X13295286Y71223238D01*
X13247667Y71270857D01*
X12469905Y66603619D02*
X12469905Y67603619D01*
X12708000Y67603619D01*
X12850858Y67556000D01*
X12946096Y67460762D01*
X12993715Y67365524D01*
X13041334Y67175048D01*
X13041334Y67032190D01*
X12993715Y66841714D01*
X12946096Y66746476D01*
X12850858Y66651238D01*
X12708000Y66603619D01*
X12469905Y66603619D01*
X13898477Y67270286D02*
X13898477Y66603619D01*
X13660381Y67651238D02*
X13422286Y66936952D01*
X14041334Y66936952D01*
X82865333Y31577429D02*
X83198667Y31577429D01*
X83341524Y31053619D02*
X82865333Y31053619D01*
X82865333Y32053619D01*
X83341524Y32053619D01*
X83722476Y31101238D02*
X83865333Y31053619D01*
X84103429Y31053619D01*
X84198667Y31101238D01*
X84246286Y31148857D01*
X84293905Y31244095D01*
X84293905Y31339333D01*
X84246286Y31434571D01*
X84198667Y31482190D01*
X84103429Y31529810D01*
X83912952Y31577429D01*
X83817714Y31625048D01*
X83770095Y31672667D01*
X83722476Y31767905D01*
X83722476Y31863143D01*
X83770095Y31958381D01*
X83817714Y32006000D01*
X83912952Y32053619D01*
X84151048Y32053619D01*
X84293905Y32006000D01*
X84722476Y31053619D02*
X84722476Y32053619D01*
X84960571Y32053619D01*
X85103429Y32006000D01*
X85198667Y31910762D01*
X85246286Y31815524D01*
X85293905Y31625048D01*
X85293905Y31482190D01*
X85246286Y31291714D01*
X85198667Y31196476D01*
X85103429Y31101238D01*
X84960571Y31053619D01*
X84722476Y31053619D01*
X86246286Y31053619D02*
X85674857Y31053619D01*
X85960571Y31053619D02*
X85960571Y32053619D01*
X85865333Y31910762D01*
X85770095Y31815524D01*
X85674857Y31767905D01*
X41886381Y80390619D02*
X41886381Y81390619D01*
X42219715Y80676333D01*
X42553048Y81390619D01*
X42553048Y80390619D01*
X43029238Y80390619D02*
X43029238Y81390619D01*
X44076857Y80485857D02*
X44029238Y80438238D01*
X43886381Y80390619D01*
X43791143Y80390619D01*
X43648285Y80438238D01*
X43553047Y80533476D01*
X43505428Y80628714D01*
X43457809Y80819190D01*
X43457809Y80962048D01*
X43505428Y81152524D01*
X43553047Y81247762D01*
X43648285Y81343000D01*
X43791143Y81390619D01*
X43886381Y81390619D01*
X44029238Y81343000D01*
X44076857Y81295381D01*
X45029238Y80390619D02*
X44457809Y80390619D01*
X44743523Y80390619D02*
X44743523Y81390619D01*
X44648285Y81247762D01*
X44553047Y81152524D01*
X44457809Y81104905D01*
X47013905Y31551619D02*
X47013905Y32551619D01*
X47394858Y32551619D01*
X47490096Y32504000D01*
X47537715Y32456381D01*
X47585334Y32361143D01*
X47585334Y32218286D01*
X47537715Y32123048D01*
X47490096Y32075429D01*
X47394858Y32027810D01*
X47013905Y32027810D01*
X48537715Y31551619D02*
X47966286Y31551619D01*
X48252000Y31551619D02*
X48252000Y32551619D01*
X48156762Y32408762D01*
X48061524Y32313524D01*
X47966286Y32265905D01*
X4262381Y25296905D02*
X3262381Y25296905D01*
X3262381Y25677858D01*
X3310000Y25773096D01*
X3357619Y25820715D01*
X3452857Y25868334D01*
X3595714Y25868334D01*
X3690952Y25820715D01*
X3738571Y25773096D01*
X3786190Y25677858D01*
X3786190Y25296905D01*
X3357619Y26249286D02*
X3310000Y26296905D01*
X3262381Y26392143D01*
X3262381Y26630239D01*
X3310000Y26725477D01*
X3357619Y26773096D01*
X3452857Y26820715D01*
X3548095Y26820715D01*
X3690952Y26773096D01*
X4262381Y26201667D01*
X4262381Y26820715D01*
X20343905Y19105619D02*
X20343905Y20105619D01*
X20724858Y20105619D01*
X20820096Y20058000D01*
X20867715Y20010381D01*
X20915334Y19915143D01*
X20915334Y19772286D01*
X20867715Y19677048D01*
X20820096Y19629429D01*
X20724858Y19581810D01*
X20343905Y19581810D01*
X21248667Y20105619D02*
X21867715Y20105619D01*
X21534381Y19724667D01*
X21677239Y19724667D01*
X21772477Y19677048D01*
X21820096Y19629429D01*
X21867715Y19534190D01*
X21867715Y19296095D01*
X21820096Y19200857D01*
X21772477Y19153238D01*
X21677239Y19105619D01*
X21391524Y19105619D01*
X21296286Y19153238D01*
X21248667Y19200857D01*
X13993905Y81061619D02*
X13993905Y82061619D01*
X14374858Y82061619D01*
X14470096Y82014000D01*
X14517715Y81966381D01*
X14565334Y81871143D01*
X14565334Y81728286D01*
X14517715Y81633048D01*
X14470096Y81585429D01*
X14374858Y81537810D01*
X13993905Y81537810D01*
X15422477Y81728286D02*
X15422477Y81061619D01*
X15184381Y82109238D02*
X14946286Y81394952D01*
X15565334Y81394952D01*
X5738905Y5008619D02*
X5738905Y6008619D01*
X6119858Y6008619D01*
X6215096Y5961000D01*
X6262715Y5913381D01*
X6310334Y5818143D01*
X6310334Y5675286D01*
X6262715Y5580048D01*
X6215096Y5532429D01*
X6119858Y5484810D01*
X5738905Y5484810D01*
X7215096Y6008619D02*
X6738905Y6008619D01*
X6691286Y5532429D01*
X6738905Y5580048D01*
X6834143Y5627667D01*
X7072239Y5627667D01*
X7167477Y5580048D01*
X7215096Y5532429D01*
X7262715Y5437190D01*
X7262715Y5199095D01*
X7215096Y5103857D01*
X7167477Y5056238D01*
X7072239Y5008619D01*
X6834143Y5008619D01*
X6738905Y5056238D01*
X6691286Y5103857D01*
X5738905Y46537619D02*
X5738905Y47537619D01*
X6119858Y47537619D01*
X6215096Y47490000D01*
X6262715Y47442381D01*
X6310334Y47347143D01*
X6310334Y47204286D01*
X6262715Y47109048D01*
X6215096Y47061429D01*
X6119858Y47013810D01*
X5738905Y47013810D01*
X7167477Y47537619D02*
X6977000Y47537619D01*
X6881762Y47490000D01*
X6834143Y47442381D01*
X6738905Y47299524D01*
X6691286Y47109048D01*
X6691286Y46728095D01*
X6738905Y46632857D01*
X6786524Y46585238D01*
X6881762Y46537619D01*
X7072239Y46537619D01*
X7167477Y46585238D01*
X7215096Y46632857D01*
X7262715Y46728095D01*
X7262715Y46966190D01*
X7215096Y47061429D01*
X7167477Y47109048D01*
X7072239Y47156667D01*
X6881762Y47156667D01*
X6786524Y47109048D01*
X6738905Y47061429D01*
X6691286Y46966190D01*
X13485905Y5369619D02*
X13485905Y6369619D01*
X13866858Y6369619D01*
X13962096Y6322000D01*
X14009715Y6274381D01*
X14057334Y6179143D01*
X14057334Y6036286D01*
X14009715Y5941048D01*
X13962096Y5893429D01*
X13866858Y5845810D01*
X13485905Y5845810D01*
X14390667Y6369619D02*
X15057334Y6369619D01*
X14628762Y5369619D01*
X51712905Y44251619D02*
X51712905Y45251619D01*
X52093858Y45251619D01*
X52189096Y45204000D01*
X52236715Y45156381D01*
X52284334Y45061143D01*
X52284334Y44918286D01*
X52236715Y44823048D01*
X52189096Y44775429D01*
X52093858Y44727810D01*
X51712905Y44727810D01*
X52855762Y44823048D02*
X52760524Y44870667D01*
X52712905Y44918286D01*
X52665286Y45013524D01*
X52665286Y45061143D01*
X52712905Y45156381D01*
X52760524Y45204000D01*
X52855762Y45251619D01*
X53046239Y45251619D01*
X53141477Y45204000D01*
X53189096Y45156381D01*
X53236715Y45061143D01*
X53236715Y45013524D01*
X53189096Y44918286D01*
X53141477Y44870667D01*
X53046239Y44823048D01*
X52855762Y44823048D01*
X52760524Y44775429D01*
X52712905Y44727810D01*
X52665286Y44632571D01*
X52665286Y44442095D01*
X52712905Y44346857D01*
X52760524Y44299238D01*
X52855762Y44251619D01*
X53046239Y44251619D01*
X53141477Y44299238D01*
X53189096Y44346857D01*
X53236715Y44442095D01*
X53236715Y44632571D01*
X53189096Y44727810D01*
X53141477Y44775429D01*
X53046239Y44823048D01*
X59888381Y28090905D02*
X58888381Y28090905D01*
X58888381Y28471858D01*
X58936000Y28567096D01*
X58983619Y28614715D01*
X59078857Y28662334D01*
X59221714Y28662334D01*
X59316952Y28614715D01*
X59364571Y28567096D01*
X59412190Y28471858D01*
X59412190Y28090905D01*
X59888381Y29138524D02*
X59888381Y29329000D01*
X59840762Y29424239D01*
X59793143Y29471858D01*
X59650286Y29567096D01*
X59459810Y29614715D01*
X59078857Y29614715D01*
X58983619Y29567096D01*
X58936000Y29519477D01*
X58888381Y29424239D01*
X58888381Y29233762D01*
X58936000Y29138524D01*
X58983619Y29090905D01*
X59078857Y29043286D01*
X59316952Y29043286D01*
X59412190Y29090905D01*
X59459810Y29138524D01*
X59507429Y29233762D01*
X59507429Y29424239D01*
X59459810Y29519477D01*
X59412190Y29567096D01*
X59316952Y29614715D01*
X73842714Y28884619D02*
X73842714Y29884619D01*
X74223667Y29884619D01*
X74318905Y29837000D01*
X74366524Y29789381D01*
X74414143Y29694143D01*
X74414143Y29551286D01*
X74366524Y29456048D01*
X74318905Y29408429D01*
X74223667Y29360810D01*
X73842714Y29360810D01*
X75366524Y28884619D02*
X74795095Y28884619D01*
X75080809Y28884619D02*
X75080809Y29884619D01*
X74985571Y29741762D01*
X74890333Y29646524D01*
X74795095Y29598905D01*
X75985571Y29884619D02*
X76080810Y29884619D01*
X76176048Y29837000D01*
X76223667Y29789381D01*
X76271286Y29694143D01*
X76318905Y29503667D01*
X76318905Y29265571D01*
X76271286Y29075095D01*
X76223667Y28979857D01*
X76176048Y28932238D01*
X76080810Y28884619D01*
X75985571Y28884619D01*
X75890333Y28932238D01*
X75842714Y28979857D01*
X75795095Y29075095D01*
X75747476Y29265571D01*
X75747476Y29503667D01*
X75795095Y29694143D01*
X75842714Y29789381D01*
X75890333Y29837000D01*
X75985571Y29884619D01*
X61269714Y63809619D02*
X61269714Y64809619D01*
X61650667Y64809619D01*
X61745905Y64762000D01*
X61793524Y64714381D01*
X61841143Y64619143D01*
X61841143Y64476286D01*
X61793524Y64381048D01*
X61745905Y64333429D01*
X61650667Y64285810D01*
X61269714Y64285810D01*
X62793524Y63809619D02*
X62222095Y63809619D01*
X62507809Y63809619D02*
X62507809Y64809619D01*
X62412571Y64666762D01*
X62317333Y64571524D01*
X62222095Y64523905D01*
X63745905Y63809619D02*
X63174476Y63809619D01*
X63460190Y63809619D02*
X63460190Y64809619D01*
X63364952Y64666762D01*
X63269714Y64571524D01*
X63174476Y64523905D01*
X71953381Y65714714D02*
X70953381Y65714714D01*
X70953381Y66095667D01*
X71001000Y66190905D01*
X71048619Y66238524D01*
X71143857Y66286143D01*
X71286714Y66286143D01*
X71381952Y66238524D01*
X71429571Y66190905D01*
X71477190Y66095667D01*
X71477190Y65714714D01*
X71953381Y67238524D02*
X71953381Y66667095D01*
X71953381Y66952809D02*
X70953381Y66952809D01*
X71096238Y66857571D01*
X71191476Y66762333D01*
X71239095Y66667095D01*
X71048619Y67619476D02*
X71001000Y67667095D01*
X70953381Y67762333D01*
X70953381Y68000429D01*
X71001000Y68095667D01*
X71048619Y68143286D01*
X71143857Y68190905D01*
X71239095Y68190905D01*
X71381952Y68143286D01*
X71953381Y67571857D01*
X71953381Y68190905D01*
X73969714Y51871619D02*
X73969714Y52871619D01*
X74350667Y52871619D01*
X74445905Y52824000D01*
X74493524Y52776381D01*
X74541143Y52681143D01*
X74541143Y52538286D01*
X74493524Y52443048D01*
X74445905Y52395429D01*
X74350667Y52347810D01*
X73969714Y52347810D01*
X75493524Y51871619D02*
X74922095Y51871619D01*
X75207809Y51871619D02*
X75207809Y52871619D01*
X75112571Y52728762D01*
X75017333Y52633524D01*
X74922095Y52585905D01*
X75826857Y52871619D02*
X76445905Y52871619D01*
X76112571Y52490667D01*
X76255429Y52490667D01*
X76350667Y52443048D01*
X76398286Y52395429D01*
X76445905Y52300190D01*
X76445905Y52062095D01*
X76398286Y51966857D01*
X76350667Y51919238D01*
X76255429Y51871619D01*
X75969714Y51871619D01*
X75874476Y51919238D01*
X75826857Y51966857D01*
X35488714Y59999619D02*
X35488714Y60999619D01*
X35869667Y60999619D01*
X35964905Y60952000D01*
X36012524Y60904381D01*
X36060143Y60809143D01*
X36060143Y60666286D01*
X36012524Y60571048D01*
X35964905Y60523429D01*
X35869667Y60475810D01*
X35488714Y60475810D01*
X37012524Y59999619D02*
X36441095Y59999619D01*
X36726809Y59999619D02*
X36726809Y60999619D01*
X36631571Y60856762D01*
X36536333Y60761524D01*
X36441095Y60713905D01*
X37869667Y60666286D02*
X37869667Y59999619D01*
X37631571Y61047238D02*
X37393476Y60332952D01*
X38012524Y60332952D01*
X22026714Y59999619D02*
X22026714Y60999619D01*
X22407667Y60999619D01*
X22502905Y60952000D01*
X22550524Y60904381D01*
X22598143Y60809143D01*
X22598143Y60666286D01*
X22550524Y60571048D01*
X22502905Y60523429D01*
X22407667Y60475810D01*
X22026714Y60475810D01*
X23550524Y59999619D02*
X22979095Y59999619D01*
X23264809Y59999619D02*
X23264809Y60999619D01*
X23169571Y60856762D01*
X23074333Y60761524D01*
X22979095Y60713905D01*
X24455286Y60999619D02*
X23979095Y60999619D01*
X23931476Y60523429D01*
X23979095Y60571048D01*
X24074333Y60618667D01*
X24312429Y60618667D01*
X24407667Y60571048D01*
X24455286Y60523429D01*
X24502905Y60428190D01*
X24502905Y60190095D01*
X24455286Y60094857D01*
X24407667Y60047238D01*
X24312429Y59999619D01*
X24074333Y59999619D01*
X23979095Y60047238D01*
X23931476Y60094857D01*
X45394714Y9453619D02*
X45394714Y10453619D01*
X45775667Y10453619D01*
X45870905Y10406000D01*
X45918524Y10358381D01*
X45966143Y10263143D01*
X45966143Y10120286D01*
X45918524Y10025048D01*
X45870905Y9977429D01*
X45775667Y9929810D01*
X45394714Y9929810D01*
X46918524Y9453619D02*
X46347095Y9453619D01*
X46632809Y9453619D02*
X46632809Y10453619D01*
X46537571Y10310762D01*
X46442333Y10215524D01*
X46347095Y10167905D01*
X47775667Y10453619D02*
X47585190Y10453619D01*
X47489952Y10406000D01*
X47442333Y10358381D01*
X47347095Y10215524D01*
X47299476Y10025048D01*
X47299476Y9644095D01*
X47347095Y9548857D01*
X47394714Y9501238D01*
X47489952Y9453619D01*
X47680429Y9453619D01*
X47775667Y9501238D01*
X47823286Y9548857D01*
X47870905Y9644095D01*
X47870905Y9882190D01*
X47823286Y9977429D01*
X47775667Y10025048D01*
X47680429Y10072667D01*
X47489952Y10072667D01*
X47394714Y10025048D01*
X47347095Y9977429D01*
X47299476Y9882190D01*
X60781619Y54133762D02*
X60734000Y54038524D01*
X60638762Y53943286D01*
X60495905Y53800429D01*
X60448286Y53705190D01*
X60448286Y53609952D01*
X60686381Y53657571D02*
X60638762Y53562333D01*
X60543524Y53467095D01*
X60353048Y53419476D01*
X60019714Y53419476D01*
X59829238Y53467095D01*
X59734000Y53562333D01*
X59686381Y53657571D01*
X59686381Y53848048D01*
X59734000Y53943286D01*
X59829238Y54038524D01*
X60019714Y54086143D01*
X60353048Y54086143D01*
X60543524Y54038524D01*
X60638762Y53943286D01*
X60686381Y53848048D01*
X60686381Y53657571D01*
X60686381Y55038524D02*
X60686381Y54467095D01*
X60686381Y54752809D02*
X59686381Y54752809D01*
X59829238Y54657571D01*
X59924476Y54562333D01*
X59972095Y54467095D01*
X66452762Y39711381D02*
X66357524Y39759000D01*
X66262286Y39854238D01*
X66119429Y39997095D01*
X66024190Y40044714D01*
X65928952Y40044714D01*
X65976571Y39806619D02*
X65881333Y39854238D01*
X65786095Y39949476D01*
X65738476Y40139952D01*
X65738476Y40473286D01*
X65786095Y40663762D01*
X65881333Y40759000D01*
X65976571Y40806619D01*
X66167048Y40806619D01*
X66262286Y40759000D01*
X66357524Y40663762D01*
X66405143Y40473286D01*
X66405143Y40139952D01*
X66357524Y39949476D01*
X66262286Y39854238D01*
X66167048Y39806619D01*
X65976571Y39806619D01*
X66786095Y40711381D02*
X66833714Y40759000D01*
X66928952Y40806619D01*
X67167048Y40806619D01*
X67262286Y40759000D01*
X67309905Y40711381D01*
X67357524Y40616143D01*
X67357524Y40520905D01*
X67309905Y40378048D01*
X66738476Y39806619D01*
X67357524Y39806619D01*
X69373762Y25487381D02*
X69278524Y25535000D01*
X69183286Y25630238D01*
X69040429Y25773095D01*
X68945190Y25820714D01*
X68849952Y25820714D01*
X68897571Y25582619D02*
X68802333Y25630238D01*
X68707095Y25725476D01*
X68659476Y25915952D01*
X68659476Y26249286D01*
X68707095Y26439762D01*
X68802333Y26535000D01*
X68897571Y26582619D01*
X69088048Y26582619D01*
X69183286Y26535000D01*
X69278524Y26439762D01*
X69326143Y26249286D01*
X69326143Y25915952D01*
X69278524Y25725476D01*
X69183286Y25630238D01*
X69088048Y25582619D01*
X68897571Y25582619D01*
X70183286Y26249286D02*
X70183286Y25582619D01*
X69945190Y26630238D02*
X69707095Y25915952D01*
X70326143Y25915952D01*
X28904619Y66325762D02*
X28857000Y66230524D01*
X28761762Y66135286D01*
X28618905Y65992429D01*
X28571286Y65897190D01*
X28571286Y65801952D01*
X28809381Y65849571D02*
X28761762Y65754333D01*
X28666524Y65659095D01*
X28476048Y65611476D01*
X28142714Y65611476D01*
X27952238Y65659095D01*
X27857000Y65754333D01*
X27809381Y65849571D01*
X27809381Y66040048D01*
X27857000Y66135286D01*
X27952238Y66230524D01*
X28142714Y66278143D01*
X28476048Y66278143D01*
X28666524Y66230524D01*
X28761762Y66135286D01*
X28809381Y66040048D01*
X28809381Y65849571D01*
X27809381Y67182905D02*
X27809381Y66706714D01*
X28285571Y66659095D01*
X28237952Y66706714D01*
X28190333Y66801952D01*
X28190333Y67040048D01*
X28237952Y67135286D01*
X28285571Y67182905D01*
X28380810Y67230524D01*
X28618905Y67230524D01*
X28714143Y67182905D01*
X28761762Y67135286D01*
X28809381Y67040048D01*
X28809381Y66801952D01*
X28761762Y66706714D01*
X28714143Y66659095D01*
X42505334Y32567619D02*
X42172000Y33043810D01*
X41933905Y32567619D02*
X41933905Y33567619D01*
X42314858Y33567619D01*
X42410096Y33520000D01*
X42457715Y33472381D01*
X42505334Y33377143D01*
X42505334Y33234286D01*
X42457715Y33139048D01*
X42410096Y33091429D01*
X42314858Y33043810D01*
X41933905Y33043810D01*
X43457715Y32567619D02*
X42886286Y32567619D01*
X43172000Y32567619D02*
X43172000Y33567619D01*
X43076762Y33424762D01*
X42981524Y33329524D01*
X42886286Y33281905D01*
X67143334Y50728619D02*
X66810000Y51204810D01*
X66571905Y50728619D02*
X66571905Y51728619D01*
X66952858Y51728619D01*
X67048096Y51681000D01*
X67095715Y51633381D01*
X67143334Y51538143D01*
X67143334Y51395286D01*
X67095715Y51300048D01*
X67048096Y51252429D01*
X66952858Y51204810D01*
X66571905Y51204810D01*
X67524286Y51633381D02*
X67571905Y51681000D01*
X67667143Y51728619D01*
X67905239Y51728619D01*
X68000477Y51681000D01*
X68048096Y51633381D01*
X68095715Y51538143D01*
X68095715Y51442905D01*
X68048096Y51300048D01*
X67476667Y50728619D01*
X68095715Y50728619D01*
X59142334Y48442619D02*
X58809000Y48918810D01*
X58570905Y48442619D02*
X58570905Y49442619D01*
X58951858Y49442619D01*
X59047096Y49395000D01*
X59094715Y49347381D01*
X59142334Y49252143D01*
X59142334Y49109286D01*
X59094715Y49014048D01*
X59047096Y48966429D01*
X58951858Y48918810D01*
X58570905Y48918810D01*
X59475667Y49442619D02*
X60094715Y49442619D01*
X59761381Y49061667D01*
X59904239Y49061667D01*
X59999477Y49014048D01*
X60047096Y48966429D01*
X60094715Y48871190D01*
X60094715Y48633095D01*
X60047096Y48537857D01*
X59999477Y48490238D01*
X59904239Y48442619D01*
X59618524Y48442619D01*
X59523286Y48490238D01*
X59475667Y48537857D01*
X56856334Y58221619D02*
X56523000Y58697810D01*
X56284905Y58221619D02*
X56284905Y59221619D01*
X56665858Y59221619D01*
X56761096Y59174000D01*
X56808715Y59126381D01*
X56856334Y59031143D01*
X56856334Y58888286D01*
X56808715Y58793048D01*
X56761096Y58745429D01*
X56665858Y58697810D01*
X56284905Y58697810D01*
X57713477Y58888286D02*
X57713477Y58221619D01*
X57475381Y59269238D02*
X57237286Y58554952D01*
X57856334Y58554952D01*
X66000334Y45267619D02*
X65667000Y45743810D01*
X65428905Y45267619D02*
X65428905Y46267619D01*
X65809858Y46267619D01*
X65905096Y46220000D01*
X65952715Y46172381D01*
X66000334Y46077143D01*
X66000334Y45934286D01*
X65952715Y45839048D01*
X65905096Y45791429D01*
X65809858Y45743810D01*
X65428905Y45743810D01*
X66905096Y46267619D02*
X66428905Y46267619D01*
X66381286Y45791429D01*
X66428905Y45839048D01*
X66524143Y45886667D01*
X66762239Y45886667D01*
X66857477Y45839048D01*
X66905096Y45791429D01*
X66952715Y45696190D01*
X66952715Y45458095D01*
X66905096Y45362857D01*
X66857477Y45315238D01*
X66762239Y45267619D01*
X66524143Y45267619D01*
X66428905Y45315238D01*
X66381286Y45362857D01*
X57999334Y41330619D02*
X57666000Y41806810D01*
X57427905Y41330619D02*
X57427905Y42330619D01*
X57808858Y42330619D01*
X57904096Y42283000D01*
X57951715Y42235381D01*
X57999334Y42140143D01*
X57999334Y41997286D01*
X57951715Y41902048D01*
X57904096Y41854429D01*
X57808858Y41806810D01*
X57427905Y41806810D01*
X58856477Y42330619D02*
X58666000Y42330619D01*
X58570762Y42283000D01*
X58523143Y42235381D01*
X58427905Y42092524D01*
X58380286Y41902048D01*
X58380286Y41521095D01*
X58427905Y41425857D01*
X58475524Y41378238D01*
X58570762Y41330619D01*
X58761239Y41330619D01*
X58856477Y41378238D01*
X58904096Y41425857D01*
X58951715Y41521095D01*
X58951715Y41759190D01*
X58904096Y41854429D01*
X58856477Y41902048D01*
X58761239Y41949667D01*
X58570762Y41949667D01*
X58475524Y41902048D01*
X58427905Y41854429D01*
X58380286Y41759190D01*
X57602381Y38060334D02*
X57126190Y37727000D01*
X57602381Y37488905D02*
X56602381Y37488905D01*
X56602381Y37869858D01*
X56650000Y37965096D01*
X56697619Y38012715D01*
X56792857Y38060334D01*
X56935714Y38060334D01*
X57030952Y38012715D01*
X57078571Y37965096D01*
X57126190Y37869858D01*
X57126190Y37488905D01*
X56602381Y38393667D02*
X56602381Y39060334D01*
X57602381Y38631762D01*
X5611834Y62095119D02*
X5278500Y62571310D01*
X5040405Y62095119D02*
X5040405Y63095119D01*
X5421358Y63095119D01*
X5516596Y63047500D01*
X5564215Y62999881D01*
X5611834Y62904643D01*
X5611834Y62761786D01*
X5564215Y62666548D01*
X5516596Y62618929D01*
X5421358Y62571310D01*
X5040405Y62571310D01*
X6183262Y62666548D02*
X6088024Y62714167D01*
X6040405Y62761786D01*
X5992786Y62857024D01*
X5992786Y62904643D01*
X6040405Y62999881D01*
X6088024Y63047500D01*
X6183262Y63095119D01*
X6373739Y63095119D01*
X6468977Y63047500D01*
X6516596Y62999881D01*
X6564215Y62904643D01*
X6564215Y62857024D01*
X6516596Y62761786D01*
X6468977Y62714167D01*
X6373739Y62666548D01*
X6183262Y62666548D01*
X6088024Y62618929D01*
X6040405Y62571310D01*
X5992786Y62476071D01*
X5992786Y62285595D01*
X6040405Y62190357D01*
X6088024Y62142738D01*
X6183262Y62095119D01*
X6373739Y62095119D01*
X6468977Y62142738D01*
X6516596Y62190357D01*
X6564215Y62285595D01*
X6564215Y62476071D01*
X6516596Y62571310D01*
X6468977Y62618929D01*
X6373739Y62666548D01*
X5675334Y57967619D02*
X5342000Y58443810D01*
X5103905Y57967619D02*
X5103905Y58967619D01*
X5484858Y58967619D01*
X5580096Y58920000D01*
X5627715Y58872381D01*
X5675334Y58777143D01*
X5675334Y58634286D01*
X5627715Y58539048D01*
X5580096Y58491429D01*
X5484858Y58443810D01*
X5103905Y58443810D01*
X6151524Y57967619D02*
X6342000Y57967619D01*
X6437239Y58015238D01*
X6484858Y58062857D01*
X6580096Y58205714D01*
X6627715Y58396190D01*
X6627715Y58777143D01*
X6580096Y58872381D01*
X6532477Y58920000D01*
X6437239Y58967619D01*
X6246762Y58967619D01*
X6151524Y58920000D01*
X6103905Y58872381D01*
X6056286Y58777143D01*
X6056286Y58539048D01*
X6103905Y58443810D01*
X6151524Y58396190D01*
X6246762Y58348571D01*
X6437239Y58348571D01*
X6532477Y58396190D01*
X6580096Y58443810D01*
X6627715Y58539048D01*
X5072143Y71429619D02*
X4738809Y71905810D01*
X4500714Y71429619D02*
X4500714Y72429619D01*
X4881667Y72429619D01*
X4976905Y72382000D01*
X5024524Y72334381D01*
X5072143Y72239143D01*
X5072143Y72096286D01*
X5024524Y72001048D01*
X4976905Y71953429D01*
X4881667Y71905810D01*
X4500714Y71905810D01*
X6024524Y71429619D02*
X5453095Y71429619D01*
X5738809Y71429619D02*
X5738809Y72429619D01*
X5643571Y72286762D01*
X5548333Y72191524D01*
X5453095Y72143905D01*
X6643571Y72429619D02*
X6738810Y72429619D01*
X6834048Y72382000D01*
X6881667Y72334381D01*
X6929286Y72239143D01*
X6976905Y72048667D01*
X6976905Y71810571D01*
X6929286Y71620095D01*
X6881667Y71524857D01*
X6834048Y71477238D01*
X6738810Y71429619D01*
X6643571Y71429619D01*
X6548333Y71477238D01*
X6500714Y71524857D01*
X6453095Y71620095D01*
X6405476Y71810571D01*
X6405476Y72048667D01*
X6453095Y72239143D01*
X6500714Y72334381D01*
X6548333Y72382000D01*
X6643571Y72429619D01*
X53713143Y83988619D02*
X53379809Y84464810D01*
X53141714Y83988619D02*
X53141714Y84988619D01*
X53522667Y84988619D01*
X53617905Y84941000D01*
X53665524Y84893381D01*
X53713143Y84798143D01*
X53713143Y84655286D01*
X53665524Y84560048D01*
X53617905Y84512429D01*
X53522667Y84464810D01*
X53141714Y84464810D01*
X54665524Y83988619D02*
X54094095Y83988619D01*
X54379809Y83988619D02*
X54379809Y84988619D01*
X54284571Y84845762D01*
X54189333Y84750524D01*
X54094095Y84702905D01*
X55617905Y83988619D02*
X55046476Y83988619D01*
X55332190Y83988619D02*
X55332190Y84988619D01*
X55236952Y84845762D01*
X55141714Y84750524D01*
X55046476Y84702905D01*
X53713143Y82351619D02*
X53379809Y82827810D01*
X53141714Y82351619D02*
X53141714Y83351619D01*
X53522667Y83351619D01*
X53617905Y83304000D01*
X53665524Y83256381D01*
X53713143Y83161143D01*
X53713143Y83018286D01*
X53665524Y82923048D01*
X53617905Y82875429D01*
X53522667Y82827810D01*
X53141714Y82827810D01*
X54665524Y82351619D02*
X54094095Y82351619D01*
X54379809Y82351619D02*
X54379809Y83351619D01*
X54284571Y83208762D01*
X54189333Y83113524D01*
X54094095Y83065905D01*
X55046476Y83256381D02*
X55094095Y83304000D01*
X55189333Y83351619D01*
X55427429Y83351619D01*
X55522667Y83304000D01*
X55570286Y83256381D01*
X55617905Y83161143D01*
X55617905Y83065905D01*
X55570286Y82923048D01*
X54998857Y82351619D01*
X55617905Y82351619D01*
X74987381Y84574143D02*
X74511190Y84240809D01*
X74987381Y84002714D02*
X73987381Y84002714D01*
X73987381Y84383667D01*
X74035000Y84478905D01*
X74082619Y84526524D01*
X74177857Y84574143D01*
X74320714Y84574143D01*
X74415952Y84526524D01*
X74463571Y84478905D01*
X74511190Y84383667D01*
X74511190Y84002714D01*
X74987381Y85526524D02*
X74987381Y84955095D01*
X74987381Y85240809D02*
X73987381Y85240809D01*
X74130238Y85145571D01*
X74225476Y85050333D01*
X74273095Y84955095D01*
X73987381Y85859857D02*
X73987381Y86478905D01*
X74368333Y86145571D01*
X74368333Y86288429D01*
X74415952Y86383667D01*
X74463571Y86431286D01*
X74558810Y86478905D01*
X74796905Y86478905D01*
X74892143Y86431286D01*
X74939762Y86383667D01*
X74987381Y86288429D01*
X74987381Y86002714D01*
X74939762Y85907476D01*
X74892143Y85859857D01*
X67429143Y59731619D02*
X67095809Y60207810D01*
X66857714Y59731619D02*
X66857714Y60731619D01*
X67238667Y60731619D01*
X67333905Y60684000D01*
X67381524Y60636381D01*
X67429143Y60541143D01*
X67429143Y60398286D01*
X67381524Y60303048D01*
X67333905Y60255429D01*
X67238667Y60207810D01*
X66857714Y60207810D01*
X68381524Y59731619D02*
X67810095Y59731619D01*
X68095809Y59731619D02*
X68095809Y60731619D01*
X68000571Y60588762D01*
X67905333Y60493524D01*
X67810095Y60445905D01*
X69238667Y60398286D02*
X69238667Y59731619D01*
X69000571Y60779238D02*
X68762476Y60064952D01*
X69381524Y60064952D01*
X74541143Y60747619D02*
X74207809Y61223810D01*
X73969714Y60747619D02*
X73969714Y61747619D01*
X74350667Y61747619D01*
X74445905Y61700000D01*
X74493524Y61652381D01*
X74541143Y61557143D01*
X74541143Y61414286D01*
X74493524Y61319048D01*
X74445905Y61271429D01*
X74350667Y61223810D01*
X73969714Y61223810D01*
X75493524Y60747619D02*
X74922095Y60747619D01*
X75207809Y60747619D02*
X75207809Y61747619D01*
X75112571Y61604762D01*
X75017333Y61509524D01*
X74922095Y61461905D01*
X76398286Y61747619D02*
X75922095Y61747619D01*
X75874476Y61271429D01*
X75922095Y61319048D01*
X76017333Y61366667D01*
X76255429Y61366667D01*
X76350667Y61319048D01*
X76398286Y61271429D01*
X76445905Y61176190D01*
X76445905Y60938095D01*
X76398286Y60842857D01*
X76350667Y60795238D01*
X76255429Y60747619D01*
X76017333Y60747619D01*
X75922095Y60795238D01*
X75874476Y60842857D01*
X19615381Y8755143D02*
X19139190Y8421809D01*
X19615381Y8183714D02*
X18615381Y8183714D01*
X18615381Y8564667D01*
X18663000Y8659905D01*
X18710619Y8707524D01*
X18805857Y8755143D01*
X18948714Y8755143D01*
X19043952Y8707524D01*
X19091571Y8659905D01*
X19139190Y8564667D01*
X19139190Y8183714D01*
X19615381Y9707524D02*
X19615381Y9136095D01*
X19615381Y9421809D02*
X18615381Y9421809D01*
X18758238Y9326571D01*
X18853476Y9231333D01*
X18901095Y9136095D01*
X18615381Y10564667D02*
X18615381Y10374190D01*
X18663000Y10278952D01*
X18710619Y10231333D01*
X18853476Y10136095D01*
X19043952Y10088476D01*
X19424905Y10088476D01*
X19520143Y10136095D01*
X19567762Y10183714D01*
X19615381Y10278952D01*
X19615381Y10469429D01*
X19567762Y10564667D01*
X19520143Y10612286D01*
X19424905Y10659905D01*
X19186810Y10659905D01*
X19091571Y10612286D01*
X19043952Y10564667D01*
X18996333Y10469429D01*
X18996333Y10278952D01*
X19043952Y10183714D01*
X19091571Y10136095D01*
X19186810Y10088476D01*
X5199143Y66603619D02*
X4865809Y67079810D01*
X4627714Y66603619D02*
X4627714Y67603619D01*
X5008667Y67603619D01*
X5103905Y67556000D01*
X5151524Y67508381D01*
X5199143Y67413143D01*
X5199143Y67270286D01*
X5151524Y67175048D01*
X5103905Y67127429D01*
X5008667Y67079810D01*
X4627714Y67079810D01*
X6151524Y66603619D02*
X5580095Y66603619D01*
X5865809Y66603619D02*
X5865809Y67603619D01*
X5770571Y67460762D01*
X5675333Y67365524D01*
X5580095Y67317905D01*
X6484857Y67603619D02*
X7151524Y67603619D01*
X6722952Y66603619D01*
X12819143Y51730619D02*
X12485809Y52206810D01*
X12247714Y51730619D02*
X12247714Y52730619D01*
X12628667Y52730619D01*
X12723905Y52683000D01*
X12771524Y52635381D01*
X12819143Y52540143D01*
X12819143Y52397286D01*
X12771524Y52302048D01*
X12723905Y52254429D01*
X12628667Y52206810D01*
X12247714Y52206810D01*
X13771524Y51730619D02*
X13200095Y51730619D01*
X13485809Y51730619D02*
X13485809Y52730619D01*
X13390571Y52587762D01*
X13295333Y52492524D01*
X13200095Y52444905D01*
X14342952Y52302048D02*
X14247714Y52349667D01*
X14200095Y52397286D01*
X14152476Y52492524D01*
X14152476Y52540143D01*
X14200095Y52635381D01*
X14247714Y52683000D01*
X14342952Y52730619D01*
X14533429Y52730619D01*
X14628667Y52683000D01*
X14676286Y52635381D01*
X14723905Y52540143D01*
X14723905Y52492524D01*
X14676286Y52397286D01*
X14628667Y52349667D01*
X14533429Y52302048D01*
X14342952Y52302048D01*
X14247714Y52254429D01*
X14200095Y52206810D01*
X14152476Y52111571D01*
X14152476Y51921095D01*
X14200095Y51825857D01*
X14247714Y51778238D01*
X14342952Y51730619D01*
X14533429Y51730619D01*
X14628667Y51778238D01*
X14676286Y51825857D01*
X14723905Y51921095D01*
X14723905Y52111571D01*
X14676286Y52206810D01*
X14628667Y52254429D01*
X14533429Y52302048D01*
X62555381Y18407143D02*
X62079190Y18073809D01*
X62555381Y17835714D02*
X61555381Y17835714D01*
X61555381Y18216667D01*
X61603000Y18311905D01*
X61650619Y18359524D01*
X61745857Y18407143D01*
X61888714Y18407143D01*
X61983952Y18359524D01*
X62031571Y18311905D01*
X62079190Y18216667D01*
X62079190Y17835714D01*
X61650619Y18788095D02*
X61603000Y18835714D01*
X61555381Y18930952D01*
X61555381Y19169048D01*
X61603000Y19264286D01*
X61650619Y19311905D01*
X61745857Y19359524D01*
X61841095Y19359524D01*
X61983952Y19311905D01*
X62555381Y18740476D01*
X62555381Y19359524D01*
X61555381Y19978571D02*
X61555381Y20073810D01*
X61603000Y20169048D01*
X61650619Y20216667D01*
X61745857Y20264286D01*
X61936333Y20311905D01*
X62174429Y20311905D01*
X62364905Y20264286D01*
X62460143Y20216667D01*
X62507762Y20169048D01*
X62555381Y20073810D01*
X62555381Y19978571D01*
X62507762Y19883333D01*
X62460143Y19835714D01*
X62364905Y19788095D01*
X62174429Y19740476D01*
X61936333Y19740476D01*
X61745857Y19788095D01*
X61650619Y19835714D01*
X61603000Y19883333D01*
X61555381Y19978571D01*
X67127381Y18407143D02*
X66651190Y18073809D01*
X67127381Y17835714D02*
X66127381Y17835714D01*
X66127381Y18216667D01*
X66175000Y18311905D01*
X66222619Y18359524D01*
X66317857Y18407143D01*
X66460714Y18407143D01*
X66555952Y18359524D01*
X66603571Y18311905D01*
X66651190Y18216667D01*
X66651190Y17835714D01*
X66222619Y18788095D02*
X66175000Y18835714D01*
X66127381Y18930952D01*
X66127381Y19169048D01*
X66175000Y19264286D01*
X66222619Y19311905D01*
X66317857Y19359524D01*
X66413095Y19359524D01*
X66555952Y19311905D01*
X67127381Y18740476D01*
X67127381Y19359524D01*
X67127381Y20311905D02*
X67127381Y19740476D01*
X67127381Y20026190D02*
X66127381Y20026190D01*
X66270238Y19930952D01*
X66365476Y19835714D01*
X66413095Y19740476D01*
X68699143Y30662619D02*
X68365809Y31138810D01*
X68127714Y30662619D02*
X68127714Y31662619D01*
X68508667Y31662619D01*
X68603905Y31615000D01*
X68651524Y31567381D01*
X68699143Y31472143D01*
X68699143Y31329286D01*
X68651524Y31234048D01*
X68603905Y31186429D01*
X68508667Y31138810D01*
X68127714Y31138810D01*
X69080095Y31567381D02*
X69127714Y31615000D01*
X69222952Y31662619D01*
X69461048Y31662619D01*
X69556286Y31615000D01*
X69603905Y31567381D01*
X69651524Y31472143D01*
X69651524Y31376905D01*
X69603905Y31234048D01*
X69032476Y30662619D01*
X69651524Y30662619D01*
X70032476Y31567381D02*
X70080095Y31615000D01*
X70175333Y31662619D01*
X70413429Y31662619D01*
X70508667Y31615000D01*
X70556286Y31567381D01*
X70603905Y31472143D01*
X70603905Y31376905D01*
X70556286Y31234048D01*
X69984857Y30662619D01*
X70603905Y30662619D01*
X100528381Y37457143D02*
X100052190Y37123809D01*
X100528381Y36885714D02*
X99528381Y36885714D01*
X99528381Y37266667D01*
X99576000Y37361905D01*
X99623619Y37409524D01*
X99718857Y37457143D01*
X99861714Y37457143D01*
X99956952Y37409524D01*
X100004571Y37361905D01*
X100052190Y37266667D01*
X100052190Y36885714D01*
X99623619Y37838095D02*
X99576000Y37885714D01*
X99528381Y37980952D01*
X99528381Y38219048D01*
X99576000Y38314286D01*
X99623619Y38361905D01*
X99718857Y38409524D01*
X99814095Y38409524D01*
X99956952Y38361905D01*
X100528381Y37790476D01*
X100528381Y38409524D01*
X99528381Y38742857D02*
X99528381Y39361905D01*
X99909333Y39028571D01*
X99909333Y39171429D01*
X99956952Y39266667D01*
X100004571Y39314286D01*
X100099810Y39361905D01*
X100337905Y39361905D01*
X100433143Y39314286D01*
X100480762Y39266667D01*
X100528381Y39171429D01*
X100528381Y38885714D01*
X100480762Y38790476D01*
X100433143Y38742857D01*
X103830381Y37457143D02*
X103354190Y37123809D01*
X103830381Y36885714D02*
X102830381Y36885714D01*
X102830381Y37266667D01*
X102878000Y37361905D01*
X102925619Y37409524D01*
X103020857Y37457143D01*
X103163714Y37457143D01*
X103258952Y37409524D01*
X103306571Y37361905D01*
X103354190Y37266667D01*
X103354190Y36885714D01*
X102925619Y37838095D02*
X102878000Y37885714D01*
X102830381Y37980952D01*
X102830381Y38219048D01*
X102878000Y38314286D01*
X102925619Y38361905D01*
X103020857Y38409524D01*
X103116095Y38409524D01*
X103258952Y38361905D01*
X103830381Y37790476D01*
X103830381Y38409524D01*
X103163714Y39266667D02*
X103830381Y39266667D01*
X102782762Y39028571D02*
X103497048Y38790476D01*
X103497048Y39409524D01*
X107005381Y37457143D02*
X106529190Y37123809D01*
X107005381Y36885714D02*
X106005381Y36885714D01*
X106005381Y37266667D01*
X106053000Y37361905D01*
X106100619Y37409524D01*
X106195857Y37457143D01*
X106338714Y37457143D01*
X106433952Y37409524D01*
X106481571Y37361905D01*
X106529190Y37266667D01*
X106529190Y36885714D01*
X106100619Y37838095D02*
X106053000Y37885714D01*
X106005381Y37980952D01*
X106005381Y38219048D01*
X106053000Y38314286D01*
X106100619Y38361905D01*
X106195857Y38409524D01*
X106291095Y38409524D01*
X106433952Y38361905D01*
X107005381Y37790476D01*
X107005381Y38409524D01*
X106005381Y39314286D02*
X106005381Y38838095D01*
X106481571Y38790476D01*
X106433952Y38838095D01*
X106386333Y38933333D01*
X106386333Y39171429D01*
X106433952Y39266667D01*
X106481571Y39314286D01*
X106576810Y39361905D01*
X106814905Y39361905D01*
X106910143Y39314286D01*
X106957762Y39266667D01*
X107005381Y39171429D01*
X107005381Y38933333D01*
X106957762Y38838095D01*
X106910143Y38790476D01*
X35806143Y72586619D02*
X35472809Y73062810D01*
X35234714Y72586619D02*
X35234714Y73586619D01*
X35615667Y73586619D01*
X35710905Y73539000D01*
X35758524Y73491381D01*
X35806143Y73396143D01*
X35806143Y73253286D01*
X35758524Y73158048D01*
X35710905Y73110429D01*
X35615667Y73062810D01*
X35234714Y73062810D01*
X36187095Y73491381D02*
X36234714Y73539000D01*
X36329952Y73586619D01*
X36568048Y73586619D01*
X36663286Y73539000D01*
X36710905Y73491381D01*
X36758524Y73396143D01*
X36758524Y73300905D01*
X36710905Y73158048D01*
X36139476Y72586619D01*
X36758524Y72586619D01*
X37615667Y73586619D02*
X37425190Y73586619D01*
X37329952Y73539000D01*
X37282333Y73491381D01*
X37187095Y73348524D01*
X37139476Y73158048D01*
X37139476Y72777095D01*
X37187095Y72681857D01*
X37234714Y72634238D01*
X37329952Y72586619D01*
X37520429Y72586619D01*
X37615667Y72634238D01*
X37663286Y72681857D01*
X37710905Y72777095D01*
X37710905Y73015190D01*
X37663286Y73110429D01*
X37615667Y73158048D01*
X37520429Y73205667D01*
X37329952Y73205667D01*
X37234714Y73158048D01*
X37187095Y73110429D01*
X37139476Y73015190D01*
X29583143Y72586619D02*
X29249809Y73062810D01*
X29011714Y72586619D02*
X29011714Y73586619D01*
X29392667Y73586619D01*
X29487905Y73539000D01*
X29535524Y73491381D01*
X29583143Y73396143D01*
X29583143Y73253286D01*
X29535524Y73158048D01*
X29487905Y73110429D01*
X29392667Y73062810D01*
X29011714Y73062810D01*
X29964095Y73491381D02*
X30011714Y73539000D01*
X30106952Y73586619D01*
X30345048Y73586619D01*
X30440286Y73539000D01*
X30487905Y73491381D01*
X30535524Y73396143D01*
X30535524Y73300905D01*
X30487905Y73158048D01*
X29916476Y72586619D01*
X30535524Y72586619D01*
X30868857Y73586619D02*
X31535524Y73586619D01*
X31106952Y72586619D01*
X29583143Y58348619D02*
X29249809Y58824810D01*
X29011714Y58348619D02*
X29011714Y59348619D01*
X29392667Y59348619D01*
X29487905Y59301000D01*
X29535524Y59253381D01*
X29583143Y59158143D01*
X29583143Y59015286D01*
X29535524Y58920048D01*
X29487905Y58872429D01*
X29392667Y58824810D01*
X29011714Y58824810D01*
X29964095Y59253381D02*
X30011714Y59301000D01*
X30106952Y59348619D01*
X30345048Y59348619D01*
X30440286Y59301000D01*
X30487905Y59253381D01*
X30535524Y59158143D01*
X30535524Y59062905D01*
X30487905Y58920048D01*
X29916476Y58348619D01*
X30535524Y58348619D01*
X31106952Y58920048D02*
X31011714Y58967667D01*
X30964095Y59015286D01*
X30916476Y59110524D01*
X30916476Y59158143D01*
X30964095Y59253381D01*
X31011714Y59301000D01*
X31106952Y59348619D01*
X31297429Y59348619D01*
X31392667Y59301000D01*
X31440286Y59253381D01*
X31487905Y59158143D01*
X31487905Y59110524D01*
X31440286Y59015286D01*
X31392667Y58967667D01*
X31297429Y58920048D01*
X31106952Y58920048D01*
X31011714Y58872429D01*
X30964095Y58824810D01*
X30916476Y58729571D01*
X30916476Y58539095D01*
X30964095Y58443857D01*
X31011714Y58396238D01*
X31106952Y58348619D01*
X31297429Y58348619D01*
X31392667Y58396238D01*
X31440286Y58443857D01*
X31487905Y58539095D01*
X31487905Y58729571D01*
X31440286Y58824810D01*
X31392667Y58872429D01*
X31297429Y58920048D01*
X97536095Y68556238D02*
X97678952Y68508619D01*
X97917048Y68508619D01*
X98012286Y68556238D01*
X98059905Y68603857D01*
X98107524Y68699095D01*
X98107524Y68794333D01*
X98059905Y68889571D01*
X98012286Y68937190D01*
X97917048Y68984810D01*
X97726571Y69032429D01*
X97631333Y69080048D01*
X97583714Y69127667D01*
X97536095Y69222905D01*
X97536095Y69318143D01*
X97583714Y69413381D01*
X97631333Y69461000D01*
X97726571Y69508619D01*
X97964667Y69508619D01*
X98107524Y69461000D01*
X99059905Y68508619D02*
X98488476Y68508619D01*
X98774190Y68508619D02*
X98774190Y69508619D01*
X98678952Y69365762D01*
X98583714Y69270524D01*
X98488476Y69222905D01*
X58928095Y6280619D02*
X58928095Y5471095D01*
X58975714Y5375857D01*
X59023333Y5328238D01*
X59118571Y5280619D01*
X59309048Y5280619D01*
X59404286Y5328238D01*
X59451905Y5375857D01*
X59499524Y5471095D01*
X59499524Y6280619D01*
X60499524Y5280619D02*
X59928095Y5280619D01*
X60213809Y5280619D02*
X60213809Y6280619D01*
X60118571Y6137762D01*
X60023333Y6042524D01*
X59928095Y5994905D01*
X34417095Y2127619D02*
X34417095Y1318095D01*
X34464714Y1222857D01*
X34512333Y1175238D01*
X34607571Y1127619D01*
X34798048Y1127619D01*
X34893286Y1175238D01*
X34940905Y1222857D01*
X34988524Y1318095D01*
X34988524Y2127619D01*
X35417095Y2032381D02*
X35464714Y2080000D01*
X35559952Y2127619D01*
X35798048Y2127619D01*
X35893286Y2080000D01*
X35940905Y2032381D01*
X35988524Y1937143D01*
X35988524Y1841905D01*
X35940905Y1699048D01*
X35369476Y1127619D01*
X35988524Y1127619D01*
X48418809Y71270810D02*
X48418809Y70794619D01*
X48085476Y71794619D02*
X48418809Y71270810D01*
X48752143Y71794619D01*
X49609286Y70794619D02*
X49037857Y70794619D01*
X49323571Y70794619D02*
X49323571Y71794619D01*
X49228333Y71651762D01*
X49133095Y71556524D01*
X49037857Y71508905D01*
X79224190Y10699809D02*
X79700381Y10699809D01*
X78700381Y10366476D02*
X79224190Y10699809D01*
X78700381Y11033143D01*
X78795619Y11318857D02*
X78748000Y11366476D01*
X78700381Y11461714D01*
X78700381Y11699810D01*
X78748000Y11795048D01*
X78795619Y11842667D01*
X78890857Y11890286D01*
X78986095Y11890286D01*
X79128952Y11842667D01*
X79700381Y11271238D01*
X79700381Y11890286D01*
X52125714Y59892619D02*
X52125714Y60892619D01*
X52506667Y60892619D01*
X52601905Y60845000D01*
X52649524Y60797381D01*
X52697143Y60702143D01*
X52697143Y60559286D01*
X52649524Y60464048D01*
X52601905Y60416429D01*
X52506667Y60368810D01*
X52125714Y60368810D01*
X53649524Y59892619D02*
X53078095Y59892619D01*
X53363809Y59892619D02*
X53363809Y60892619D01*
X53268571Y60749762D01*
X53173333Y60654524D01*
X53078095Y60606905D01*
X53982857Y60892619D02*
X54649524Y60892619D01*
X54220952Y59892619D01*
M02*
