%TF.GenerationSoftware,KiCad,Pcbnew,4.0.2+dfsg1-stable*%
%TF.CreationDate,2018-05-09T22:27:37+02:00*%
%TF.ProjectId,hermas_box,6865726D61735F626F782E6B69636164,rev?*%
%TF.FileFunction,Copper,L2,Bot,Signal*%
%FSLAX46Y46*%
G04 Gerber Fmt 4.6, Leading zero omitted, Abs format (unit mm)*
G04 Created by KiCad (PCBNEW 4.0.2+dfsg1-stable) date mer. 09 mai 2018 22:27:37 CEST*
%MOMM*%
G01*
G04 APERTURE LIST*
%ADD10C,0.100000*%
%ADD11C,0.150000*%
%ADD12C,1.524000*%
%ADD13R,2.032000X2.032000*%
%ADD14O,2.032000X2.032000*%
%ADD15R,2.032000X1.727200*%
%ADD16O,2.032000X1.727200*%
%ADD17R,1.727200X1.727200*%
%ADD18O,1.727200X1.727200*%
%ADD19R,2.235200X2.235200*%
%ADD20C,0.600000*%
%ADD21C,0.400000*%
%ADD22C,0.500000*%
%ADD23C,0.250000*%
%ADD24C,0.300000*%
%ADD25C,0.254000*%
G04 APERTURE END LIST*
D10*
D11*
X114708009Y91186000D02*
G75*
G03X114708009Y91186000I-1805009J0D01*
G01*
X114708009Y3175000D02*
G75*
G03X114708009Y3175000I-1805009J0D01*
G01*
X4853009Y3175000D02*
G75*
G03X4853009Y3175000I-1805009J0D01*
G01*
X4853009Y91186000D02*
G75*
G03X4853009Y91186000I-1805009J0D01*
G01*
X0Y94361000D02*
X116078000Y94361000D01*
X0Y94234000D02*
X0Y94361000D01*
X0Y94107000D02*
X0Y94234000D01*
X0Y0D02*
X0Y94107000D01*
X116078000Y0D02*
X0Y0D01*
X116078000Y94361000D02*
X116078000Y0D01*
D12*
X92456000Y81153000D03*
X97456000Y81153000D03*
X97456000Y86153000D03*
X92456000Y86153000D03*
X94956000Y83653000D03*
X105029000Y81153000D03*
X110029000Y81153000D03*
X110029000Y86153000D03*
X105029000Y86153000D03*
X107529000Y83653000D03*
D13*
X47752000Y34417000D03*
D14*
X47752000Y36957000D03*
D15*
X6350000Y32004000D03*
D16*
X6350000Y29464000D03*
X6350000Y26924000D03*
D17*
X37211000Y24638000D03*
D18*
X37211000Y22098000D03*
X34671000Y24638000D03*
X34671000Y22098000D03*
X32131000Y24638000D03*
X32131000Y22098000D03*
X29591000Y24638000D03*
X29591000Y22098000D03*
X27051000Y24638000D03*
X27051000Y22098000D03*
X24511000Y24638000D03*
X24511000Y22098000D03*
X21971000Y24638000D03*
X21971000Y22098000D03*
D13*
X14732000Y86614000D03*
D14*
X14732000Y89154000D03*
D13*
X6350000Y8128000D03*
D14*
X6350000Y10668000D03*
D13*
X6477000Y49530000D03*
D14*
X6477000Y52070000D03*
D13*
X14224000Y10922000D03*
D14*
X14224000Y13462000D03*
D17*
X51181000Y49911000D03*
D18*
X53721000Y49911000D03*
X51181000Y47371000D03*
X53721000Y47371000D03*
D13*
X61849000Y28829000D03*
D14*
X64389000Y28829000D03*
D13*
X75057000Y26543000D03*
D14*
X75057000Y24003000D03*
D13*
X62484000Y69342000D03*
D14*
X62484000Y66802000D03*
D13*
X68961000Y67310000D03*
D14*
X68961000Y69850000D03*
D17*
X76581000Y47371000D03*
D18*
X74041000Y47371000D03*
X76581000Y49911000D03*
X74041000Y49911000D03*
D13*
X36576000Y62992000D03*
D14*
X36576000Y65532000D03*
D13*
X23114000Y65532000D03*
D14*
X23114000Y62992000D03*
D17*
X45720000Y7366000D03*
D18*
X48260000Y7366000D03*
X45720000Y4826000D03*
X48260000Y4826000D03*
D19*
X53340000Y55245000D03*
D20*
X97917000Y64516000D03*
X91440000Y47625000D03*
X105791000Y50419000D03*
X104775000Y48387000D03*
X28194000Y39878000D03*
X61341000Y2540000D03*
X80899000Y34036000D03*
X94996000Y31750000D03*
X78994000Y67437000D03*
X55880000Y61595000D03*
X41656000Y61595000D03*
X38481000Y27686000D03*
X40640000Y17653000D03*
X6604000Y42418000D03*
X18161000Y64643000D03*
X33274000Y49657000D03*
X22606000Y60452000D03*
X33274000Y55499000D03*
X34417000Y50673000D03*
X18161000Y72517000D03*
X35052000Y48641000D03*
X84201000Y34544000D03*
X109728000Y34290000D03*
X82677000Y25527000D03*
X102108000Y30988000D03*
X52705000Y13589000D03*
X40894000Y47117000D03*
X25781000Y46736000D03*
X51054000Y8763000D03*
X27686000Y2921000D03*
X18796000Y51181000D03*
X16510000Y52070000D03*
X60833000Y75057000D03*
X49911000Y13335000D03*
X52578000Y10668000D03*
X69850000Y60325000D03*
X73152000Y60452000D03*
X68199000Y33528000D03*
X67818000Y48133000D03*
X57658000Y50419000D03*
X79629000Y57531000D03*
X42037000Y49911000D03*
X40386000Y49911000D03*
X35306000Y58801000D03*
X111887000Y60706000D03*
X97663000Y8128000D03*
X98679000Y28829000D03*
X87503000Y29972000D03*
D21*
X21971000Y25908000D02*
X21971000Y24638000D01*
X23368000Y27305000D02*
X21971000Y25908000D01*
X38100000Y27305000D02*
X23368000Y27305000D01*
X38481000Y27686000D02*
X38100000Y27305000D01*
X21971000Y22098000D02*
X21971000Y20574000D01*
X24892000Y17653000D02*
X40640000Y17653000D01*
X21971000Y20574000D02*
X24892000Y17653000D01*
D22*
X6477000Y49530000D02*
X6477000Y42545000D01*
X6477000Y42545000D02*
X6604000Y42418000D01*
X6604000Y42418000D02*
X6477000Y42545000D01*
D23*
X18669000Y64135000D02*
X18161000Y64643000D01*
X18669000Y59309000D02*
X18669000Y64135000D01*
X28448000Y49530000D02*
X18669000Y59309000D01*
X33147000Y49530000D02*
X28448000Y49530000D01*
X33274000Y49657000D02*
X33147000Y49530000D01*
D22*
X33274000Y55499000D02*
X33274000Y55626000D01*
X28448000Y60452000D02*
X22606000Y60452000D01*
X33274000Y55626000D02*
X28448000Y60452000D01*
D23*
X28575000Y50673000D02*
X34417000Y50673000D01*
X19939000Y59309000D02*
X28575000Y50673000D01*
X19939000Y70739000D02*
X19939000Y59309000D01*
X18161000Y72517000D02*
X19939000Y70739000D01*
D21*
X23114000Y62992000D02*
X29337000Y62992000D01*
X29337000Y62992000D02*
X35814000Y56515000D01*
X35814000Y56515000D02*
X35814000Y49403000D01*
X35814000Y49403000D02*
X35052000Y48641000D01*
D23*
X35814000Y56515000D02*
X29337000Y62992000D01*
X35814000Y49403000D02*
X35814000Y56515000D01*
X35179000Y48768000D02*
X35814000Y49403000D01*
X34925000Y48768000D02*
X35179000Y48768000D01*
X35052000Y48641000D02*
X34925000Y48768000D01*
D21*
X109474000Y34544000D02*
X84201000Y34544000D01*
X109728000Y34290000D02*
X109474000Y34544000D01*
X99060000Y30988000D02*
X97790000Y29718000D01*
X88138000Y30734000D02*
X87630000Y30734000D01*
X89154000Y29718000D02*
X88138000Y30734000D01*
X97790000Y29718000D02*
X89154000Y29718000D01*
X102108000Y30988000D02*
X99060000Y30988000D01*
X80772000Y27432000D02*
X82677000Y25527000D01*
X80772000Y29337000D02*
X80772000Y27432000D01*
X82169000Y30734000D02*
X80772000Y29337000D01*
X87630000Y30734000D02*
X82169000Y30734000D01*
D23*
X50800000Y15494000D02*
X52705000Y13589000D01*
X50800000Y37211000D02*
X50800000Y15494000D01*
X40894000Y47117000D02*
X50800000Y37211000D01*
X25781000Y46736000D02*
X25844500Y46799500D01*
X25844500Y46799500D02*
X25781000Y46736000D01*
X25781000Y46736000D02*
X25781000Y46863000D01*
X39751000Y32893000D02*
X25781000Y46863000D01*
X39751000Y20066000D02*
X39751000Y32893000D01*
X51054000Y8763000D02*
X39751000Y20066000D01*
X18796000Y51181000D02*
X18669000Y51181000D01*
X17526000Y6096000D02*
X20447000Y3175000D01*
X17526000Y50038000D02*
X17526000Y6096000D01*
X18669000Y51181000D02*
X17526000Y50038000D01*
X20701000Y2921000D02*
X27686000Y2921000D01*
X20447000Y3175000D02*
X20701000Y2921000D01*
D22*
X60833000Y75057000D02*
X10414000Y75057000D01*
X9017000Y55372000D02*
X11430000Y52959000D01*
X9017000Y73660000D02*
X9017000Y55372000D01*
X10414000Y75057000D02*
X9017000Y73660000D01*
X11430000Y52959000D02*
X15621000Y52959000D01*
X15621000Y52959000D02*
X16510000Y52070000D01*
D23*
X16510000Y52070000D02*
X15621000Y52959000D01*
X15621000Y52959000D02*
X11430000Y52959000D01*
D24*
X52578000Y10668000D02*
X49911000Y13335000D01*
D21*
X73025000Y60325000D02*
X69850000Y60325000D01*
X73152000Y60452000D02*
X73025000Y60325000D01*
D22*
X60325000Y55118000D02*
X53467000Y55118000D01*
X53467000Y55118000D02*
X53340000Y55245000D01*
X69342000Y49657000D02*
X69342000Y34671000D01*
X69342000Y34671000D02*
X68199000Y33528000D01*
X69342000Y57404000D02*
X69342000Y49657000D01*
X69342000Y49657000D02*
X67818000Y48133000D01*
X57658000Y52451000D02*
X57658000Y50419000D01*
X62611000Y57404000D02*
X60325000Y55118000D01*
X60325000Y55118000D02*
X57658000Y52451000D01*
X79502000Y57404000D02*
X69342000Y57404000D01*
X69342000Y57404000D02*
X62611000Y57404000D01*
X79629000Y57531000D02*
X79502000Y57404000D01*
D23*
X42037000Y49911000D02*
X51181000Y49911000D01*
X47752000Y47371000D02*
X51181000Y47371000D01*
X46736000Y48387000D02*
X47752000Y47371000D01*
X41910000Y48387000D02*
X46736000Y48387000D01*
X40386000Y49911000D02*
X41910000Y48387000D01*
D22*
X35306000Y58801000D02*
X109982000Y58801000D01*
X109982000Y58801000D02*
X111887000Y60706000D01*
D24*
X111887000Y60706000D02*
X109982000Y58801000D01*
D21*
X87503000Y29972000D02*
X87503000Y29845000D01*
X87503000Y29845000D02*
X88519000Y28829000D01*
X96520000Y9271000D02*
X96520000Y28829000D01*
X97663000Y8128000D02*
X96520000Y9271000D01*
X88519000Y28829000D02*
X96520000Y28829000D01*
X96520000Y28829000D02*
X98679000Y28829000D01*
D25*
G36*
X110579435Y92148452D02*
X110387991Y91186000D01*
X110579435Y90223548D01*
X111124620Y89407620D01*
X111940548Y88862435D01*
X112903000Y88670991D01*
X113865452Y88862435D01*
X114681000Y89407366D01*
X114681000Y4953634D01*
X113865452Y5498565D01*
X112903000Y5690009D01*
X111940548Y5498565D01*
X111124620Y4953380D01*
X110579435Y4137452D01*
X110387991Y3175000D01*
X110579435Y2212548D01*
X111124366Y1397000D01*
X4826634Y1397000D01*
X5371565Y2212548D01*
X5563009Y3175000D01*
X5371565Y4137452D01*
X4826380Y4953380D01*
X4010452Y5498565D01*
X3048000Y5690009D01*
X2085548Y5498565D01*
X1270000Y4953634D01*
X1270000Y10668000D01*
X4666655Y10668000D01*
X4792330Y10036190D01*
X5019499Y9696208D01*
X4882559Y9608090D01*
X4737569Y9395890D01*
X4686560Y9144000D01*
X4686560Y7112000D01*
X4730838Y6876683D01*
X4869910Y6660559D01*
X5082110Y6515569D01*
X5334000Y6464560D01*
X7366000Y6464560D01*
X7601317Y6508838D01*
X7817441Y6647910D01*
X7962431Y6860110D01*
X8013440Y7112000D01*
X8013440Y9144000D01*
X7969162Y9379317D01*
X7830090Y9595441D01*
X7681163Y9697198D01*
X7907670Y10036190D01*
X8033345Y10668000D01*
X7907670Y11299810D01*
X7549778Y11835433D01*
X7014155Y12193325D01*
X6382345Y12319000D01*
X6317655Y12319000D01*
X5685845Y12193325D01*
X5150222Y11835433D01*
X4792330Y11299810D01*
X4666655Y10668000D01*
X1270000Y10668000D01*
X1270000Y13462000D01*
X12540655Y13462000D01*
X12666330Y12830190D01*
X12893499Y12490208D01*
X12756559Y12402090D01*
X12611569Y12189890D01*
X12560560Y11938000D01*
X12560560Y9906000D01*
X12604838Y9670683D01*
X12743910Y9454559D01*
X12956110Y9309569D01*
X13208000Y9258560D01*
X15240000Y9258560D01*
X15475317Y9302838D01*
X15691441Y9441910D01*
X15836431Y9654110D01*
X15887440Y9906000D01*
X15887440Y11938000D01*
X15843162Y12173317D01*
X15704090Y12389441D01*
X15555163Y12491198D01*
X15781670Y12830190D01*
X15907345Y13462000D01*
X15781670Y14093810D01*
X15423778Y14629433D01*
X14888155Y14987325D01*
X14256345Y15113000D01*
X14191655Y15113000D01*
X13559845Y14987325D01*
X13024222Y14629433D01*
X12666330Y14093810D01*
X12540655Y13462000D01*
X1270000Y13462000D01*
X1270000Y26564974D01*
X4742642Y26564974D01*
X4745291Y26549209D01*
X4999268Y26021964D01*
X5435680Y25632046D01*
X5988087Y25438816D01*
X6223000Y25583076D01*
X6223000Y26797000D01*
X6477000Y26797000D01*
X6477000Y25583076D01*
X6711913Y25438816D01*
X7264320Y25632046D01*
X7700732Y26021964D01*
X7954709Y26549209D01*
X7957358Y26564974D01*
X7836217Y26797000D01*
X6477000Y26797000D01*
X6223000Y26797000D01*
X4863783Y26797000D01*
X4742642Y26564974D01*
X1270000Y26564974D01*
X1270000Y29464000D01*
X4666655Y29464000D01*
X4780729Y28890511D01*
X5105585Y28404330D01*
X5415069Y28197539D01*
X4999268Y27826036D01*
X4745291Y27298791D01*
X4742642Y27283026D01*
X4863783Y27051000D01*
X6223000Y27051000D01*
X6223000Y27071000D01*
X6477000Y27071000D01*
X6477000Y27051000D01*
X7836217Y27051000D01*
X7957358Y27283026D01*
X7954709Y27298791D01*
X7700732Y27826036D01*
X7284931Y28197539D01*
X7594415Y28404330D01*
X7919271Y28890511D01*
X8033345Y29464000D01*
X7919271Y30037489D01*
X7594415Y30523670D01*
X7580087Y30533243D01*
X7601317Y30537238D01*
X7817441Y30676310D01*
X7962431Y30888510D01*
X8013440Y31140400D01*
X8013440Y32867600D01*
X7969162Y33102917D01*
X7830090Y33319041D01*
X7617890Y33464031D01*
X7366000Y33515040D01*
X5334000Y33515040D01*
X5098683Y33470762D01*
X4882559Y33331690D01*
X4737569Y33119490D01*
X4686560Y32867600D01*
X4686560Y31140400D01*
X4730838Y30905083D01*
X4869910Y30688959D01*
X5082110Y30543969D01*
X5123439Y30535600D01*
X5105585Y30523670D01*
X4780729Y30037489D01*
X4666655Y29464000D01*
X1270000Y29464000D01*
X1270000Y52070000D01*
X4793655Y52070000D01*
X4919330Y51438190D01*
X5146499Y51098208D01*
X5009559Y51010090D01*
X4864569Y50797890D01*
X4813560Y50546000D01*
X4813560Y48514000D01*
X4857838Y48278683D01*
X4996910Y48062559D01*
X5209110Y47917569D01*
X5461000Y47866560D01*
X5592000Y47866560D01*
X5592000Y42545005D01*
X5591999Y42545000D01*
X5648190Y42262516D01*
X5659367Y42206325D01*
X5712887Y42126226D01*
X5810883Y41889057D01*
X6073673Y41625808D01*
X6417201Y41483162D01*
X6789167Y41482838D01*
X7132943Y41624883D01*
X7396192Y41887673D01*
X7538838Y42231201D01*
X7539162Y42603167D01*
X7397117Y42946943D01*
X7362000Y42982121D01*
X7362000Y47866560D01*
X7493000Y47866560D01*
X7728317Y47910838D01*
X7944441Y48049910D01*
X8089431Y48262110D01*
X8140440Y48514000D01*
X8140440Y50038000D01*
X16766000Y50038000D01*
X16766000Y6096000D01*
X16823852Y5805161D01*
X16988599Y5558599D01*
X20163599Y2383599D01*
X20410160Y2218852D01*
X20701000Y2161000D01*
X27123537Y2161000D01*
X27155673Y2128808D01*
X27499201Y1986162D01*
X27871167Y1985838D01*
X28214943Y2127883D01*
X28478192Y2390673D01*
X28620838Y2734201D01*
X28621162Y3106167D01*
X28479117Y3449943D01*
X28216327Y3713192D01*
X27872799Y3855838D01*
X27500833Y3856162D01*
X27157057Y3714117D01*
X27123882Y3681000D01*
X21015802Y3681000D01*
X19870802Y4826000D01*
X44192041Y4826000D01*
X44306115Y4252511D01*
X44630971Y3766330D01*
X45117152Y3441474D01*
X45690641Y3327400D01*
X45749359Y3327400D01*
X46322848Y3441474D01*
X46809029Y3766330D01*
X46990000Y4037172D01*
X47170971Y3766330D01*
X47657152Y3441474D01*
X48230641Y3327400D01*
X48289359Y3327400D01*
X48862848Y3441474D01*
X49349029Y3766330D01*
X49673885Y4252511D01*
X49787959Y4826000D01*
X49673885Y5399489D01*
X49349029Y5885670D01*
X49034248Y6096000D01*
X49349029Y6306330D01*
X49673885Y6792511D01*
X49787959Y7366000D01*
X49673885Y7939489D01*
X49349029Y8425670D01*
X48862848Y8750526D01*
X48289359Y8864600D01*
X48230641Y8864600D01*
X47657152Y8750526D01*
X47191558Y8439426D01*
X47186762Y8464917D01*
X47047690Y8681041D01*
X46835490Y8826031D01*
X46583600Y8877040D01*
X44856400Y8877040D01*
X44621083Y8832762D01*
X44404959Y8693690D01*
X44259969Y8481490D01*
X44208960Y8229600D01*
X44208960Y6502400D01*
X44253238Y6267083D01*
X44392310Y6050959D01*
X44604510Y5905969D01*
X44648131Y5897136D01*
X44630971Y5885670D01*
X44306115Y5399489D01*
X44192041Y4826000D01*
X19870802Y4826000D01*
X18286000Y6410802D01*
X18286000Y24667359D01*
X20472400Y24667359D01*
X20472400Y24608641D01*
X20586474Y24035152D01*
X20911330Y23548971D01*
X21182172Y23368000D01*
X20911330Y23187029D01*
X20586474Y22700848D01*
X20472400Y22127359D01*
X20472400Y22068641D01*
X20586474Y21495152D01*
X20911330Y21008971D01*
X21136000Y20858851D01*
X21136000Y20574000D01*
X21199561Y20254459D01*
X21380566Y19983566D01*
X24301566Y17062566D01*
X24572459Y16881561D01*
X24892000Y16818000D01*
X40212766Y16818000D01*
X40453201Y16718162D01*
X40825167Y16717838D01*
X41168943Y16859883D01*
X41432192Y17122673D01*
X41487156Y17255042D01*
X50118878Y8623320D01*
X50118838Y8577833D01*
X50260883Y8234057D01*
X50523673Y7970808D01*
X50867201Y7828162D01*
X51239167Y7827838D01*
X51582943Y7969883D01*
X51846192Y8232673D01*
X51988838Y8576201D01*
X51989162Y8948167D01*
X51847117Y9291943D01*
X51584327Y9555192D01*
X51240799Y9697838D01*
X51193923Y9697879D01*
X47741969Y13149833D01*
X48975838Y13149833D01*
X49117883Y12806057D01*
X49380673Y12542808D01*
X49724201Y12400162D01*
X49735690Y12400152D01*
X51642847Y10492995D01*
X51642838Y10482833D01*
X51784883Y10139057D01*
X52047673Y9875808D01*
X52391201Y9733162D01*
X52763167Y9732838D01*
X53106943Y9874883D01*
X53370192Y10137673D01*
X53512838Y10481201D01*
X53513162Y10853167D01*
X53371117Y11196943D01*
X53108327Y11460192D01*
X52764799Y11602838D01*
X52753310Y11602848D01*
X50846153Y13510005D01*
X50846162Y13520167D01*
X50704117Y13863943D01*
X50441327Y14127192D01*
X50097799Y14269838D01*
X49725833Y14270162D01*
X49382057Y14128117D01*
X49118808Y13865327D01*
X48976162Y13521799D01*
X48975838Y13149833D01*
X47741969Y13149833D01*
X40511000Y20380802D01*
X40511000Y32893000D01*
X40453148Y33183839D01*
X40453148Y33183840D01*
X40288401Y33430401D01*
X39587552Y34131250D01*
X46101000Y34131250D01*
X46101000Y33274690D01*
X46197673Y33041301D01*
X46376302Y32862673D01*
X46609691Y32766000D01*
X47466250Y32766000D01*
X47625000Y32924750D01*
X47625000Y34290000D01*
X47879000Y34290000D01*
X47879000Y32924750D01*
X48037750Y32766000D01*
X48894309Y32766000D01*
X49127698Y32862673D01*
X49306327Y33041301D01*
X49403000Y33274690D01*
X49403000Y34131250D01*
X49244250Y34290000D01*
X47879000Y34290000D01*
X47625000Y34290000D01*
X46259750Y34290000D01*
X46101000Y34131250D01*
X39587552Y34131250D01*
X26658794Y47060008D01*
X26574117Y47264943D01*
X26311327Y47528192D01*
X25967799Y47670838D01*
X25595833Y47671162D01*
X25252057Y47529117D01*
X24988808Y47266327D01*
X24846162Y46922799D01*
X24845838Y46550833D01*
X24987883Y46207057D01*
X25250673Y45943808D01*
X25594201Y45801162D01*
X25768188Y45801010D01*
X38991000Y32578198D01*
X38991000Y28486633D01*
X38667799Y28620838D01*
X38295833Y28621162D01*
X37952057Y28479117D01*
X37688808Y28216327D01*
X37657114Y28140000D01*
X23368000Y28140000D01*
X23048459Y28076439D01*
X22777566Y27895434D01*
X21380566Y26498434D01*
X21199561Y26227541D01*
X21136000Y25908000D01*
X21136000Y25877149D01*
X20911330Y25727029D01*
X20586474Y25240848D01*
X20472400Y24667359D01*
X18286000Y24667359D01*
X18286000Y49723198D01*
X18808790Y50245988D01*
X18981167Y50245838D01*
X19324943Y50387883D01*
X19588192Y50650673D01*
X19730838Y50994201D01*
X19731162Y51366167D01*
X19589117Y51709943D01*
X19326327Y51973192D01*
X18982799Y52115838D01*
X18610833Y52116162D01*
X18267057Y51974117D01*
X18003808Y51711327D01*
X17918087Y51504889D01*
X16988599Y50575401D01*
X16823852Y50328839D01*
X16766000Y50038000D01*
X8140440Y50038000D01*
X8140440Y50546000D01*
X8096162Y50781317D01*
X7957090Y50997441D01*
X7808163Y51099198D01*
X8034670Y51438190D01*
X8160345Y52070000D01*
X8034670Y52701810D01*
X7676778Y53237433D01*
X7141155Y53595325D01*
X6509345Y53721000D01*
X6444655Y53721000D01*
X5812845Y53595325D01*
X5277222Y53237433D01*
X4919330Y52701810D01*
X4793655Y52070000D01*
X1270000Y52070000D01*
X1270000Y73660000D01*
X8131999Y73660000D01*
X8132000Y73659995D01*
X8132000Y55372005D01*
X8131999Y55372000D01*
X8174105Y55160325D01*
X8199367Y55033325D01*
X8242566Y54968673D01*
X8391210Y54746210D01*
X10804208Y52333213D01*
X10804210Y52333210D01*
X11005071Y52199000D01*
X11091325Y52141367D01*
X11430000Y52074000D01*
X15254420Y52074000D01*
X15667255Y51661165D01*
X15716883Y51541057D01*
X15979673Y51277808D01*
X16323201Y51135162D01*
X16695167Y51134838D01*
X17038943Y51276883D01*
X17302192Y51539673D01*
X17444838Y51883201D01*
X17445162Y52255167D01*
X17303117Y52598943D01*
X17040327Y52862192D01*
X16919013Y52912566D01*
X16246790Y53584790D01*
X16231023Y53595325D01*
X15959675Y53776633D01*
X15903484Y53787810D01*
X15621000Y53844001D01*
X15620995Y53844000D01*
X11796579Y53844000D01*
X9902000Y55738580D01*
X9902000Y72331833D01*
X17225838Y72331833D01*
X17367883Y71988057D01*
X17630673Y71724808D01*
X17974201Y71582162D01*
X18021077Y71582121D01*
X19179000Y70424198D01*
X19179000Y64699802D01*
X19096122Y64782680D01*
X19096162Y64828167D01*
X18954117Y65171943D01*
X18691327Y65435192D01*
X18347799Y65577838D01*
X17975833Y65578162D01*
X17632057Y65436117D01*
X17368808Y65173327D01*
X17226162Y64829799D01*
X17225838Y64457833D01*
X17367883Y64114057D01*
X17630673Y63850808D01*
X17909000Y63735236D01*
X17909000Y59309000D01*
X17966852Y59018161D01*
X18131599Y58771599D01*
X27910599Y48992599D01*
X28157160Y48827852D01*
X28205414Y48818254D01*
X28448000Y48770000D01*
X32971995Y48770000D01*
X33087201Y48722162D01*
X33459167Y48721838D01*
X33802943Y48863883D01*
X34066192Y49126673D01*
X34208838Y49470201D01*
X34209079Y49746933D01*
X34230201Y49738162D01*
X34602167Y49737838D01*
X34945943Y49879883D01*
X34979000Y49912882D01*
X34979000Y49748868D01*
X34763667Y49533535D01*
X34523057Y49434117D01*
X34407309Y49318571D01*
X34387599Y49305401D01*
X34374544Y49285863D01*
X34259808Y49171327D01*
X34117162Y48827799D01*
X34116838Y48455833D01*
X34258883Y48112057D01*
X34521673Y47848808D01*
X34865201Y47706162D01*
X35237167Y47705838D01*
X35580943Y47847883D01*
X35844192Y48110673D01*
X35944778Y48352910D01*
X36404434Y48812566D01*
X36585440Y49083460D01*
X36649000Y49403000D01*
X36649000Y49725833D01*
X39450838Y49725833D01*
X39592883Y49382057D01*
X39855673Y49118808D01*
X40199201Y48976162D01*
X40246077Y48976121D01*
X41233957Y47988241D01*
X41080799Y48051838D01*
X40708833Y48052162D01*
X40365057Y47910117D01*
X40101808Y47647327D01*
X39959162Y47303799D01*
X39958838Y46931833D01*
X40100883Y46588057D01*
X40363673Y46324808D01*
X40707201Y46182162D01*
X40754077Y46182121D01*
X48529825Y38406373D01*
X48416155Y38482325D01*
X47784345Y38608000D01*
X47719655Y38608000D01*
X47087845Y38482325D01*
X46552222Y38124433D01*
X46194330Y37588810D01*
X46068655Y36957000D01*
X46194330Y36325190D01*
X46418966Y35988999D01*
X46376302Y35971327D01*
X46197673Y35792699D01*
X46101000Y35559310D01*
X46101000Y34702750D01*
X46259750Y34544000D01*
X47625000Y34544000D01*
X47625000Y34564000D01*
X47879000Y34564000D01*
X47879000Y34544000D01*
X49244250Y34544000D01*
X49403000Y34702750D01*
X49403000Y35559310D01*
X49306327Y35792699D01*
X49127698Y35971327D01*
X49085034Y35988999D01*
X49309670Y36325190D01*
X49435345Y36957000D01*
X49309670Y37588810D01*
X49233718Y37702480D01*
X50040000Y36896198D01*
X50040000Y15494000D01*
X50097852Y15203161D01*
X50262599Y14956599D01*
X51769878Y13449320D01*
X51769838Y13403833D01*
X51911883Y13060057D01*
X52174673Y12796808D01*
X52518201Y12654162D01*
X52890167Y12653838D01*
X53233943Y12795883D01*
X53497192Y13058673D01*
X53639838Y13402201D01*
X53640162Y13774167D01*
X53498117Y14117943D01*
X53235327Y14381192D01*
X52891799Y14523838D01*
X52844923Y14523879D01*
X51560000Y15808802D01*
X51560000Y24003000D01*
X73373655Y24003000D01*
X73499330Y23371190D01*
X73857222Y22835567D01*
X74392845Y22477675D01*
X75024655Y22352000D01*
X75089345Y22352000D01*
X75721155Y22477675D01*
X76256778Y22835567D01*
X76614670Y23371190D01*
X76740345Y24003000D01*
X76614670Y24634810D01*
X76387501Y24974792D01*
X76524441Y25062910D01*
X76669431Y25275110D01*
X76720440Y25527000D01*
X76720440Y27559000D01*
X76676162Y27794317D01*
X76537090Y28010441D01*
X76324890Y28155431D01*
X76073000Y28206440D01*
X74041000Y28206440D01*
X73805683Y28162162D01*
X73589559Y28023090D01*
X73444569Y27810890D01*
X73393560Y27559000D01*
X73393560Y25527000D01*
X73437838Y25291683D01*
X73576910Y25075559D01*
X73725837Y24973802D01*
X73499330Y24634810D01*
X73373655Y24003000D01*
X51560000Y24003000D01*
X51560000Y29845000D01*
X60185560Y29845000D01*
X60185560Y27813000D01*
X60229838Y27577683D01*
X60368910Y27361559D01*
X60581110Y27216569D01*
X60833000Y27165560D01*
X62865000Y27165560D01*
X63100317Y27209838D01*
X63316441Y27348910D01*
X63418198Y27497837D01*
X63757190Y27271330D01*
X64389000Y27145655D01*
X65020810Y27271330D01*
X65556433Y27629222D01*
X65914325Y28164845D01*
X66040000Y28796655D01*
X66040000Y28861345D01*
X65945387Y29337000D01*
X79937000Y29337000D01*
X79937000Y27432000D01*
X80000561Y27112459D01*
X80011849Y27095566D01*
X80181566Y26841566D01*
X81784465Y25238667D01*
X81883883Y24998057D01*
X82146673Y24734808D01*
X82490201Y24592162D01*
X82862167Y24591838D01*
X83205943Y24733883D01*
X83425255Y24952813D01*
X89193752Y24952813D01*
X89411757Y24425200D01*
X89815077Y24021176D01*
X90342309Y23802250D01*
X90913187Y23801752D01*
X91440800Y24019757D01*
X91844824Y24423077D01*
X92063750Y24950309D01*
X92064248Y25521187D01*
X91846243Y26048800D01*
X91442923Y26452824D01*
X90915691Y26671750D01*
X90344813Y26672248D01*
X89817200Y26454243D01*
X89413176Y26050923D01*
X89194250Y25523691D01*
X89193752Y24952813D01*
X83425255Y24952813D01*
X83469192Y24996673D01*
X83611838Y25340201D01*
X83612162Y25712167D01*
X83470117Y26055943D01*
X83207327Y26319192D01*
X82965090Y26419778D01*
X81607000Y27777868D01*
X81607000Y28991132D01*
X82514868Y29899000D01*
X86567936Y29899000D01*
X86567838Y29786833D01*
X86709883Y29443057D01*
X86972673Y29179808D01*
X86997728Y29169404D01*
X87928566Y28238566D01*
X88199459Y28057561D01*
X88519000Y27994000D01*
X95685000Y27994000D01*
X95685000Y9271000D01*
X95748561Y8951459D01*
X95882820Y8750526D01*
X95929566Y8680566D01*
X96770465Y7839667D01*
X96869883Y7599057D01*
X97132673Y7335808D01*
X97476201Y7193162D01*
X97848167Y7192838D01*
X98191943Y7334883D01*
X98455192Y7597673D01*
X98597838Y7941201D01*
X98598162Y8313167D01*
X98456117Y8656943D01*
X98193327Y8920192D01*
X97951090Y9020778D01*
X97355000Y9616868D01*
X97355000Y11052813D01*
X102863752Y11052813D01*
X103081757Y10525200D01*
X103485077Y10121176D01*
X104012309Y9902250D01*
X104583187Y9901752D01*
X105110800Y10119757D01*
X105514824Y10523077D01*
X105733750Y11050309D01*
X105734248Y11621187D01*
X105516243Y12148800D01*
X105112923Y12552824D01*
X104585691Y12771750D01*
X104014813Y12772248D01*
X103487200Y12554243D01*
X103083176Y12150923D01*
X102864250Y11623691D01*
X102863752Y11052813D01*
X97355000Y11052813D01*
X97355000Y27994000D01*
X98251766Y27994000D01*
X98492201Y27894162D01*
X98864167Y27893838D01*
X99207943Y28035883D01*
X99471192Y28298673D01*
X99613838Y28642201D01*
X99614162Y29014167D01*
X99472117Y29357943D01*
X99209327Y29621192D01*
X98972429Y29719561D01*
X99405868Y30153000D01*
X101680766Y30153000D01*
X101921201Y30053162D01*
X102293167Y30052838D01*
X102636943Y30194883D01*
X102900192Y30457673D01*
X103042838Y30801201D01*
X103043162Y31173167D01*
X102901117Y31516943D01*
X102638327Y31780192D01*
X102294799Y31922838D01*
X101922833Y31923162D01*
X101680422Y31823000D01*
X99060000Y31823000D01*
X98740459Y31759439D01*
X98469566Y31578434D01*
X97444132Y30553000D01*
X89499868Y30553000D01*
X88728434Y31324434D01*
X88457541Y31505439D01*
X88138000Y31569000D01*
X82169000Y31569000D01*
X81849459Y31505439D01*
X81578566Y31324434D01*
X80181566Y29927434D01*
X80000561Y29656541D01*
X79937000Y29337000D01*
X65945387Y29337000D01*
X65914325Y29493155D01*
X65556433Y30028778D01*
X65020810Y30386670D01*
X64389000Y30512345D01*
X63757190Y30386670D01*
X63417208Y30159501D01*
X63329090Y30296441D01*
X63116890Y30441431D01*
X62865000Y30492440D01*
X60833000Y30492440D01*
X60597683Y30448162D01*
X60381559Y30309090D01*
X60236569Y30096890D01*
X60185560Y29845000D01*
X51560000Y29845000D01*
X51560000Y37211000D01*
X51502148Y37501839D01*
X51337401Y37748401D01*
X41829122Y47256680D01*
X41829162Y47302167D01*
X41687117Y47645943D01*
X41655490Y47677626D01*
X41667414Y47675254D01*
X41910000Y47627000D01*
X46421198Y47627000D01*
X47214599Y46833599D01*
X47461161Y46668852D01*
X47752000Y46611000D01*
X49891738Y46611000D01*
X50091971Y46311330D01*
X50578152Y45986474D01*
X51151641Y45872400D01*
X51210359Y45872400D01*
X51783848Y45986474D01*
X52270029Y46311330D01*
X52451000Y46582172D01*
X52631971Y46311330D01*
X53118152Y45986474D01*
X53691641Y45872400D01*
X53750359Y45872400D01*
X54323848Y45986474D01*
X54810029Y46311330D01*
X55134885Y46797511D01*
X55248959Y47371000D01*
X55134885Y47944489D01*
X54810029Y48430670D01*
X54495248Y48641000D01*
X54810029Y48851330D01*
X55134885Y49337511D01*
X55248959Y49911000D01*
X55134885Y50484489D01*
X54810029Y50970670D01*
X54323848Y51295526D01*
X53750359Y51409600D01*
X53691641Y51409600D01*
X53118152Y51295526D01*
X52652558Y50984426D01*
X52647762Y51009917D01*
X52508690Y51226041D01*
X52296490Y51371031D01*
X52044600Y51422040D01*
X50317400Y51422040D01*
X50082083Y51377762D01*
X49865959Y51238690D01*
X49720969Y51026490D01*
X49669960Y50774600D01*
X49669960Y50671000D01*
X42599463Y50671000D01*
X42567327Y50703192D01*
X42223799Y50845838D01*
X41851833Y50846162D01*
X41508057Y50704117D01*
X41244808Y50441327D01*
X41211595Y50361341D01*
X41179117Y50439943D01*
X40916327Y50703192D01*
X40572799Y50845838D01*
X40200833Y50846162D01*
X39857057Y50704117D01*
X39593808Y50441327D01*
X39451162Y50097799D01*
X39450838Y49725833D01*
X36649000Y49725833D01*
X36649000Y56515000D01*
X36585439Y56834541D01*
X36404434Y57105434D01*
X35599336Y57910532D01*
X35612569Y57916000D01*
X61871421Y57916000D01*
X59958420Y56003000D01*
X55105040Y56003000D01*
X55105040Y56362600D01*
X55060762Y56597917D01*
X54921690Y56814041D01*
X54709490Y56959031D01*
X54457600Y57010040D01*
X52222400Y57010040D01*
X51987083Y56965762D01*
X51770959Y56826690D01*
X51625969Y56614490D01*
X51574960Y56362600D01*
X51574960Y54127400D01*
X51619238Y53892083D01*
X51758310Y53675959D01*
X51970510Y53530969D01*
X52222400Y53479960D01*
X54457600Y53479960D01*
X54692917Y53524238D01*
X54909041Y53663310D01*
X55054031Y53875510D01*
X55105040Y54127400D01*
X55105040Y54233000D01*
X58188420Y54233000D01*
X57032210Y53076790D01*
X56840367Y52789675D01*
X56840367Y52789674D01*
X56772999Y52451000D01*
X56773000Y52450995D01*
X56773000Y50725822D01*
X56723162Y50605799D01*
X56722838Y50233833D01*
X56864883Y49890057D01*
X57127673Y49626808D01*
X57471201Y49484162D01*
X57843167Y49483838D01*
X58186943Y49625883D01*
X58450192Y49888673D01*
X58592838Y50232201D01*
X58593162Y50604167D01*
X58543000Y50725569D01*
X58543000Y52084420D01*
X60950787Y54492208D01*
X60950790Y54492210D01*
X60950791Y54492211D01*
X62977579Y56519000D01*
X68457000Y56519000D01*
X68457000Y50023579D01*
X67409164Y48975744D01*
X67289057Y48926117D01*
X67025808Y48663327D01*
X66883162Y48319799D01*
X66882838Y47947833D01*
X67024883Y47604057D01*
X67287673Y47340808D01*
X67631201Y47198162D01*
X68003167Y47197838D01*
X68346943Y47339883D01*
X68457000Y47449748D01*
X68457000Y35037579D01*
X67790164Y34370744D01*
X67670057Y34321117D01*
X67406808Y34058327D01*
X67264162Y33714799D01*
X67263838Y33342833D01*
X67405883Y32999057D01*
X67668673Y32735808D01*
X68012201Y32593162D01*
X68384167Y32592838D01*
X68727943Y32734883D01*
X68991192Y32997673D01*
X69041566Y33118986D01*
X69967787Y34045208D01*
X69967790Y34045210D01*
X70159633Y34332325D01*
X70164905Y34358833D01*
X83265838Y34358833D01*
X83407883Y34015057D01*
X83670673Y33751808D01*
X84014201Y33609162D01*
X84386167Y33608838D01*
X84628578Y33709000D01*
X108986849Y33709000D01*
X109197673Y33497808D01*
X109541201Y33355162D01*
X109913167Y33354838D01*
X110256943Y33496883D01*
X110520192Y33759673D01*
X110662838Y34103201D01*
X110663162Y34475167D01*
X110521117Y34818943D01*
X110258327Y35082192D01*
X109952669Y35209113D01*
X109793541Y35315439D01*
X109474000Y35379000D01*
X84628234Y35379000D01*
X84387799Y35478838D01*
X84015833Y35479162D01*
X83672057Y35337117D01*
X83408808Y35074327D01*
X83266162Y34730799D01*
X83265838Y34358833D01*
X70164905Y34358833D01*
X70185594Y34462838D01*
X70227001Y34671000D01*
X70227000Y34671005D01*
X70227000Y49911000D01*
X72513041Y49911000D01*
X72627115Y49337511D01*
X72951971Y48851330D01*
X73266752Y48641000D01*
X72951971Y48430670D01*
X72627115Y47944489D01*
X72513041Y47371000D01*
X72627115Y46797511D01*
X72951971Y46311330D01*
X73438152Y45986474D01*
X74011641Y45872400D01*
X74070359Y45872400D01*
X74643848Y45986474D01*
X75109442Y46297574D01*
X75114238Y46272083D01*
X75253310Y46055959D01*
X75465510Y45910969D01*
X75717400Y45859960D01*
X77444600Y45859960D01*
X77679917Y45904238D01*
X77896041Y46043310D01*
X78041031Y46255510D01*
X78092040Y46507400D01*
X78092040Y48234600D01*
X78047762Y48469917D01*
X77908690Y48686041D01*
X77696490Y48831031D01*
X77652869Y48839864D01*
X77670029Y48851330D01*
X77994885Y49337511D01*
X78108959Y49911000D01*
X77994885Y50484489D01*
X77670029Y50970670D01*
X77183848Y51295526D01*
X76610359Y51409600D01*
X76551641Y51409600D01*
X75978152Y51295526D01*
X75491971Y50970670D01*
X75311000Y50699828D01*
X75130029Y50970670D01*
X74643848Y51295526D01*
X74070359Y51409600D01*
X74011641Y51409600D01*
X73438152Y51295526D01*
X72951971Y50970670D01*
X72627115Y50484489D01*
X72513041Y49911000D01*
X70227000Y49911000D01*
X70227000Y56519000D01*
X79501995Y56519000D01*
X79502000Y56518999D01*
X79784484Y56575190D01*
X79840675Y56586367D01*
X79920774Y56639887D01*
X80157943Y56737883D01*
X80421192Y57000673D01*
X80563838Y57344201D01*
X80564162Y57716167D01*
X80481593Y57916000D01*
X109981995Y57916000D01*
X109982000Y57915999D01*
X110264484Y57972190D01*
X110320675Y57983367D01*
X110607790Y58175210D01*
X112295834Y59863255D01*
X112415943Y59912883D01*
X112679192Y60175673D01*
X112821838Y60519201D01*
X112822162Y60891167D01*
X112680117Y61234943D01*
X112417327Y61498192D01*
X112073799Y61640838D01*
X111701833Y61641162D01*
X111358057Y61499117D01*
X111094808Y61236327D01*
X111044434Y61115013D01*
X109615420Y59686000D01*
X73708107Y59686000D01*
X73944192Y59921673D01*
X74086838Y60265201D01*
X74087162Y60637167D01*
X73945117Y60980943D01*
X73682327Y61244192D01*
X73338799Y61386838D01*
X72966833Y61387162D01*
X72623057Y61245117D01*
X72537791Y61160000D01*
X70277234Y61160000D01*
X70036799Y61259838D01*
X69664833Y61260162D01*
X69321057Y61118117D01*
X69057808Y60855327D01*
X68915162Y60511799D01*
X68914838Y60139833D01*
X69056883Y59796057D01*
X69166748Y59686000D01*
X35612822Y59686000D01*
X35492799Y59735838D01*
X35120833Y59736162D01*
X34777057Y59594117D01*
X34513808Y59331327D01*
X34415439Y59094429D01*
X29927434Y63582434D01*
X29760242Y63694148D01*
X29656541Y63763439D01*
X29337000Y63827000D01*
X24535903Y63827000D01*
X24444501Y63963792D01*
X24581441Y64051910D01*
X24726431Y64264110D01*
X24777440Y64516000D01*
X24777440Y65532000D01*
X34892655Y65532000D01*
X35018330Y64900190D01*
X35245499Y64560208D01*
X35108559Y64472090D01*
X34963569Y64259890D01*
X34912560Y64008000D01*
X34912560Y61976000D01*
X34956838Y61740683D01*
X35095910Y61524559D01*
X35308110Y61379569D01*
X35560000Y61328560D01*
X37592000Y61328560D01*
X37827317Y61372838D01*
X38043441Y61511910D01*
X38188431Y61724110D01*
X38239440Y61976000D01*
X38239440Y64008000D01*
X38195162Y64243317D01*
X38056090Y64459441D01*
X37907163Y64561198D01*
X38133670Y64900190D01*
X38259345Y65532000D01*
X38133670Y66163810D01*
X37775778Y66699433D01*
X37622276Y66802000D01*
X60800655Y66802000D01*
X60926330Y66170190D01*
X61284222Y65634567D01*
X61819845Y65276675D01*
X62451655Y65151000D01*
X62516345Y65151000D01*
X63148155Y65276675D01*
X63683778Y65634567D01*
X64041670Y66170190D01*
X64167345Y66802000D01*
X64041670Y67433810D01*
X63814501Y67773792D01*
X63951441Y67861910D01*
X64096431Y68074110D01*
X64147440Y68326000D01*
X64147440Y69850000D01*
X67277655Y69850000D01*
X67403330Y69218190D01*
X67630499Y68878208D01*
X67493559Y68790090D01*
X67348569Y68577890D01*
X67297560Y68326000D01*
X67297560Y66294000D01*
X67341838Y66058683D01*
X67480910Y65842559D01*
X67693110Y65697569D01*
X67945000Y65646560D01*
X69977000Y65646560D01*
X70212317Y65690838D01*
X70428441Y65829910D01*
X70573431Y66042110D01*
X70624440Y66294000D01*
X70624440Y68326000D01*
X70580162Y68561317D01*
X70441090Y68777441D01*
X70292163Y68879198D01*
X70518670Y69218190D01*
X70644345Y69850000D01*
X70518670Y70481810D01*
X70160778Y71017433D01*
X69625155Y71375325D01*
X68993345Y71501000D01*
X68928655Y71501000D01*
X68296845Y71375325D01*
X67761222Y71017433D01*
X67403330Y70481810D01*
X67277655Y69850000D01*
X64147440Y69850000D01*
X64147440Y70358000D01*
X64103162Y70593317D01*
X63964090Y70809441D01*
X63751890Y70954431D01*
X63500000Y71005440D01*
X61468000Y71005440D01*
X61232683Y70961162D01*
X61016559Y70822090D01*
X60871569Y70609890D01*
X60820560Y70358000D01*
X60820560Y68326000D01*
X60864838Y68090683D01*
X61003910Y67874559D01*
X61152837Y67772802D01*
X60926330Y67433810D01*
X60800655Y66802000D01*
X37622276Y66802000D01*
X37240155Y67057325D01*
X36608345Y67183000D01*
X36543655Y67183000D01*
X35911845Y67057325D01*
X35376222Y66699433D01*
X35018330Y66163810D01*
X34892655Y65532000D01*
X24777440Y65532000D01*
X24777440Y66548000D01*
X24733162Y66783317D01*
X24594090Y66999441D01*
X24381890Y67144431D01*
X24130000Y67195440D01*
X22098000Y67195440D01*
X21862683Y67151162D01*
X21646559Y67012090D01*
X21501569Y66799890D01*
X21450560Y66548000D01*
X21450560Y64516000D01*
X21494838Y64280683D01*
X21633910Y64064559D01*
X21782837Y63962802D01*
X21556330Y63623810D01*
X21430655Y62992000D01*
X21556330Y62360190D01*
X21914222Y61824567D01*
X22449845Y61466675D01*
X23081655Y61341000D01*
X23146345Y61341000D01*
X23778155Y61466675D01*
X24313778Y61824567D01*
X24535903Y62157000D01*
X28991132Y62157000D01*
X34979000Y56169132D01*
X34979000Y51433464D01*
X34947327Y51465192D01*
X34603799Y51607838D01*
X34231833Y51608162D01*
X33888057Y51466117D01*
X33854882Y51433000D01*
X28889802Y51433000D01*
X20699000Y59623802D01*
X20699000Y60266833D01*
X21670838Y60266833D01*
X21812883Y59923057D01*
X22075673Y59659808D01*
X22419201Y59517162D01*
X22791167Y59516838D01*
X22912569Y59567000D01*
X28081420Y59567000D01*
X32341831Y55306590D01*
X32480883Y54970057D01*
X32743673Y54706808D01*
X33087201Y54564162D01*
X33459167Y54563838D01*
X33802943Y54705883D01*
X34066192Y54968673D01*
X34208838Y55312201D01*
X34209162Y55684167D01*
X34067117Y56027943D01*
X34013412Y56081742D01*
X33899790Y56251790D01*
X33899787Y56251792D01*
X29073790Y61077790D01*
X28950753Y61160000D01*
X28786675Y61269633D01*
X28699366Y61287000D01*
X28448000Y61337001D01*
X28447995Y61337000D01*
X22912822Y61337000D01*
X22792799Y61386838D01*
X22420833Y61387162D01*
X22077057Y61245117D01*
X21813808Y60982327D01*
X21671162Y60638799D01*
X21670838Y60266833D01*
X20699000Y60266833D01*
X20699000Y70739000D01*
X20641148Y71029839D01*
X20476401Y71276401D01*
X19096122Y72656680D01*
X19096162Y72702167D01*
X18954117Y73045943D01*
X18691327Y73309192D01*
X18347799Y73451838D01*
X17975833Y73452162D01*
X17632057Y73310117D01*
X17368808Y73047327D01*
X17226162Y72703799D01*
X17225838Y72331833D01*
X9902000Y72331833D01*
X9902000Y73293420D01*
X10780579Y74172000D01*
X60526178Y74172000D01*
X60646201Y74122162D01*
X61018167Y74121838D01*
X61361943Y74263883D01*
X61625192Y74526673D01*
X61767838Y74870201D01*
X61768162Y75242167D01*
X61626117Y75585943D01*
X61363327Y75849192D01*
X61019799Y75991838D01*
X60647833Y75992162D01*
X60526431Y75942000D01*
X10414000Y75942000D01*
X10075325Y75874633D01*
X9788210Y75682790D01*
X9788208Y75682787D01*
X8391210Y74285790D01*
X8199367Y73998675D01*
X8199367Y73998674D01*
X8131999Y73660000D01*
X1270000Y73660000D01*
X1270000Y80172787D01*
X91655392Y80172787D01*
X91724857Y79930603D01*
X92248302Y79743856D01*
X92803368Y79771638D01*
X93187143Y79930603D01*
X93256608Y80172787D01*
X96655392Y80172787D01*
X96724857Y79930603D01*
X97248302Y79743856D01*
X97803368Y79771638D01*
X98187143Y79930603D01*
X98256608Y80172787D01*
X104228392Y80172787D01*
X104297857Y79930603D01*
X104821302Y79743856D01*
X105376368Y79771638D01*
X105760143Y79930603D01*
X105829608Y80172787D01*
X109228392Y80172787D01*
X109297857Y79930603D01*
X109821302Y79743856D01*
X110376368Y79771638D01*
X110760143Y79930603D01*
X110829608Y80172787D01*
X110029000Y80973395D01*
X109228392Y80172787D01*
X105829608Y80172787D01*
X105029000Y80973395D01*
X104228392Y80172787D01*
X98256608Y80172787D01*
X97456000Y80973395D01*
X96655392Y80172787D01*
X93256608Y80172787D01*
X92456000Y80973395D01*
X91655392Y80172787D01*
X1270000Y80172787D01*
X1270000Y81360698D01*
X91046856Y81360698D01*
X91074638Y80805632D01*
X91233603Y80421857D01*
X91475787Y80352392D01*
X92276395Y81153000D01*
X92635605Y81153000D01*
X93436213Y80352392D01*
X93678397Y80421857D01*
X93865144Y80945302D01*
X93844353Y81360698D01*
X96046856Y81360698D01*
X96074638Y80805632D01*
X96233603Y80421857D01*
X96475787Y80352392D01*
X97276395Y81153000D01*
X97635605Y81153000D01*
X98436213Y80352392D01*
X98678397Y80421857D01*
X98865144Y80945302D01*
X98844353Y81360698D01*
X103619856Y81360698D01*
X103647638Y80805632D01*
X103806603Y80421857D01*
X104048787Y80352392D01*
X104849395Y81153000D01*
X105208605Y81153000D01*
X106009213Y80352392D01*
X106251397Y80421857D01*
X106438144Y80945302D01*
X106417353Y81360698D01*
X108619856Y81360698D01*
X108647638Y80805632D01*
X108806603Y80421857D01*
X109048787Y80352392D01*
X109849395Y81153000D01*
X110208605Y81153000D01*
X111009213Y80352392D01*
X111251397Y80421857D01*
X111438144Y80945302D01*
X111410362Y81500368D01*
X111251397Y81884143D01*
X111009213Y81953608D01*
X110208605Y81153000D01*
X109849395Y81153000D01*
X109048787Y81953608D01*
X108806603Y81884143D01*
X108619856Y81360698D01*
X106417353Y81360698D01*
X106410362Y81500368D01*
X106251397Y81884143D01*
X106009213Y81953608D01*
X105208605Y81153000D01*
X104849395Y81153000D01*
X104048787Y81953608D01*
X103806603Y81884143D01*
X103619856Y81360698D01*
X98844353Y81360698D01*
X98837362Y81500368D01*
X98678397Y81884143D01*
X98436213Y81953608D01*
X97635605Y81153000D01*
X97276395Y81153000D01*
X96475787Y81953608D01*
X96233603Y81884143D01*
X96046856Y81360698D01*
X93844353Y81360698D01*
X93837362Y81500368D01*
X93678397Y81884143D01*
X93436213Y81953608D01*
X92635605Y81153000D01*
X92276395Y81153000D01*
X91475787Y81953608D01*
X91233603Y81884143D01*
X91046856Y81360698D01*
X1270000Y81360698D01*
X1270000Y82133213D01*
X91655392Y82133213D01*
X92456000Y81332605D01*
X93256608Y82133213D01*
X96655392Y82133213D01*
X97456000Y81332605D01*
X98256608Y82133213D01*
X104228392Y82133213D01*
X105029000Y81332605D01*
X105829608Y82133213D01*
X109228392Y82133213D01*
X110029000Y81332605D01*
X110829608Y82133213D01*
X110760143Y82375397D01*
X110236698Y82562144D01*
X109681632Y82534362D01*
X109297857Y82375397D01*
X109228392Y82133213D01*
X105829608Y82133213D01*
X105760143Y82375397D01*
X105236698Y82562144D01*
X104681632Y82534362D01*
X104297857Y82375397D01*
X104228392Y82133213D01*
X98256608Y82133213D01*
X98187143Y82375397D01*
X97663698Y82562144D01*
X97108632Y82534362D01*
X96724857Y82375397D01*
X96655392Y82133213D01*
X93256608Y82133213D01*
X93187143Y82375397D01*
X92663698Y82562144D01*
X92108632Y82534362D01*
X91724857Y82375397D01*
X91655392Y82133213D01*
X1270000Y82133213D01*
X1270000Y83376339D01*
X93558758Y83376339D01*
X93770990Y82862697D01*
X94163630Y82469371D01*
X94676900Y82256243D01*
X95232661Y82255758D01*
X95746303Y82467990D01*
X96139629Y82860630D01*
X96352757Y83373900D01*
X96352759Y83376339D01*
X106131758Y83376339D01*
X106343990Y82862697D01*
X106736630Y82469371D01*
X107249900Y82256243D01*
X107805661Y82255758D01*
X108319303Y82467990D01*
X108712629Y82860630D01*
X108925757Y83373900D01*
X108926242Y83929661D01*
X108714010Y84443303D01*
X108321370Y84836629D01*
X107808100Y85049757D01*
X107252339Y85050242D01*
X106738697Y84838010D01*
X106345371Y84445370D01*
X106132243Y83932100D01*
X106131758Y83376339D01*
X96352759Y83376339D01*
X96353242Y83929661D01*
X96141010Y84443303D01*
X95748370Y84836629D01*
X95235100Y85049757D01*
X94679339Y85050242D01*
X94165697Y84838010D01*
X93772371Y84445370D01*
X93559243Y83932100D01*
X93558758Y83376339D01*
X1270000Y83376339D01*
X1270000Y87630000D01*
X13068560Y87630000D01*
X13068560Y85598000D01*
X13112838Y85362683D01*
X13251910Y85146559D01*
X13464110Y85001569D01*
X13716000Y84950560D01*
X15748000Y84950560D01*
X15983317Y84994838D01*
X16199441Y85133910D01*
X16226004Y85172787D01*
X91655392Y85172787D01*
X91724857Y84930603D01*
X92248302Y84743856D01*
X92803368Y84771638D01*
X93187143Y84930603D01*
X93256608Y85172787D01*
X96655392Y85172787D01*
X96724857Y84930603D01*
X97248302Y84743856D01*
X97803368Y84771638D01*
X98187143Y84930603D01*
X98256608Y85172787D01*
X104228392Y85172787D01*
X104297857Y84930603D01*
X104821302Y84743856D01*
X105376368Y84771638D01*
X105760143Y84930603D01*
X105829608Y85172787D01*
X109228392Y85172787D01*
X109297857Y84930603D01*
X109821302Y84743856D01*
X110376368Y84771638D01*
X110760143Y84930603D01*
X110829608Y85172787D01*
X110029000Y85973395D01*
X109228392Y85172787D01*
X105829608Y85172787D01*
X105029000Y85973395D01*
X104228392Y85172787D01*
X98256608Y85172787D01*
X97456000Y85973395D01*
X96655392Y85172787D01*
X93256608Y85172787D01*
X92456000Y85973395D01*
X91655392Y85172787D01*
X16226004Y85172787D01*
X16344431Y85346110D01*
X16395440Y85598000D01*
X16395440Y86360698D01*
X91046856Y86360698D01*
X91074638Y85805632D01*
X91233603Y85421857D01*
X91475787Y85352392D01*
X92276395Y86153000D01*
X92635605Y86153000D01*
X93436213Y85352392D01*
X93678397Y85421857D01*
X93865144Y85945302D01*
X93844353Y86360698D01*
X96046856Y86360698D01*
X96074638Y85805632D01*
X96233603Y85421857D01*
X96475787Y85352392D01*
X97276395Y86153000D01*
X97635605Y86153000D01*
X98436213Y85352392D01*
X98678397Y85421857D01*
X98865144Y85945302D01*
X98844353Y86360698D01*
X103619856Y86360698D01*
X103647638Y85805632D01*
X103806603Y85421857D01*
X104048787Y85352392D01*
X104849395Y86153000D01*
X105208605Y86153000D01*
X106009213Y85352392D01*
X106251397Y85421857D01*
X106438144Y85945302D01*
X106417353Y86360698D01*
X108619856Y86360698D01*
X108647638Y85805632D01*
X108806603Y85421857D01*
X109048787Y85352392D01*
X109849395Y86153000D01*
X110208605Y86153000D01*
X111009213Y85352392D01*
X111251397Y85421857D01*
X111438144Y85945302D01*
X111410362Y86500368D01*
X111251397Y86884143D01*
X111009213Y86953608D01*
X110208605Y86153000D01*
X109849395Y86153000D01*
X109048787Y86953608D01*
X108806603Y86884143D01*
X108619856Y86360698D01*
X106417353Y86360698D01*
X106410362Y86500368D01*
X106251397Y86884143D01*
X106009213Y86953608D01*
X105208605Y86153000D01*
X104849395Y86153000D01*
X104048787Y86953608D01*
X103806603Y86884143D01*
X103619856Y86360698D01*
X98844353Y86360698D01*
X98837362Y86500368D01*
X98678397Y86884143D01*
X98436213Y86953608D01*
X97635605Y86153000D01*
X97276395Y86153000D01*
X96475787Y86953608D01*
X96233603Y86884143D01*
X96046856Y86360698D01*
X93844353Y86360698D01*
X93837362Y86500368D01*
X93678397Y86884143D01*
X93436213Y86953608D01*
X92635605Y86153000D01*
X92276395Y86153000D01*
X91475787Y86953608D01*
X91233603Y86884143D01*
X91046856Y86360698D01*
X16395440Y86360698D01*
X16395440Y87133213D01*
X91655392Y87133213D01*
X92456000Y86332605D01*
X93256608Y87133213D01*
X96655392Y87133213D01*
X97456000Y86332605D01*
X98256608Y87133213D01*
X104228392Y87133213D01*
X105029000Y86332605D01*
X105829608Y87133213D01*
X109228392Y87133213D01*
X110029000Y86332605D01*
X110829608Y87133213D01*
X110760143Y87375397D01*
X110236698Y87562144D01*
X109681632Y87534362D01*
X109297857Y87375397D01*
X109228392Y87133213D01*
X105829608Y87133213D01*
X105760143Y87375397D01*
X105236698Y87562144D01*
X104681632Y87534362D01*
X104297857Y87375397D01*
X104228392Y87133213D01*
X98256608Y87133213D01*
X98187143Y87375397D01*
X97663698Y87562144D01*
X97108632Y87534362D01*
X96724857Y87375397D01*
X96655392Y87133213D01*
X93256608Y87133213D01*
X93187143Y87375397D01*
X92663698Y87562144D01*
X92108632Y87534362D01*
X91724857Y87375397D01*
X91655392Y87133213D01*
X16395440Y87133213D01*
X16395440Y87630000D01*
X16351162Y87865317D01*
X16212090Y88081441D01*
X16049052Y88192840D01*
X16138385Y88289182D01*
X16337975Y88771056D01*
X16218836Y89027000D01*
X14859000Y89027000D01*
X14859000Y89007000D01*
X14605000Y89007000D01*
X14605000Y89027000D01*
X13245164Y89027000D01*
X13126025Y88771056D01*
X13325615Y88289182D01*
X13416097Y88191602D01*
X13264559Y88094090D01*
X13119569Y87881890D01*
X13068560Y87630000D01*
X1270000Y87630000D01*
X1270000Y89407366D01*
X2085548Y88862435D01*
X3048000Y88670991D01*
X4010452Y88862435D01*
X4826380Y89407620D01*
X4912791Y89536944D01*
X13126025Y89536944D01*
X13245164Y89281000D01*
X14605000Y89281000D01*
X14605000Y90641367D01*
X14859000Y90641367D01*
X14859000Y89281000D01*
X16218836Y89281000D01*
X16337975Y89536944D01*
X16138385Y90018818D01*
X15700379Y90491188D01*
X15114946Y90759983D01*
X14859000Y90641367D01*
X14605000Y90641367D01*
X14349054Y90759983D01*
X13763621Y90491188D01*
X13325615Y90018818D01*
X13126025Y89536944D01*
X4912791Y89536944D01*
X5371565Y90223548D01*
X5563009Y91186000D01*
X5371565Y92148452D01*
X4826634Y92964000D01*
X111124366Y92964000D01*
X110579435Y92148452D01*
X110579435Y92148452D01*
G37*
X110579435Y92148452D02*
X110387991Y91186000D01*
X110579435Y90223548D01*
X111124620Y89407620D01*
X111940548Y88862435D01*
X112903000Y88670991D01*
X113865452Y88862435D01*
X114681000Y89407366D01*
X114681000Y4953634D01*
X113865452Y5498565D01*
X112903000Y5690009D01*
X111940548Y5498565D01*
X111124620Y4953380D01*
X110579435Y4137452D01*
X110387991Y3175000D01*
X110579435Y2212548D01*
X111124366Y1397000D01*
X4826634Y1397000D01*
X5371565Y2212548D01*
X5563009Y3175000D01*
X5371565Y4137452D01*
X4826380Y4953380D01*
X4010452Y5498565D01*
X3048000Y5690009D01*
X2085548Y5498565D01*
X1270000Y4953634D01*
X1270000Y10668000D01*
X4666655Y10668000D01*
X4792330Y10036190D01*
X5019499Y9696208D01*
X4882559Y9608090D01*
X4737569Y9395890D01*
X4686560Y9144000D01*
X4686560Y7112000D01*
X4730838Y6876683D01*
X4869910Y6660559D01*
X5082110Y6515569D01*
X5334000Y6464560D01*
X7366000Y6464560D01*
X7601317Y6508838D01*
X7817441Y6647910D01*
X7962431Y6860110D01*
X8013440Y7112000D01*
X8013440Y9144000D01*
X7969162Y9379317D01*
X7830090Y9595441D01*
X7681163Y9697198D01*
X7907670Y10036190D01*
X8033345Y10668000D01*
X7907670Y11299810D01*
X7549778Y11835433D01*
X7014155Y12193325D01*
X6382345Y12319000D01*
X6317655Y12319000D01*
X5685845Y12193325D01*
X5150222Y11835433D01*
X4792330Y11299810D01*
X4666655Y10668000D01*
X1270000Y10668000D01*
X1270000Y13462000D01*
X12540655Y13462000D01*
X12666330Y12830190D01*
X12893499Y12490208D01*
X12756559Y12402090D01*
X12611569Y12189890D01*
X12560560Y11938000D01*
X12560560Y9906000D01*
X12604838Y9670683D01*
X12743910Y9454559D01*
X12956110Y9309569D01*
X13208000Y9258560D01*
X15240000Y9258560D01*
X15475317Y9302838D01*
X15691441Y9441910D01*
X15836431Y9654110D01*
X15887440Y9906000D01*
X15887440Y11938000D01*
X15843162Y12173317D01*
X15704090Y12389441D01*
X15555163Y12491198D01*
X15781670Y12830190D01*
X15907345Y13462000D01*
X15781670Y14093810D01*
X15423778Y14629433D01*
X14888155Y14987325D01*
X14256345Y15113000D01*
X14191655Y15113000D01*
X13559845Y14987325D01*
X13024222Y14629433D01*
X12666330Y14093810D01*
X12540655Y13462000D01*
X1270000Y13462000D01*
X1270000Y26564974D01*
X4742642Y26564974D01*
X4745291Y26549209D01*
X4999268Y26021964D01*
X5435680Y25632046D01*
X5988087Y25438816D01*
X6223000Y25583076D01*
X6223000Y26797000D01*
X6477000Y26797000D01*
X6477000Y25583076D01*
X6711913Y25438816D01*
X7264320Y25632046D01*
X7700732Y26021964D01*
X7954709Y26549209D01*
X7957358Y26564974D01*
X7836217Y26797000D01*
X6477000Y26797000D01*
X6223000Y26797000D01*
X4863783Y26797000D01*
X4742642Y26564974D01*
X1270000Y26564974D01*
X1270000Y29464000D01*
X4666655Y29464000D01*
X4780729Y28890511D01*
X5105585Y28404330D01*
X5415069Y28197539D01*
X4999268Y27826036D01*
X4745291Y27298791D01*
X4742642Y27283026D01*
X4863783Y27051000D01*
X6223000Y27051000D01*
X6223000Y27071000D01*
X6477000Y27071000D01*
X6477000Y27051000D01*
X7836217Y27051000D01*
X7957358Y27283026D01*
X7954709Y27298791D01*
X7700732Y27826036D01*
X7284931Y28197539D01*
X7594415Y28404330D01*
X7919271Y28890511D01*
X8033345Y29464000D01*
X7919271Y30037489D01*
X7594415Y30523670D01*
X7580087Y30533243D01*
X7601317Y30537238D01*
X7817441Y30676310D01*
X7962431Y30888510D01*
X8013440Y31140400D01*
X8013440Y32867600D01*
X7969162Y33102917D01*
X7830090Y33319041D01*
X7617890Y33464031D01*
X7366000Y33515040D01*
X5334000Y33515040D01*
X5098683Y33470762D01*
X4882559Y33331690D01*
X4737569Y33119490D01*
X4686560Y32867600D01*
X4686560Y31140400D01*
X4730838Y30905083D01*
X4869910Y30688959D01*
X5082110Y30543969D01*
X5123439Y30535600D01*
X5105585Y30523670D01*
X4780729Y30037489D01*
X4666655Y29464000D01*
X1270000Y29464000D01*
X1270000Y52070000D01*
X4793655Y52070000D01*
X4919330Y51438190D01*
X5146499Y51098208D01*
X5009559Y51010090D01*
X4864569Y50797890D01*
X4813560Y50546000D01*
X4813560Y48514000D01*
X4857838Y48278683D01*
X4996910Y48062559D01*
X5209110Y47917569D01*
X5461000Y47866560D01*
X5592000Y47866560D01*
X5592000Y42545005D01*
X5591999Y42545000D01*
X5648190Y42262516D01*
X5659367Y42206325D01*
X5712887Y42126226D01*
X5810883Y41889057D01*
X6073673Y41625808D01*
X6417201Y41483162D01*
X6789167Y41482838D01*
X7132943Y41624883D01*
X7396192Y41887673D01*
X7538838Y42231201D01*
X7539162Y42603167D01*
X7397117Y42946943D01*
X7362000Y42982121D01*
X7362000Y47866560D01*
X7493000Y47866560D01*
X7728317Y47910838D01*
X7944441Y48049910D01*
X8089431Y48262110D01*
X8140440Y48514000D01*
X8140440Y50038000D01*
X16766000Y50038000D01*
X16766000Y6096000D01*
X16823852Y5805161D01*
X16988599Y5558599D01*
X20163599Y2383599D01*
X20410160Y2218852D01*
X20701000Y2161000D01*
X27123537Y2161000D01*
X27155673Y2128808D01*
X27499201Y1986162D01*
X27871167Y1985838D01*
X28214943Y2127883D01*
X28478192Y2390673D01*
X28620838Y2734201D01*
X28621162Y3106167D01*
X28479117Y3449943D01*
X28216327Y3713192D01*
X27872799Y3855838D01*
X27500833Y3856162D01*
X27157057Y3714117D01*
X27123882Y3681000D01*
X21015802Y3681000D01*
X19870802Y4826000D01*
X44192041Y4826000D01*
X44306115Y4252511D01*
X44630971Y3766330D01*
X45117152Y3441474D01*
X45690641Y3327400D01*
X45749359Y3327400D01*
X46322848Y3441474D01*
X46809029Y3766330D01*
X46990000Y4037172D01*
X47170971Y3766330D01*
X47657152Y3441474D01*
X48230641Y3327400D01*
X48289359Y3327400D01*
X48862848Y3441474D01*
X49349029Y3766330D01*
X49673885Y4252511D01*
X49787959Y4826000D01*
X49673885Y5399489D01*
X49349029Y5885670D01*
X49034248Y6096000D01*
X49349029Y6306330D01*
X49673885Y6792511D01*
X49787959Y7366000D01*
X49673885Y7939489D01*
X49349029Y8425670D01*
X48862848Y8750526D01*
X48289359Y8864600D01*
X48230641Y8864600D01*
X47657152Y8750526D01*
X47191558Y8439426D01*
X47186762Y8464917D01*
X47047690Y8681041D01*
X46835490Y8826031D01*
X46583600Y8877040D01*
X44856400Y8877040D01*
X44621083Y8832762D01*
X44404959Y8693690D01*
X44259969Y8481490D01*
X44208960Y8229600D01*
X44208960Y6502400D01*
X44253238Y6267083D01*
X44392310Y6050959D01*
X44604510Y5905969D01*
X44648131Y5897136D01*
X44630971Y5885670D01*
X44306115Y5399489D01*
X44192041Y4826000D01*
X19870802Y4826000D01*
X18286000Y6410802D01*
X18286000Y24667359D01*
X20472400Y24667359D01*
X20472400Y24608641D01*
X20586474Y24035152D01*
X20911330Y23548971D01*
X21182172Y23368000D01*
X20911330Y23187029D01*
X20586474Y22700848D01*
X20472400Y22127359D01*
X20472400Y22068641D01*
X20586474Y21495152D01*
X20911330Y21008971D01*
X21136000Y20858851D01*
X21136000Y20574000D01*
X21199561Y20254459D01*
X21380566Y19983566D01*
X24301566Y17062566D01*
X24572459Y16881561D01*
X24892000Y16818000D01*
X40212766Y16818000D01*
X40453201Y16718162D01*
X40825167Y16717838D01*
X41168943Y16859883D01*
X41432192Y17122673D01*
X41487156Y17255042D01*
X50118878Y8623320D01*
X50118838Y8577833D01*
X50260883Y8234057D01*
X50523673Y7970808D01*
X50867201Y7828162D01*
X51239167Y7827838D01*
X51582943Y7969883D01*
X51846192Y8232673D01*
X51988838Y8576201D01*
X51989162Y8948167D01*
X51847117Y9291943D01*
X51584327Y9555192D01*
X51240799Y9697838D01*
X51193923Y9697879D01*
X47741969Y13149833D01*
X48975838Y13149833D01*
X49117883Y12806057D01*
X49380673Y12542808D01*
X49724201Y12400162D01*
X49735690Y12400152D01*
X51642847Y10492995D01*
X51642838Y10482833D01*
X51784883Y10139057D01*
X52047673Y9875808D01*
X52391201Y9733162D01*
X52763167Y9732838D01*
X53106943Y9874883D01*
X53370192Y10137673D01*
X53512838Y10481201D01*
X53513162Y10853167D01*
X53371117Y11196943D01*
X53108327Y11460192D01*
X52764799Y11602838D01*
X52753310Y11602848D01*
X50846153Y13510005D01*
X50846162Y13520167D01*
X50704117Y13863943D01*
X50441327Y14127192D01*
X50097799Y14269838D01*
X49725833Y14270162D01*
X49382057Y14128117D01*
X49118808Y13865327D01*
X48976162Y13521799D01*
X48975838Y13149833D01*
X47741969Y13149833D01*
X40511000Y20380802D01*
X40511000Y32893000D01*
X40453148Y33183839D01*
X40453148Y33183840D01*
X40288401Y33430401D01*
X39587552Y34131250D01*
X46101000Y34131250D01*
X46101000Y33274690D01*
X46197673Y33041301D01*
X46376302Y32862673D01*
X46609691Y32766000D01*
X47466250Y32766000D01*
X47625000Y32924750D01*
X47625000Y34290000D01*
X47879000Y34290000D01*
X47879000Y32924750D01*
X48037750Y32766000D01*
X48894309Y32766000D01*
X49127698Y32862673D01*
X49306327Y33041301D01*
X49403000Y33274690D01*
X49403000Y34131250D01*
X49244250Y34290000D01*
X47879000Y34290000D01*
X47625000Y34290000D01*
X46259750Y34290000D01*
X46101000Y34131250D01*
X39587552Y34131250D01*
X26658794Y47060008D01*
X26574117Y47264943D01*
X26311327Y47528192D01*
X25967799Y47670838D01*
X25595833Y47671162D01*
X25252057Y47529117D01*
X24988808Y47266327D01*
X24846162Y46922799D01*
X24845838Y46550833D01*
X24987883Y46207057D01*
X25250673Y45943808D01*
X25594201Y45801162D01*
X25768188Y45801010D01*
X38991000Y32578198D01*
X38991000Y28486633D01*
X38667799Y28620838D01*
X38295833Y28621162D01*
X37952057Y28479117D01*
X37688808Y28216327D01*
X37657114Y28140000D01*
X23368000Y28140000D01*
X23048459Y28076439D01*
X22777566Y27895434D01*
X21380566Y26498434D01*
X21199561Y26227541D01*
X21136000Y25908000D01*
X21136000Y25877149D01*
X20911330Y25727029D01*
X20586474Y25240848D01*
X20472400Y24667359D01*
X18286000Y24667359D01*
X18286000Y49723198D01*
X18808790Y50245988D01*
X18981167Y50245838D01*
X19324943Y50387883D01*
X19588192Y50650673D01*
X19730838Y50994201D01*
X19731162Y51366167D01*
X19589117Y51709943D01*
X19326327Y51973192D01*
X18982799Y52115838D01*
X18610833Y52116162D01*
X18267057Y51974117D01*
X18003808Y51711327D01*
X17918087Y51504889D01*
X16988599Y50575401D01*
X16823852Y50328839D01*
X16766000Y50038000D01*
X8140440Y50038000D01*
X8140440Y50546000D01*
X8096162Y50781317D01*
X7957090Y50997441D01*
X7808163Y51099198D01*
X8034670Y51438190D01*
X8160345Y52070000D01*
X8034670Y52701810D01*
X7676778Y53237433D01*
X7141155Y53595325D01*
X6509345Y53721000D01*
X6444655Y53721000D01*
X5812845Y53595325D01*
X5277222Y53237433D01*
X4919330Y52701810D01*
X4793655Y52070000D01*
X1270000Y52070000D01*
X1270000Y73660000D01*
X8131999Y73660000D01*
X8132000Y73659995D01*
X8132000Y55372005D01*
X8131999Y55372000D01*
X8174105Y55160325D01*
X8199367Y55033325D01*
X8242566Y54968673D01*
X8391210Y54746210D01*
X10804208Y52333213D01*
X10804210Y52333210D01*
X11005071Y52199000D01*
X11091325Y52141367D01*
X11430000Y52074000D01*
X15254420Y52074000D01*
X15667255Y51661165D01*
X15716883Y51541057D01*
X15979673Y51277808D01*
X16323201Y51135162D01*
X16695167Y51134838D01*
X17038943Y51276883D01*
X17302192Y51539673D01*
X17444838Y51883201D01*
X17445162Y52255167D01*
X17303117Y52598943D01*
X17040327Y52862192D01*
X16919013Y52912566D01*
X16246790Y53584790D01*
X16231023Y53595325D01*
X15959675Y53776633D01*
X15903484Y53787810D01*
X15621000Y53844001D01*
X15620995Y53844000D01*
X11796579Y53844000D01*
X9902000Y55738580D01*
X9902000Y72331833D01*
X17225838Y72331833D01*
X17367883Y71988057D01*
X17630673Y71724808D01*
X17974201Y71582162D01*
X18021077Y71582121D01*
X19179000Y70424198D01*
X19179000Y64699802D01*
X19096122Y64782680D01*
X19096162Y64828167D01*
X18954117Y65171943D01*
X18691327Y65435192D01*
X18347799Y65577838D01*
X17975833Y65578162D01*
X17632057Y65436117D01*
X17368808Y65173327D01*
X17226162Y64829799D01*
X17225838Y64457833D01*
X17367883Y64114057D01*
X17630673Y63850808D01*
X17909000Y63735236D01*
X17909000Y59309000D01*
X17966852Y59018161D01*
X18131599Y58771599D01*
X27910599Y48992599D01*
X28157160Y48827852D01*
X28205414Y48818254D01*
X28448000Y48770000D01*
X32971995Y48770000D01*
X33087201Y48722162D01*
X33459167Y48721838D01*
X33802943Y48863883D01*
X34066192Y49126673D01*
X34208838Y49470201D01*
X34209079Y49746933D01*
X34230201Y49738162D01*
X34602167Y49737838D01*
X34945943Y49879883D01*
X34979000Y49912882D01*
X34979000Y49748868D01*
X34763667Y49533535D01*
X34523057Y49434117D01*
X34407309Y49318571D01*
X34387599Y49305401D01*
X34374544Y49285863D01*
X34259808Y49171327D01*
X34117162Y48827799D01*
X34116838Y48455833D01*
X34258883Y48112057D01*
X34521673Y47848808D01*
X34865201Y47706162D01*
X35237167Y47705838D01*
X35580943Y47847883D01*
X35844192Y48110673D01*
X35944778Y48352910D01*
X36404434Y48812566D01*
X36585440Y49083460D01*
X36649000Y49403000D01*
X36649000Y49725833D01*
X39450838Y49725833D01*
X39592883Y49382057D01*
X39855673Y49118808D01*
X40199201Y48976162D01*
X40246077Y48976121D01*
X41233957Y47988241D01*
X41080799Y48051838D01*
X40708833Y48052162D01*
X40365057Y47910117D01*
X40101808Y47647327D01*
X39959162Y47303799D01*
X39958838Y46931833D01*
X40100883Y46588057D01*
X40363673Y46324808D01*
X40707201Y46182162D01*
X40754077Y46182121D01*
X48529825Y38406373D01*
X48416155Y38482325D01*
X47784345Y38608000D01*
X47719655Y38608000D01*
X47087845Y38482325D01*
X46552222Y38124433D01*
X46194330Y37588810D01*
X46068655Y36957000D01*
X46194330Y36325190D01*
X46418966Y35988999D01*
X46376302Y35971327D01*
X46197673Y35792699D01*
X46101000Y35559310D01*
X46101000Y34702750D01*
X46259750Y34544000D01*
X47625000Y34544000D01*
X47625000Y34564000D01*
X47879000Y34564000D01*
X47879000Y34544000D01*
X49244250Y34544000D01*
X49403000Y34702750D01*
X49403000Y35559310D01*
X49306327Y35792699D01*
X49127698Y35971327D01*
X49085034Y35988999D01*
X49309670Y36325190D01*
X49435345Y36957000D01*
X49309670Y37588810D01*
X49233718Y37702480D01*
X50040000Y36896198D01*
X50040000Y15494000D01*
X50097852Y15203161D01*
X50262599Y14956599D01*
X51769878Y13449320D01*
X51769838Y13403833D01*
X51911883Y13060057D01*
X52174673Y12796808D01*
X52518201Y12654162D01*
X52890167Y12653838D01*
X53233943Y12795883D01*
X53497192Y13058673D01*
X53639838Y13402201D01*
X53640162Y13774167D01*
X53498117Y14117943D01*
X53235327Y14381192D01*
X52891799Y14523838D01*
X52844923Y14523879D01*
X51560000Y15808802D01*
X51560000Y24003000D01*
X73373655Y24003000D01*
X73499330Y23371190D01*
X73857222Y22835567D01*
X74392845Y22477675D01*
X75024655Y22352000D01*
X75089345Y22352000D01*
X75721155Y22477675D01*
X76256778Y22835567D01*
X76614670Y23371190D01*
X76740345Y24003000D01*
X76614670Y24634810D01*
X76387501Y24974792D01*
X76524441Y25062910D01*
X76669431Y25275110D01*
X76720440Y25527000D01*
X76720440Y27559000D01*
X76676162Y27794317D01*
X76537090Y28010441D01*
X76324890Y28155431D01*
X76073000Y28206440D01*
X74041000Y28206440D01*
X73805683Y28162162D01*
X73589559Y28023090D01*
X73444569Y27810890D01*
X73393560Y27559000D01*
X73393560Y25527000D01*
X73437838Y25291683D01*
X73576910Y25075559D01*
X73725837Y24973802D01*
X73499330Y24634810D01*
X73373655Y24003000D01*
X51560000Y24003000D01*
X51560000Y29845000D01*
X60185560Y29845000D01*
X60185560Y27813000D01*
X60229838Y27577683D01*
X60368910Y27361559D01*
X60581110Y27216569D01*
X60833000Y27165560D01*
X62865000Y27165560D01*
X63100317Y27209838D01*
X63316441Y27348910D01*
X63418198Y27497837D01*
X63757190Y27271330D01*
X64389000Y27145655D01*
X65020810Y27271330D01*
X65556433Y27629222D01*
X65914325Y28164845D01*
X66040000Y28796655D01*
X66040000Y28861345D01*
X65945387Y29337000D01*
X79937000Y29337000D01*
X79937000Y27432000D01*
X80000561Y27112459D01*
X80011849Y27095566D01*
X80181566Y26841566D01*
X81784465Y25238667D01*
X81883883Y24998057D01*
X82146673Y24734808D01*
X82490201Y24592162D01*
X82862167Y24591838D01*
X83205943Y24733883D01*
X83425255Y24952813D01*
X89193752Y24952813D01*
X89411757Y24425200D01*
X89815077Y24021176D01*
X90342309Y23802250D01*
X90913187Y23801752D01*
X91440800Y24019757D01*
X91844824Y24423077D01*
X92063750Y24950309D01*
X92064248Y25521187D01*
X91846243Y26048800D01*
X91442923Y26452824D01*
X90915691Y26671750D01*
X90344813Y26672248D01*
X89817200Y26454243D01*
X89413176Y26050923D01*
X89194250Y25523691D01*
X89193752Y24952813D01*
X83425255Y24952813D01*
X83469192Y24996673D01*
X83611838Y25340201D01*
X83612162Y25712167D01*
X83470117Y26055943D01*
X83207327Y26319192D01*
X82965090Y26419778D01*
X81607000Y27777868D01*
X81607000Y28991132D01*
X82514868Y29899000D01*
X86567936Y29899000D01*
X86567838Y29786833D01*
X86709883Y29443057D01*
X86972673Y29179808D01*
X86997728Y29169404D01*
X87928566Y28238566D01*
X88199459Y28057561D01*
X88519000Y27994000D01*
X95685000Y27994000D01*
X95685000Y9271000D01*
X95748561Y8951459D01*
X95882820Y8750526D01*
X95929566Y8680566D01*
X96770465Y7839667D01*
X96869883Y7599057D01*
X97132673Y7335808D01*
X97476201Y7193162D01*
X97848167Y7192838D01*
X98191943Y7334883D01*
X98455192Y7597673D01*
X98597838Y7941201D01*
X98598162Y8313167D01*
X98456117Y8656943D01*
X98193327Y8920192D01*
X97951090Y9020778D01*
X97355000Y9616868D01*
X97355000Y11052813D01*
X102863752Y11052813D01*
X103081757Y10525200D01*
X103485077Y10121176D01*
X104012309Y9902250D01*
X104583187Y9901752D01*
X105110800Y10119757D01*
X105514824Y10523077D01*
X105733750Y11050309D01*
X105734248Y11621187D01*
X105516243Y12148800D01*
X105112923Y12552824D01*
X104585691Y12771750D01*
X104014813Y12772248D01*
X103487200Y12554243D01*
X103083176Y12150923D01*
X102864250Y11623691D01*
X102863752Y11052813D01*
X97355000Y11052813D01*
X97355000Y27994000D01*
X98251766Y27994000D01*
X98492201Y27894162D01*
X98864167Y27893838D01*
X99207943Y28035883D01*
X99471192Y28298673D01*
X99613838Y28642201D01*
X99614162Y29014167D01*
X99472117Y29357943D01*
X99209327Y29621192D01*
X98972429Y29719561D01*
X99405868Y30153000D01*
X101680766Y30153000D01*
X101921201Y30053162D01*
X102293167Y30052838D01*
X102636943Y30194883D01*
X102900192Y30457673D01*
X103042838Y30801201D01*
X103043162Y31173167D01*
X102901117Y31516943D01*
X102638327Y31780192D01*
X102294799Y31922838D01*
X101922833Y31923162D01*
X101680422Y31823000D01*
X99060000Y31823000D01*
X98740459Y31759439D01*
X98469566Y31578434D01*
X97444132Y30553000D01*
X89499868Y30553000D01*
X88728434Y31324434D01*
X88457541Y31505439D01*
X88138000Y31569000D01*
X82169000Y31569000D01*
X81849459Y31505439D01*
X81578566Y31324434D01*
X80181566Y29927434D01*
X80000561Y29656541D01*
X79937000Y29337000D01*
X65945387Y29337000D01*
X65914325Y29493155D01*
X65556433Y30028778D01*
X65020810Y30386670D01*
X64389000Y30512345D01*
X63757190Y30386670D01*
X63417208Y30159501D01*
X63329090Y30296441D01*
X63116890Y30441431D01*
X62865000Y30492440D01*
X60833000Y30492440D01*
X60597683Y30448162D01*
X60381559Y30309090D01*
X60236569Y30096890D01*
X60185560Y29845000D01*
X51560000Y29845000D01*
X51560000Y37211000D01*
X51502148Y37501839D01*
X51337401Y37748401D01*
X41829122Y47256680D01*
X41829162Y47302167D01*
X41687117Y47645943D01*
X41655490Y47677626D01*
X41667414Y47675254D01*
X41910000Y47627000D01*
X46421198Y47627000D01*
X47214599Y46833599D01*
X47461161Y46668852D01*
X47752000Y46611000D01*
X49891738Y46611000D01*
X50091971Y46311330D01*
X50578152Y45986474D01*
X51151641Y45872400D01*
X51210359Y45872400D01*
X51783848Y45986474D01*
X52270029Y46311330D01*
X52451000Y46582172D01*
X52631971Y46311330D01*
X53118152Y45986474D01*
X53691641Y45872400D01*
X53750359Y45872400D01*
X54323848Y45986474D01*
X54810029Y46311330D01*
X55134885Y46797511D01*
X55248959Y47371000D01*
X55134885Y47944489D01*
X54810029Y48430670D01*
X54495248Y48641000D01*
X54810029Y48851330D01*
X55134885Y49337511D01*
X55248959Y49911000D01*
X55134885Y50484489D01*
X54810029Y50970670D01*
X54323848Y51295526D01*
X53750359Y51409600D01*
X53691641Y51409600D01*
X53118152Y51295526D01*
X52652558Y50984426D01*
X52647762Y51009917D01*
X52508690Y51226041D01*
X52296490Y51371031D01*
X52044600Y51422040D01*
X50317400Y51422040D01*
X50082083Y51377762D01*
X49865959Y51238690D01*
X49720969Y51026490D01*
X49669960Y50774600D01*
X49669960Y50671000D01*
X42599463Y50671000D01*
X42567327Y50703192D01*
X42223799Y50845838D01*
X41851833Y50846162D01*
X41508057Y50704117D01*
X41244808Y50441327D01*
X41211595Y50361341D01*
X41179117Y50439943D01*
X40916327Y50703192D01*
X40572799Y50845838D01*
X40200833Y50846162D01*
X39857057Y50704117D01*
X39593808Y50441327D01*
X39451162Y50097799D01*
X39450838Y49725833D01*
X36649000Y49725833D01*
X36649000Y56515000D01*
X36585439Y56834541D01*
X36404434Y57105434D01*
X35599336Y57910532D01*
X35612569Y57916000D01*
X61871421Y57916000D01*
X59958420Y56003000D01*
X55105040Y56003000D01*
X55105040Y56362600D01*
X55060762Y56597917D01*
X54921690Y56814041D01*
X54709490Y56959031D01*
X54457600Y57010040D01*
X52222400Y57010040D01*
X51987083Y56965762D01*
X51770959Y56826690D01*
X51625969Y56614490D01*
X51574960Y56362600D01*
X51574960Y54127400D01*
X51619238Y53892083D01*
X51758310Y53675959D01*
X51970510Y53530969D01*
X52222400Y53479960D01*
X54457600Y53479960D01*
X54692917Y53524238D01*
X54909041Y53663310D01*
X55054031Y53875510D01*
X55105040Y54127400D01*
X55105040Y54233000D01*
X58188420Y54233000D01*
X57032210Y53076790D01*
X56840367Y52789675D01*
X56840367Y52789674D01*
X56772999Y52451000D01*
X56773000Y52450995D01*
X56773000Y50725822D01*
X56723162Y50605799D01*
X56722838Y50233833D01*
X56864883Y49890057D01*
X57127673Y49626808D01*
X57471201Y49484162D01*
X57843167Y49483838D01*
X58186943Y49625883D01*
X58450192Y49888673D01*
X58592838Y50232201D01*
X58593162Y50604167D01*
X58543000Y50725569D01*
X58543000Y52084420D01*
X60950787Y54492208D01*
X60950790Y54492210D01*
X60950791Y54492211D01*
X62977579Y56519000D01*
X68457000Y56519000D01*
X68457000Y50023579D01*
X67409164Y48975744D01*
X67289057Y48926117D01*
X67025808Y48663327D01*
X66883162Y48319799D01*
X66882838Y47947833D01*
X67024883Y47604057D01*
X67287673Y47340808D01*
X67631201Y47198162D01*
X68003167Y47197838D01*
X68346943Y47339883D01*
X68457000Y47449748D01*
X68457000Y35037579D01*
X67790164Y34370744D01*
X67670057Y34321117D01*
X67406808Y34058327D01*
X67264162Y33714799D01*
X67263838Y33342833D01*
X67405883Y32999057D01*
X67668673Y32735808D01*
X68012201Y32593162D01*
X68384167Y32592838D01*
X68727943Y32734883D01*
X68991192Y32997673D01*
X69041566Y33118986D01*
X69967787Y34045208D01*
X69967790Y34045210D01*
X70159633Y34332325D01*
X70164905Y34358833D01*
X83265838Y34358833D01*
X83407883Y34015057D01*
X83670673Y33751808D01*
X84014201Y33609162D01*
X84386167Y33608838D01*
X84628578Y33709000D01*
X108986849Y33709000D01*
X109197673Y33497808D01*
X109541201Y33355162D01*
X109913167Y33354838D01*
X110256943Y33496883D01*
X110520192Y33759673D01*
X110662838Y34103201D01*
X110663162Y34475167D01*
X110521117Y34818943D01*
X110258327Y35082192D01*
X109952669Y35209113D01*
X109793541Y35315439D01*
X109474000Y35379000D01*
X84628234Y35379000D01*
X84387799Y35478838D01*
X84015833Y35479162D01*
X83672057Y35337117D01*
X83408808Y35074327D01*
X83266162Y34730799D01*
X83265838Y34358833D01*
X70164905Y34358833D01*
X70185594Y34462838D01*
X70227001Y34671000D01*
X70227000Y34671005D01*
X70227000Y49911000D01*
X72513041Y49911000D01*
X72627115Y49337511D01*
X72951971Y48851330D01*
X73266752Y48641000D01*
X72951971Y48430670D01*
X72627115Y47944489D01*
X72513041Y47371000D01*
X72627115Y46797511D01*
X72951971Y46311330D01*
X73438152Y45986474D01*
X74011641Y45872400D01*
X74070359Y45872400D01*
X74643848Y45986474D01*
X75109442Y46297574D01*
X75114238Y46272083D01*
X75253310Y46055959D01*
X75465510Y45910969D01*
X75717400Y45859960D01*
X77444600Y45859960D01*
X77679917Y45904238D01*
X77896041Y46043310D01*
X78041031Y46255510D01*
X78092040Y46507400D01*
X78092040Y48234600D01*
X78047762Y48469917D01*
X77908690Y48686041D01*
X77696490Y48831031D01*
X77652869Y48839864D01*
X77670029Y48851330D01*
X77994885Y49337511D01*
X78108959Y49911000D01*
X77994885Y50484489D01*
X77670029Y50970670D01*
X77183848Y51295526D01*
X76610359Y51409600D01*
X76551641Y51409600D01*
X75978152Y51295526D01*
X75491971Y50970670D01*
X75311000Y50699828D01*
X75130029Y50970670D01*
X74643848Y51295526D01*
X74070359Y51409600D01*
X74011641Y51409600D01*
X73438152Y51295526D01*
X72951971Y50970670D01*
X72627115Y50484489D01*
X72513041Y49911000D01*
X70227000Y49911000D01*
X70227000Y56519000D01*
X79501995Y56519000D01*
X79502000Y56518999D01*
X79784484Y56575190D01*
X79840675Y56586367D01*
X79920774Y56639887D01*
X80157943Y56737883D01*
X80421192Y57000673D01*
X80563838Y57344201D01*
X80564162Y57716167D01*
X80481593Y57916000D01*
X109981995Y57916000D01*
X109982000Y57915999D01*
X110264484Y57972190D01*
X110320675Y57983367D01*
X110607790Y58175210D01*
X112295834Y59863255D01*
X112415943Y59912883D01*
X112679192Y60175673D01*
X112821838Y60519201D01*
X112822162Y60891167D01*
X112680117Y61234943D01*
X112417327Y61498192D01*
X112073799Y61640838D01*
X111701833Y61641162D01*
X111358057Y61499117D01*
X111094808Y61236327D01*
X111044434Y61115013D01*
X109615420Y59686000D01*
X73708107Y59686000D01*
X73944192Y59921673D01*
X74086838Y60265201D01*
X74087162Y60637167D01*
X73945117Y60980943D01*
X73682327Y61244192D01*
X73338799Y61386838D01*
X72966833Y61387162D01*
X72623057Y61245117D01*
X72537791Y61160000D01*
X70277234Y61160000D01*
X70036799Y61259838D01*
X69664833Y61260162D01*
X69321057Y61118117D01*
X69057808Y60855327D01*
X68915162Y60511799D01*
X68914838Y60139833D01*
X69056883Y59796057D01*
X69166748Y59686000D01*
X35612822Y59686000D01*
X35492799Y59735838D01*
X35120833Y59736162D01*
X34777057Y59594117D01*
X34513808Y59331327D01*
X34415439Y59094429D01*
X29927434Y63582434D01*
X29760242Y63694148D01*
X29656541Y63763439D01*
X29337000Y63827000D01*
X24535903Y63827000D01*
X24444501Y63963792D01*
X24581441Y64051910D01*
X24726431Y64264110D01*
X24777440Y64516000D01*
X24777440Y65532000D01*
X34892655Y65532000D01*
X35018330Y64900190D01*
X35245499Y64560208D01*
X35108559Y64472090D01*
X34963569Y64259890D01*
X34912560Y64008000D01*
X34912560Y61976000D01*
X34956838Y61740683D01*
X35095910Y61524559D01*
X35308110Y61379569D01*
X35560000Y61328560D01*
X37592000Y61328560D01*
X37827317Y61372838D01*
X38043441Y61511910D01*
X38188431Y61724110D01*
X38239440Y61976000D01*
X38239440Y64008000D01*
X38195162Y64243317D01*
X38056090Y64459441D01*
X37907163Y64561198D01*
X38133670Y64900190D01*
X38259345Y65532000D01*
X38133670Y66163810D01*
X37775778Y66699433D01*
X37622276Y66802000D01*
X60800655Y66802000D01*
X60926330Y66170190D01*
X61284222Y65634567D01*
X61819845Y65276675D01*
X62451655Y65151000D01*
X62516345Y65151000D01*
X63148155Y65276675D01*
X63683778Y65634567D01*
X64041670Y66170190D01*
X64167345Y66802000D01*
X64041670Y67433810D01*
X63814501Y67773792D01*
X63951441Y67861910D01*
X64096431Y68074110D01*
X64147440Y68326000D01*
X64147440Y69850000D01*
X67277655Y69850000D01*
X67403330Y69218190D01*
X67630499Y68878208D01*
X67493559Y68790090D01*
X67348569Y68577890D01*
X67297560Y68326000D01*
X67297560Y66294000D01*
X67341838Y66058683D01*
X67480910Y65842559D01*
X67693110Y65697569D01*
X67945000Y65646560D01*
X69977000Y65646560D01*
X70212317Y65690838D01*
X70428441Y65829910D01*
X70573431Y66042110D01*
X70624440Y66294000D01*
X70624440Y68326000D01*
X70580162Y68561317D01*
X70441090Y68777441D01*
X70292163Y68879198D01*
X70518670Y69218190D01*
X70644345Y69850000D01*
X70518670Y70481810D01*
X70160778Y71017433D01*
X69625155Y71375325D01*
X68993345Y71501000D01*
X68928655Y71501000D01*
X68296845Y71375325D01*
X67761222Y71017433D01*
X67403330Y70481810D01*
X67277655Y69850000D01*
X64147440Y69850000D01*
X64147440Y70358000D01*
X64103162Y70593317D01*
X63964090Y70809441D01*
X63751890Y70954431D01*
X63500000Y71005440D01*
X61468000Y71005440D01*
X61232683Y70961162D01*
X61016559Y70822090D01*
X60871569Y70609890D01*
X60820560Y70358000D01*
X60820560Y68326000D01*
X60864838Y68090683D01*
X61003910Y67874559D01*
X61152837Y67772802D01*
X60926330Y67433810D01*
X60800655Y66802000D01*
X37622276Y66802000D01*
X37240155Y67057325D01*
X36608345Y67183000D01*
X36543655Y67183000D01*
X35911845Y67057325D01*
X35376222Y66699433D01*
X35018330Y66163810D01*
X34892655Y65532000D01*
X24777440Y65532000D01*
X24777440Y66548000D01*
X24733162Y66783317D01*
X24594090Y66999441D01*
X24381890Y67144431D01*
X24130000Y67195440D01*
X22098000Y67195440D01*
X21862683Y67151162D01*
X21646559Y67012090D01*
X21501569Y66799890D01*
X21450560Y66548000D01*
X21450560Y64516000D01*
X21494838Y64280683D01*
X21633910Y64064559D01*
X21782837Y63962802D01*
X21556330Y63623810D01*
X21430655Y62992000D01*
X21556330Y62360190D01*
X21914222Y61824567D01*
X22449845Y61466675D01*
X23081655Y61341000D01*
X23146345Y61341000D01*
X23778155Y61466675D01*
X24313778Y61824567D01*
X24535903Y62157000D01*
X28991132Y62157000D01*
X34979000Y56169132D01*
X34979000Y51433464D01*
X34947327Y51465192D01*
X34603799Y51607838D01*
X34231833Y51608162D01*
X33888057Y51466117D01*
X33854882Y51433000D01*
X28889802Y51433000D01*
X20699000Y59623802D01*
X20699000Y60266833D01*
X21670838Y60266833D01*
X21812883Y59923057D01*
X22075673Y59659808D01*
X22419201Y59517162D01*
X22791167Y59516838D01*
X22912569Y59567000D01*
X28081420Y59567000D01*
X32341831Y55306590D01*
X32480883Y54970057D01*
X32743673Y54706808D01*
X33087201Y54564162D01*
X33459167Y54563838D01*
X33802943Y54705883D01*
X34066192Y54968673D01*
X34208838Y55312201D01*
X34209162Y55684167D01*
X34067117Y56027943D01*
X34013412Y56081742D01*
X33899790Y56251790D01*
X33899787Y56251792D01*
X29073790Y61077790D01*
X28950753Y61160000D01*
X28786675Y61269633D01*
X28699366Y61287000D01*
X28448000Y61337001D01*
X28447995Y61337000D01*
X22912822Y61337000D01*
X22792799Y61386838D01*
X22420833Y61387162D01*
X22077057Y61245117D01*
X21813808Y60982327D01*
X21671162Y60638799D01*
X21670838Y60266833D01*
X20699000Y60266833D01*
X20699000Y70739000D01*
X20641148Y71029839D01*
X20476401Y71276401D01*
X19096122Y72656680D01*
X19096162Y72702167D01*
X18954117Y73045943D01*
X18691327Y73309192D01*
X18347799Y73451838D01*
X17975833Y73452162D01*
X17632057Y73310117D01*
X17368808Y73047327D01*
X17226162Y72703799D01*
X17225838Y72331833D01*
X9902000Y72331833D01*
X9902000Y73293420D01*
X10780579Y74172000D01*
X60526178Y74172000D01*
X60646201Y74122162D01*
X61018167Y74121838D01*
X61361943Y74263883D01*
X61625192Y74526673D01*
X61767838Y74870201D01*
X61768162Y75242167D01*
X61626117Y75585943D01*
X61363327Y75849192D01*
X61019799Y75991838D01*
X60647833Y75992162D01*
X60526431Y75942000D01*
X10414000Y75942000D01*
X10075325Y75874633D01*
X9788210Y75682790D01*
X9788208Y75682787D01*
X8391210Y74285790D01*
X8199367Y73998675D01*
X8199367Y73998674D01*
X8131999Y73660000D01*
X1270000Y73660000D01*
X1270000Y80172787D01*
X91655392Y80172787D01*
X91724857Y79930603D01*
X92248302Y79743856D01*
X92803368Y79771638D01*
X93187143Y79930603D01*
X93256608Y80172787D01*
X96655392Y80172787D01*
X96724857Y79930603D01*
X97248302Y79743856D01*
X97803368Y79771638D01*
X98187143Y79930603D01*
X98256608Y80172787D01*
X104228392Y80172787D01*
X104297857Y79930603D01*
X104821302Y79743856D01*
X105376368Y79771638D01*
X105760143Y79930603D01*
X105829608Y80172787D01*
X109228392Y80172787D01*
X109297857Y79930603D01*
X109821302Y79743856D01*
X110376368Y79771638D01*
X110760143Y79930603D01*
X110829608Y80172787D01*
X110029000Y80973395D01*
X109228392Y80172787D01*
X105829608Y80172787D01*
X105029000Y80973395D01*
X104228392Y80172787D01*
X98256608Y80172787D01*
X97456000Y80973395D01*
X96655392Y80172787D01*
X93256608Y80172787D01*
X92456000Y80973395D01*
X91655392Y80172787D01*
X1270000Y80172787D01*
X1270000Y81360698D01*
X91046856Y81360698D01*
X91074638Y80805632D01*
X91233603Y80421857D01*
X91475787Y80352392D01*
X92276395Y81153000D01*
X92635605Y81153000D01*
X93436213Y80352392D01*
X93678397Y80421857D01*
X93865144Y80945302D01*
X93844353Y81360698D01*
X96046856Y81360698D01*
X96074638Y80805632D01*
X96233603Y80421857D01*
X96475787Y80352392D01*
X97276395Y81153000D01*
X97635605Y81153000D01*
X98436213Y80352392D01*
X98678397Y80421857D01*
X98865144Y80945302D01*
X98844353Y81360698D01*
X103619856Y81360698D01*
X103647638Y80805632D01*
X103806603Y80421857D01*
X104048787Y80352392D01*
X104849395Y81153000D01*
X105208605Y81153000D01*
X106009213Y80352392D01*
X106251397Y80421857D01*
X106438144Y80945302D01*
X106417353Y81360698D01*
X108619856Y81360698D01*
X108647638Y80805632D01*
X108806603Y80421857D01*
X109048787Y80352392D01*
X109849395Y81153000D01*
X110208605Y81153000D01*
X111009213Y80352392D01*
X111251397Y80421857D01*
X111438144Y80945302D01*
X111410362Y81500368D01*
X111251397Y81884143D01*
X111009213Y81953608D01*
X110208605Y81153000D01*
X109849395Y81153000D01*
X109048787Y81953608D01*
X108806603Y81884143D01*
X108619856Y81360698D01*
X106417353Y81360698D01*
X106410362Y81500368D01*
X106251397Y81884143D01*
X106009213Y81953608D01*
X105208605Y81153000D01*
X104849395Y81153000D01*
X104048787Y81953608D01*
X103806603Y81884143D01*
X103619856Y81360698D01*
X98844353Y81360698D01*
X98837362Y81500368D01*
X98678397Y81884143D01*
X98436213Y81953608D01*
X97635605Y81153000D01*
X97276395Y81153000D01*
X96475787Y81953608D01*
X96233603Y81884143D01*
X96046856Y81360698D01*
X93844353Y81360698D01*
X93837362Y81500368D01*
X93678397Y81884143D01*
X93436213Y81953608D01*
X92635605Y81153000D01*
X92276395Y81153000D01*
X91475787Y81953608D01*
X91233603Y81884143D01*
X91046856Y81360698D01*
X1270000Y81360698D01*
X1270000Y82133213D01*
X91655392Y82133213D01*
X92456000Y81332605D01*
X93256608Y82133213D01*
X96655392Y82133213D01*
X97456000Y81332605D01*
X98256608Y82133213D01*
X104228392Y82133213D01*
X105029000Y81332605D01*
X105829608Y82133213D01*
X109228392Y82133213D01*
X110029000Y81332605D01*
X110829608Y82133213D01*
X110760143Y82375397D01*
X110236698Y82562144D01*
X109681632Y82534362D01*
X109297857Y82375397D01*
X109228392Y82133213D01*
X105829608Y82133213D01*
X105760143Y82375397D01*
X105236698Y82562144D01*
X104681632Y82534362D01*
X104297857Y82375397D01*
X104228392Y82133213D01*
X98256608Y82133213D01*
X98187143Y82375397D01*
X97663698Y82562144D01*
X97108632Y82534362D01*
X96724857Y82375397D01*
X96655392Y82133213D01*
X93256608Y82133213D01*
X93187143Y82375397D01*
X92663698Y82562144D01*
X92108632Y82534362D01*
X91724857Y82375397D01*
X91655392Y82133213D01*
X1270000Y82133213D01*
X1270000Y83376339D01*
X93558758Y83376339D01*
X93770990Y82862697D01*
X94163630Y82469371D01*
X94676900Y82256243D01*
X95232661Y82255758D01*
X95746303Y82467990D01*
X96139629Y82860630D01*
X96352757Y83373900D01*
X96352759Y83376339D01*
X106131758Y83376339D01*
X106343990Y82862697D01*
X106736630Y82469371D01*
X107249900Y82256243D01*
X107805661Y82255758D01*
X108319303Y82467990D01*
X108712629Y82860630D01*
X108925757Y83373900D01*
X108926242Y83929661D01*
X108714010Y84443303D01*
X108321370Y84836629D01*
X107808100Y85049757D01*
X107252339Y85050242D01*
X106738697Y84838010D01*
X106345371Y84445370D01*
X106132243Y83932100D01*
X106131758Y83376339D01*
X96352759Y83376339D01*
X96353242Y83929661D01*
X96141010Y84443303D01*
X95748370Y84836629D01*
X95235100Y85049757D01*
X94679339Y85050242D01*
X94165697Y84838010D01*
X93772371Y84445370D01*
X93559243Y83932100D01*
X93558758Y83376339D01*
X1270000Y83376339D01*
X1270000Y87630000D01*
X13068560Y87630000D01*
X13068560Y85598000D01*
X13112838Y85362683D01*
X13251910Y85146559D01*
X13464110Y85001569D01*
X13716000Y84950560D01*
X15748000Y84950560D01*
X15983317Y84994838D01*
X16199441Y85133910D01*
X16226004Y85172787D01*
X91655392Y85172787D01*
X91724857Y84930603D01*
X92248302Y84743856D01*
X92803368Y84771638D01*
X93187143Y84930603D01*
X93256608Y85172787D01*
X96655392Y85172787D01*
X96724857Y84930603D01*
X97248302Y84743856D01*
X97803368Y84771638D01*
X98187143Y84930603D01*
X98256608Y85172787D01*
X104228392Y85172787D01*
X104297857Y84930603D01*
X104821302Y84743856D01*
X105376368Y84771638D01*
X105760143Y84930603D01*
X105829608Y85172787D01*
X109228392Y85172787D01*
X109297857Y84930603D01*
X109821302Y84743856D01*
X110376368Y84771638D01*
X110760143Y84930603D01*
X110829608Y85172787D01*
X110029000Y85973395D01*
X109228392Y85172787D01*
X105829608Y85172787D01*
X105029000Y85973395D01*
X104228392Y85172787D01*
X98256608Y85172787D01*
X97456000Y85973395D01*
X96655392Y85172787D01*
X93256608Y85172787D01*
X92456000Y85973395D01*
X91655392Y85172787D01*
X16226004Y85172787D01*
X16344431Y85346110D01*
X16395440Y85598000D01*
X16395440Y86360698D01*
X91046856Y86360698D01*
X91074638Y85805632D01*
X91233603Y85421857D01*
X91475787Y85352392D01*
X92276395Y86153000D01*
X92635605Y86153000D01*
X93436213Y85352392D01*
X93678397Y85421857D01*
X93865144Y85945302D01*
X93844353Y86360698D01*
X96046856Y86360698D01*
X96074638Y85805632D01*
X96233603Y85421857D01*
X96475787Y85352392D01*
X97276395Y86153000D01*
X97635605Y86153000D01*
X98436213Y85352392D01*
X98678397Y85421857D01*
X98865144Y85945302D01*
X98844353Y86360698D01*
X103619856Y86360698D01*
X103647638Y85805632D01*
X103806603Y85421857D01*
X104048787Y85352392D01*
X104849395Y86153000D01*
X105208605Y86153000D01*
X106009213Y85352392D01*
X106251397Y85421857D01*
X106438144Y85945302D01*
X106417353Y86360698D01*
X108619856Y86360698D01*
X108647638Y85805632D01*
X108806603Y85421857D01*
X109048787Y85352392D01*
X109849395Y86153000D01*
X110208605Y86153000D01*
X111009213Y85352392D01*
X111251397Y85421857D01*
X111438144Y85945302D01*
X111410362Y86500368D01*
X111251397Y86884143D01*
X111009213Y86953608D01*
X110208605Y86153000D01*
X109849395Y86153000D01*
X109048787Y86953608D01*
X108806603Y86884143D01*
X108619856Y86360698D01*
X106417353Y86360698D01*
X106410362Y86500368D01*
X106251397Y86884143D01*
X106009213Y86953608D01*
X105208605Y86153000D01*
X104849395Y86153000D01*
X104048787Y86953608D01*
X103806603Y86884143D01*
X103619856Y86360698D01*
X98844353Y86360698D01*
X98837362Y86500368D01*
X98678397Y86884143D01*
X98436213Y86953608D01*
X97635605Y86153000D01*
X97276395Y86153000D01*
X96475787Y86953608D01*
X96233603Y86884143D01*
X96046856Y86360698D01*
X93844353Y86360698D01*
X93837362Y86500368D01*
X93678397Y86884143D01*
X93436213Y86953608D01*
X92635605Y86153000D01*
X92276395Y86153000D01*
X91475787Y86953608D01*
X91233603Y86884143D01*
X91046856Y86360698D01*
X16395440Y86360698D01*
X16395440Y87133213D01*
X91655392Y87133213D01*
X92456000Y86332605D01*
X93256608Y87133213D01*
X96655392Y87133213D01*
X97456000Y86332605D01*
X98256608Y87133213D01*
X104228392Y87133213D01*
X105029000Y86332605D01*
X105829608Y87133213D01*
X109228392Y87133213D01*
X110029000Y86332605D01*
X110829608Y87133213D01*
X110760143Y87375397D01*
X110236698Y87562144D01*
X109681632Y87534362D01*
X109297857Y87375397D01*
X109228392Y87133213D01*
X105829608Y87133213D01*
X105760143Y87375397D01*
X105236698Y87562144D01*
X104681632Y87534362D01*
X104297857Y87375397D01*
X104228392Y87133213D01*
X98256608Y87133213D01*
X98187143Y87375397D01*
X97663698Y87562144D01*
X97108632Y87534362D01*
X96724857Y87375397D01*
X96655392Y87133213D01*
X93256608Y87133213D01*
X93187143Y87375397D01*
X92663698Y87562144D01*
X92108632Y87534362D01*
X91724857Y87375397D01*
X91655392Y87133213D01*
X16395440Y87133213D01*
X16395440Y87630000D01*
X16351162Y87865317D01*
X16212090Y88081441D01*
X16049052Y88192840D01*
X16138385Y88289182D01*
X16337975Y88771056D01*
X16218836Y89027000D01*
X14859000Y89027000D01*
X14859000Y89007000D01*
X14605000Y89007000D01*
X14605000Y89027000D01*
X13245164Y89027000D01*
X13126025Y88771056D01*
X13325615Y88289182D01*
X13416097Y88191602D01*
X13264559Y88094090D01*
X13119569Y87881890D01*
X13068560Y87630000D01*
X1270000Y87630000D01*
X1270000Y89407366D01*
X2085548Y88862435D01*
X3048000Y88670991D01*
X4010452Y88862435D01*
X4826380Y89407620D01*
X4912791Y89536944D01*
X13126025Y89536944D01*
X13245164Y89281000D01*
X14605000Y89281000D01*
X14605000Y90641367D01*
X14859000Y90641367D01*
X14859000Y89281000D01*
X16218836Y89281000D01*
X16337975Y89536944D01*
X16138385Y90018818D01*
X15700379Y90491188D01*
X15114946Y90759983D01*
X14859000Y90641367D01*
X14605000Y90641367D01*
X14349054Y90759983D01*
X13763621Y90491188D01*
X13325615Y90018818D01*
X13126025Y89536944D01*
X4912791Y89536944D01*
X5371565Y90223548D01*
X5563009Y91186000D01*
X5371565Y92148452D01*
X4826634Y92964000D01*
X111124366Y92964000D01*
X110579435Y92148452D01*
G36*
X38991000Y20066000D02*
X39048852Y19775161D01*
X39213599Y19528599D01*
X40241983Y18500215D01*
X40212422Y18488000D01*
X25237868Y18488000D01*
X22842577Y20883291D01*
X23030670Y21008971D01*
X23246664Y21332228D01*
X23304179Y21209510D01*
X23736053Y20815312D01*
X24151974Y20643042D01*
X24384000Y20764183D01*
X24384000Y21971000D01*
X24364000Y21971000D01*
X24364000Y22225000D01*
X24384000Y22225000D01*
X24384000Y24511000D01*
X24364000Y24511000D01*
X24364000Y24765000D01*
X24384000Y24765000D01*
X24384000Y25971817D01*
X24638000Y25971817D01*
X24638000Y24765000D01*
X24658000Y24765000D01*
X24658000Y24511000D01*
X24638000Y24511000D01*
X24638000Y22225000D01*
X24658000Y22225000D01*
X24658000Y21971000D01*
X24638000Y21971000D01*
X24638000Y20764183D01*
X24870026Y20643042D01*
X25285947Y20815312D01*
X25717821Y21209510D01*
X25775336Y21332228D01*
X25991330Y21008971D01*
X26477511Y20684115D01*
X27051000Y20570041D01*
X27624489Y20684115D01*
X28110670Y21008971D01*
X28321000Y21323752D01*
X28531330Y21008971D01*
X29017511Y20684115D01*
X29591000Y20570041D01*
X30164489Y20684115D01*
X30650670Y21008971D01*
X30861000Y21323752D01*
X31071330Y21008971D01*
X31557511Y20684115D01*
X32131000Y20570041D01*
X32704489Y20684115D01*
X33190670Y21008971D01*
X33401000Y21323752D01*
X33611330Y21008971D01*
X34097511Y20684115D01*
X34671000Y20570041D01*
X35244489Y20684115D01*
X35730670Y21008971D01*
X35941000Y21323752D01*
X36151330Y21008971D01*
X36637511Y20684115D01*
X37211000Y20570041D01*
X37784489Y20684115D01*
X38270670Y21008971D01*
X38595526Y21495152D01*
X38709600Y22068641D01*
X38709600Y22127359D01*
X38595526Y22700848D01*
X38284426Y23166442D01*
X38309917Y23171238D01*
X38526041Y23310310D01*
X38671031Y23522510D01*
X38722040Y23774400D01*
X38722040Y25501600D01*
X38677762Y25736917D01*
X38538690Y25953041D01*
X38326490Y26098031D01*
X38074600Y26149040D01*
X36347400Y26149040D01*
X36112083Y26104762D01*
X35895959Y25965690D01*
X35750969Y25753490D01*
X35742136Y25709869D01*
X35730670Y25727029D01*
X35244489Y26051885D01*
X34671000Y26165959D01*
X34097511Y26051885D01*
X33611330Y25727029D01*
X33401000Y25412248D01*
X33190670Y25727029D01*
X32704489Y26051885D01*
X32131000Y26165959D01*
X31557511Y26051885D01*
X31071330Y25727029D01*
X30861000Y25412248D01*
X30650670Y25727029D01*
X30164489Y26051885D01*
X29591000Y26165959D01*
X29017511Y26051885D01*
X28531330Y25727029D01*
X28321000Y25412248D01*
X28110670Y25727029D01*
X27624489Y26051885D01*
X27051000Y26165959D01*
X26477511Y26051885D01*
X25991330Y25727029D01*
X25775336Y25403772D01*
X25717821Y25526490D01*
X25285947Y25920688D01*
X24870026Y26092958D01*
X24638000Y25971817D01*
X24384000Y25971817D01*
X24151974Y26092958D01*
X23736053Y25920688D01*
X23304179Y25526490D01*
X23246664Y25403772D01*
X23030670Y25727029D01*
X22994839Y25750971D01*
X23713868Y26470000D01*
X38100000Y26470000D01*
X38419541Y26533561D01*
X38690434Y26714566D01*
X38769333Y26793465D01*
X38991000Y26885056D01*
X38991000Y20066000D01*
X38991000Y20066000D01*
G37*
X38991000Y20066000D02*
X39048852Y19775161D01*
X39213599Y19528599D01*
X40241983Y18500215D01*
X40212422Y18488000D01*
X25237868Y18488000D01*
X22842577Y20883291D01*
X23030670Y21008971D01*
X23246664Y21332228D01*
X23304179Y21209510D01*
X23736053Y20815312D01*
X24151974Y20643042D01*
X24384000Y20764183D01*
X24384000Y21971000D01*
X24364000Y21971000D01*
X24364000Y22225000D01*
X24384000Y22225000D01*
X24384000Y24511000D01*
X24364000Y24511000D01*
X24364000Y24765000D01*
X24384000Y24765000D01*
X24384000Y25971817D01*
X24638000Y25971817D01*
X24638000Y24765000D01*
X24658000Y24765000D01*
X24658000Y24511000D01*
X24638000Y24511000D01*
X24638000Y22225000D01*
X24658000Y22225000D01*
X24658000Y21971000D01*
X24638000Y21971000D01*
X24638000Y20764183D01*
X24870026Y20643042D01*
X25285947Y20815312D01*
X25717821Y21209510D01*
X25775336Y21332228D01*
X25991330Y21008971D01*
X26477511Y20684115D01*
X27051000Y20570041D01*
X27624489Y20684115D01*
X28110670Y21008971D01*
X28321000Y21323752D01*
X28531330Y21008971D01*
X29017511Y20684115D01*
X29591000Y20570041D01*
X30164489Y20684115D01*
X30650670Y21008971D01*
X30861000Y21323752D01*
X31071330Y21008971D01*
X31557511Y20684115D01*
X32131000Y20570041D01*
X32704489Y20684115D01*
X33190670Y21008971D01*
X33401000Y21323752D01*
X33611330Y21008971D01*
X34097511Y20684115D01*
X34671000Y20570041D01*
X35244489Y20684115D01*
X35730670Y21008971D01*
X35941000Y21323752D01*
X36151330Y21008971D01*
X36637511Y20684115D01*
X37211000Y20570041D01*
X37784489Y20684115D01*
X38270670Y21008971D01*
X38595526Y21495152D01*
X38709600Y22068641D01*
X38709600Y22127359D01*
X38595526Y22700848D01*
X38284426Y23166442D01*
X38309917Y23171238D01*
X38526041Y23310310D01*
X38671031Y23522510D01*
X38722040Y23774400D01*
X38722040Y25501600D01*
X38677762Y25736917D01*
X38538690Y25953041D01*
X38326490Y26098031D01*
X38074600Y26149040D01*
X36347400Y26149040D01*
X36112083Y26104762D01*
X35895959Y25965690D01*
X35750969Y25753490D01*
X35742136Y25709869D01*
X35730670Y25727029D01*
X35244489Y26051885D01*
X34671000Y26165959D01*
X34097511Y26051885D01*
X33611330Y25727029D01*
X33401000Y25412248D01*
X33190670Y25727029D01*
X32704489Y26051885D01*
X32131000Y26165959D01*
X31557511Y26051885D01*
X31071330Y25727029D01*
X30861000Y25412248D01*
X30650670Y25727029D01*
X30164489Y26051885D01*
X29591000Y26165959D01*
X29017511Y26051885D01*
X28531330Y25727029D01*
X28321000Y25412248D01*
X28110670Y25727029D01*
X27624489Y26051885D01*
X27051000Y26165959D01*
X26477511Y26051885D01*
X25991330Y25727029D01*
X25775336Y25403772D01*
X25717821Y25526490D01*
X25285947Y25920688D01*
X24870026Y26092958D01*
X24638000Y25971817D01*
X24384000Y25971817D01*
X24151974Y26092958D01*
X23736053Y25920688D01*
X23304179Y25526490D01*
X23246664Y25403772D01*
X23030670Y25727029D01*
X22994839Y25750971D01*
X23713868Y26470000D01*
X38100000Y26470000D01*
X38419541Y26533561D01*
X38690434Y26714566D01*
X38769333Y26793465D01*
X38991000Y26885056D01*
X38991000Y20066000D01*
M02*
