M48
;DRILL file {KiCad 4.0.2+dfsg1-stable} date mer. 09 mai 2018 22:27:43 CEST
;FORMAT={-:-/ absolute / inch / decimal}
FMAT,2
INCH,TZ
T1C0.016
T2C0.039
T3C0.040
%
G90
G05
M72
T1
X3.88Y-4.
X4.27Y-3.62
X4.335Y-2.815
X4.335Y-3.125
X4.36Y-3.655
X4.51Y-3.29
X4.635Y-3.83
X4.71Y-5.555
X4.73Y-4.1
X4.93Y-3.485
X4.93Y-3.715
X4.975Y-3.675
X5.Y-3.755
X5.01Y-3.355
X5.135Y-4.58
X5.21Y-3.705
X5.22Y-4.975
X5.23Y-3.815
X5.26Y-3.245
X5.275Y-3.705
X5.585Y-5.145
X5.63Y-5.325
X5.69Y-5.25
X5.695Y-5.135
X5.82Y-3.245
X5.89Y-3.685
X6.015Y-2.715
X6.035Y-5.57
X6.29Y-3.775
X6.305Y-4.35
X6.37Y-3.295
X6.5Y-3.29
X6.73Y-3.015
X6.755Y-3.405
X6.805Y-4.33
X6.875Y-4.665
X6.935Y-4.31
X7.065Y-4.49
X7.22Y-3.795
X7.36Y-4.42
X7.465Y-5.35
X7.475Y-3.13
X7.505Y-4.535
X7.64Y-4.45
X7.745Y-3.765
X7.785Y-3.685
X7.94Y-4.32
X8.025Y-3.28
T2
X7.26Y-2.2781
X7.26Y-2.475
X7.3584Y-2.3766
X7.4569Y-2.2781
X7.4569Y-2.475
X7.755Y-2.2781
X7.755Y-2.475
X7.8534Y-2.3766
X7.9519Y-2.2781
X7.9519Y-2.475
T3
X3.87Y-4.41
X3.87Y-4.51
X3.87Y-4.61
X3.87Y-5.25
X3.87Y-5.35
X3.875Y-3.62
X3.875Y-3.72
X4.18Y-5.14
X4.18Y-5.24
X4.2Y-2.16
X4.2Y-2.26
X4.485Y-4.7
X4.485Y-4.8
X4.53Y-3.09
X4.53Y-3.19
X4.585Y-4.7
X4.585Y-4.8
X4.685Y-4.7
X4.685Y-4.8
X4.785Y-4.7
X4.785Y-4.8
X4.885Y-4.7
X4.885Y-4.8
X4.985Y-4.7
X4.985Y-4.8
X5.06Y-3.09
X5.06Y-3.19
X5.085Y-4.7
X5.085Y-4.8
X5.42Y-5.38
X5.42Y-5.48
X5.5Y-4.215
X5.5Y-4.315
X5.52Y-5.38
X5.52Y-5.48
X5.635Y-3.705
X5.635Y-3.805
X5.72Y-3.495
X5.735Y-3.705
X5.735Y-3.805
X6.055Y-4.535
X6.08Y-2.94
X6.08Y-3.04
X6.155Y-4.535
X6.335Y-2.92
X6.335Y-3.02
X6.535Y-3.705
X6.535Y-3.805
X6.575Y-4.625
X6.575Y-4.725
X6.635Y-3.705
X6.635Y-3.805
T0
M30
