%TF.GenerationSoftware,KiCad,Pcbnew,4.0.2+dfsg1-stable*%
%TF.CreationDate,2018-05-09T22:27:37+02:00*%
%TF.ProjectId,hermas_box,6865726D61735F626F782E6B69636164,rev?*%
%TF.FileFunction,Soldermask,Top*%
%FSLAX46Y46*%
G04 Gerber Fmt 4.6, Leading zero omitted, Abs format (unit mm)*
G04 Created by KiCad (PCBNEW 4.0.2+dfsg1-stable) date mer. 09 mai 2018 22:27:37 CEST*
%MOMM*%
G01*
G04 APERTURE LIST*
%ADD10C,0.100000*%
%ADD11C,0.150000*%
%ADD12R,0.680000X1.900000*%
%ADD13R,1.900000X0.680000*%
%ADD14C,1.924000*%
%ADD15R,1.200100X1.200100*%
%ADD16R,1.300000X2.100000*%
%ADD17C,2.000000*%
%ADD18R,1.400000X1.700000*%
%ADD19R,1.400000X2.000000*%
%ADD20R,2.000000X1.400000*%
%ADD21R,2.000200X4.400500*%
%ADD22R,2.800300X4.400500*%
%ADD23R,2.000200X3.000960*%
%ADD24R,1.997660X2.200860*%
%ADD25R,1.460000X1.050000*%
%ADD26R,1.500000X5.000000*%
%ADD27R,11.200000X9.800000*%
%ADD28R,2.432000X2.432000*%
%ADD29O,2.432000X2.432000*%
%ADD30R,2.432000X2.127200*%
%ADD31O,2.432000X2.127200*%
%ADD32R,2.127200X2.127200*%
%ADD33O,2.127200X2.127200*%
%ADD34R,2.100000X1.300000*%
%ADD35O,0.900000X1.924000*%
%ADD36O,1.924000X0.900000*%
%ADD37C,0.900000*%
%ADD38R,1.850000X0.850000*%
%ADD39R,1.950000X1.000000*%
%ADD40R,6.000700X2.500580*%
%ADD41R,2.500580X6.000700*%
%ADD42R,2.635200X2.635200*%
G04 APERTURE END LIST*
D10*
D11*
X114708009Y91186000D02*
G75*
G03X114708009Y91186000I-1805009J0D01*
G01*
X114708009Y3175000D02*
G75*
G03X114708009Y3175000I-1805009J0D01*
G01*
X4853009Y3175000D02*
G75*
G03X4853009Y3175000I-1805009J0D01*
G01*
X4853009Y91186000D02*
G75*
G03X4853009Y91186000I-1805009J0D01*
G01*
X0Y94361000D02*
X116078000Y94361000D01*
X0Y94234000D02*
X0Y94361000D01*
X0Y94107000D02*
X0Y94234000D01*
X0Y0D02*
X0Y94107000D01*
X116078000Y0D02*
X0Y0D01*
X116078000Y94361000D02*
X116078000Y0D01*
D12*
X23464000Y37312000D03*
X23964000Y37312000D03*
X24464000Y37312000D03*
X24964000Y37312000D03*
X25464000Y37312000D03*
X25964000Y37312000D03*
X26464000Y37312000D03*
X26964000Y37312000D03*
X27464000Y37312000D03*
X27964000Y37312000D03*
X28464000Y37312000D03*
X28964000Y37312000D03*
X29464000Y37312000D03*
X29964000Y37312000D03*
X30464000Y37312000D03*
X30964000Y37312000D03*
X31464000Y37312000D03*
X31964000Y37312000D03*
X32464000Y37312000D03*
X32964000Y37312000D03*
X33464000Y37312000D03*
X33964000Y37312000D03*
X34464000Y37312000D03*
X34964000Y37312000D03*
X35464000Y37312000D03*
D13*
X37364000Y39212000D03*
X37364000Y39712000D03*
X37364000Y40212000D03*
X37364000Y40712000D03*
X37364000Y41212000D03*
X37364000Y41712000D03*
X37364000Y42212000D03*
X37364000Y42712000D03*
X37364000Y43212000D03*
X37364000Y43712000D03*
X37364000Y44212000D03*
X37364000Y44712000D03*
X37364000Y45212000D03*
X37364000Y45712000D03*
X37364000Y46212000D03*
X37364000Y46712000D03*
X37364000Y47212000D03*
X37364000Y47712000D03*
X37364000Y48212000D03*
X37364000Y48712000D03*
X37364000Y49212000D03*
X37364000Y49712000D03*
X37364000Y50212000D03*
X37364000Y50712000D03*
X37364000Y51212000D03*
D12*
X35464000Y53112000D03*
X34964000Y53112000D03*
X34464000Y53112000D03*
X33964000Y53112000D03*
X33464000Y53112000D03*
X32964000Y53112000D03*
X32464000Y53112000D03*
X31964000Y53112000D03*
X31464000Y53112000D03*
X30964000Y53112000D03*
X30464000Y53112000D03*
X29964000Y53112000D03*
X29464000Y53112000D03*
X28964000Y53112000D03*
X28464000Y53112000D03*
X27964000Y53112000D03*
X27464000Y53112000D03*
X26964000Y53112000D03*
X26464000Y53112000D03*
X25964000Y53112000D03*
X25464000Y53112000D03*
X24964000Y53112000D03*
X24464000Y53112000D03*
X23964000Y53112000D03*
X23464000Y53112000D03*
D13*
X21564000Y51212000D03*
X21564000Y50712000D03*
X21564000Y50212000D03*
X21564000Y49712000D03*
X21564000Y49212000D03*
X21564000Y48712000D03*
X21564000Y48212000D03*
X21564000Y47712000D03*
X21564000Y47212000D03*
X21564000Y46712000D03*
X21564000Y46212000D03*
X21564000Y45712000D03*
X21564000Y45212000D03*
X21564000Y44712000D03*
X21564000Y44212000D03*
X21564000Y43712000D03*
X21564000Y43212000D03*
X21564000Y42712000D03*
X21564000Y42212000D03*
X21564000Y41712000D03*
X21564000Y41212000D03*
X21564000Y40712000D03*
X21564000Y40212000D03*
X21564000Y39712000D03*
X21564000Y39212000D03*
D14*
X92456000Y81153000D03*
X97456000Y81153000D03*
X97456000Y86153000D03*
X92456000Y86153000D03*
X94956000Y83653000D03*
D15*
X74437240Y71689000D03*
X74437240Y69789000D03*
X76436220Y70739000D03*
D16*
X50091000Y55880000D03*
X47191000Y55880000D03*
D17*
X104299000Y11337000D03*
D18*
X98679000Y11637000D03*
X96139000Y11637000D03*
X93599000Y11637000D03*
X101219000Y11637000D03*
X101219000Y21637000D03*
X98679000Y21637000D03*
X96139000Y21637000D03*
X93599000Y21637000D03*
D17*
X90629000Y25237000D03*
D14*
X105029000Y81153000D03*
X110029000Y81153000D03*
X110029000Y86153000D03*
X105029000Y86153000D03*
X107529000Y83653000D03*
D19*
X50062000Y60960000D03*
X53062000Y60960000D03*
X47220000Y60960000D03*
X44220000Y60960000D03*
X16232000Y43307000D03*
X13232000Y43307000D03*
X42315000Y41719500D03*
X45315000Y41719500D03*
X24281000Y31877000D03*
X27281000Y31877000D03*
X16232000Y49149000D03*
X13232000Y49149000D03*
X29948000Y57531000D03*
X26948000Y57531000D03*
D20*
X16891000Y39219000D03*
X16891000Y36219000D03*
D21*
X29591000Y83055460D03*
X29591000Y89156540D03*
D20*
X33147000Y75843000D03*
X33147000Y78843000D03*
X81026000Y8358000D03*
X81026000Y5358000D03*
X81026000Y13867000D03*
X81026000Y16867000D03*
D22*
X64897000Y81343500D03*
X64897000Y89344500D03*
D20*
X82931000Y83717000D03*
X82931000Y86717000D03*
X52832000Y18693000D03*
X52832000Y21693000D03*
D23*
X80264000Y41678860D03*
X80264000Y38077140D03*
D19*
X34647000Y11684000D03*
X31647000Y11684000D03*
D20*
X93345000Y35917000D03*
X93345000Y32917000D03*
X96774000Y35917000D03*
X96774000Y32917000D03*
D24*
X14500860Y64643000D03*
X11661140Y64643000D03*
X14500860Y60325000D03*
X11661140Y60325000D03*
X14437360Y73723500D03*
X11597640Y73723500D03*
X14500860Y69088000D03*
X11661140Y69088000D03*
D25*
X83482000Y29906000D03*
X83482000Y28956000D03*
X83482000Y28006000D03*
X85682000Y28006000D03*
X85682000Y29906000D03*
D26*
X46834000Y77343000D03*
X45134000Y77343000D03*
X41734000Y77343000D03*
D27*
X43434000Y86493000D03*
D26*
X43434000Y77343000D03*
X40034000Y77343000D03*
D28*
X47752000Y34417000D03*
D29*
X47752000Y36957000D03*
D30*
X6350000Y32004000D03*
D31*
X6350000Y29464000D03*
X6350000Y26924000D03*
D32*
X37211000Y24638000D03*
D33*
X37211000Y22098000D03*
X34671000Y24638000D03*
X34671000Y22098000D03*
X32131000Y24638000D03*
X32131000Y22098000D03*
X29591000Y24638000D03*
X29591000Y22098000D03*
X27051000Y24638000D03*
X27051000Y22098000D03*
X24511000Y24638000D03*
X24511000Y22098000D03*
X21971000Y24638000D03*
X21971000Y22098000D03*
D28*
X14732000Y86614000D03*
D29*
X14732000Y89154000D03*
D28*
X6350000Y8128000D03*
D29*
X6350000Y10668000D03*
D28*
X6477000Y49530000D03*
D29*
X6477000Y52070000D03*
D28*
X14224000Y10922000D03*
D29*
X14224000Y13462000D03*
D32*
X51181000Y49911000D03*
D33*
X53721000Y49911000D03*
X51181000Y47371000D03*
X53721000Y47371000D03*
D28*
X61849000Y28829000D03*
D29*
X64389000Y28829000D03*
D28*
X75057000Y26543000D03*
D29*
X75057000Y24003000D03*
D28*
X62484000Y69342000D03*
D29*
X62484000Y66802000D03*
D28*
X68961000Y67310000D03*
D29*
X68961000Y69850000D03*
D32*
X76581000Y47371000D03*
D33*
X74041000Y47371000D03*
X76581000Y49911000D03*
X74041000Y49911000D03*
D28*
X36576000Y62992000D03*
D29*
X36576000Y65532000D03*
D28*
X23114000Y65532000D03*
D29*
X23114000Y62992000D03*
D32*
X45720000Y7366000D03*
D33*
X48260000Y7366000D03*
X45720000Y4826000D03*
X48260000Y4826000D03*
D15*
X63484760Y53279000D03*
X63484760Y55179000D03*
X61485780Y54229000D03*
X65166240Y38796000D03*
X65166240Y36896000D03*
X67165220Y37846000D03*
X71308000Y24749760D03*
X69408000Y24749760D03*
X70358000Y22750780D03*
X31607760Y65471000D03*
X31607760Y67371000D03*
X29608780Y66421000D03*
D34*
X42672000Y37391000D03*
X42672000Y34491000D03*
X67310000Y52779000D03*
X67310000Y55679000D03*
D16*
X61034000Y48895000D03*
X63934000Y48895000D03*
D34*
X57023000Y57076000D03*
X57023000Y54176000D03*
D16*
X67871000Y43815000D03*
X64971000Y43815000D03*
X57986000Y43815000D03*
X60886000Y43815000D03*
D34*
X59182000Y39677000D03*
X59182000Y36777000D03*
D16*
X7292000Y64643000D03*
X4392000Y64643000D03*
X7355500Y60388500D03*
X4455500Y60388500D03*
X7292000Y73787000D03*
X4392000Y73787000D03*
X55806000Y86741000D03*
X52906000Y86741000D03*
X55806000Y80518000D03*
X52906000Y80518000D03*
D34*
X76835000Y83767000D03*
X76835000Y86667000D03*
D16*
X69522000Y62484000D03*
X66622000Y62484000D03*
X76634000Y63500000D03*
X73734000Y63500000D03*
D34*
X21463000Y7948000D03*
X21463000Y10848000D03*
D16*
X7292000Y69088000D03*
X4392000Y69088000D03*
X14912000Y54483000D03*
X12012000Y54483000D03*
D34*
X62230000Y21664000D03*
X62230000Y24564000D03*
X66548000Y21791000D03*
X66548000Y24691000D03*
D16*
X68019000Y29083000D03*
X70919000Y29083000D03*
D34*
X100076000Y32967000D03*
X100076000Y35867000D03*
X103505000Y35867000D03*
X103505000Y32967000D03*
X106680000Y35867000D03*
X106680000Y32967000D03*
D16*
X34999000Y70739000D03*
X37899000Y70739000D03*
X28776000Y70739000D03*
X31676000Y70739000D03*
X28649000Y60960000D03*
X31549000Y60960000D03*
D35*
X97598000Y43561000D03*
D36*
X85598000Y63561000D03*
X85598000Y62561000D03*
X85598000Y61561000D03*
X85598000Y60561000D03*
X85598000Y59561000D03*
X85598000Y58561000D03*
X85598000Y57561000D03*
X85598000Y56561000D03*
X85598000Y55561000D03*
X85598000Y54561000D03*
X85598000Y53561000D03*
X85598000Y52561000D03*
X85598000Y51561000D03*
X85598000Y50561000D03*
X85598000Y49561000D03*
X85598000Y48561000D03*
X85598000Y47561000D03*
D35*
X89598000Y43561000D03*
X90598000Y43561000D03*
X91598000Y43561000D03*
X92598000Y43561000D03*
X93598000Y43561000D03*
X94598000Y43561000D03*
X95598000Y43561000D03*
X96598000Y43561000D03*
X98598000Y43561000D03*
X99598000Y43561000D03*
X100598000Y43561000D03*
X101598000Y43561000D03*
X102598000Y43561000D03*
X103598000Y43561000D03*
X104598000Y43561000D03*
X105598000Y43561000D03*
D36*
X109598000Y47561000D03*
X109598000Y48561000D03*
X109598000Y49561000D03*
X109598000Y50561000D03*
X109598000Y51561000D03*
X109598000Y52561000D03*
X109598000Y53561000D03*
X109598000Y54561000D03*
X109598000Y55561000D03*
X109598000Y56561000D03*
X109598000Y57561000D03*
X109598000Y58561000D03*
X109598000Y59561000D03*
X109598000Y60561000D03*
X109598000Y61561000D03*
X109598000Y62561000D03*
X109598000Y63561000D03*
D35*
X105598000Y67561000D03*
X104598000Y67561000D03*
X103598000Y67561000D03*
X102598000Y67561000D03*
X101598000Y67561000D03*
X100598000Y67561000D03*
X99598000Y67561000D03*
X98598000Y67561000D03*
X97598000Y67561000D03*
X96598000Y67561000D03*
X95598000Y67561000D03*
X94598000Y67561000D03*
X93598000Y67561000D03*
X92598000Y67561000D03*
X91598000Y67561000D03*
X90598000Y67561000D03*
X89598000Y67561000D03*
D37*
X87598000Y65561000D03*
D38*
X62640000Y7108000D03*
X62640000Y7758000D03*
X62640000Y8408000D03*
X62640000Y9058000D03*
X62640000Y9708000D03*
X62640000Y10358000D03*
X62640000Y11008000D03*
X62640000Y11658000D03*
X62640000Y12308000D03*
X62640000Y12958000D03*
X56740000Y12958000D03*
X56740000Y12308000D03*
X56740000Y11658000D03*
X56740000Y11008000D03*
X56740000Y10358000D03*
X56740000Y9708000D03*
X56740000Y9058000D03*
X56740000Y8408000D03*
X56740000Y7758000D03*
X56740000Y7108000D03*
D39*
X37879000Y3175000D03*
X37879000Y4445000D03*
X37879000Y5715000D03*
X37879000Y6985000D03*
X32479000Y6985000D03*
X32479000Y5715000D03*
X32479000Y4445000D03*
X32479000Y3175000D03*
D40*
X44046140Y66167000D03*
X53743860Y66167000D03*
D41*
X74168000Y16024860D03*
X74168000Y6327140D03*
D42*
X53340000Y55245000D03*
M02*
